solid OpenSCAD_Model
  facet normal -0 0 -1
    outer loop
      vertex 7.41747 -3.60312 0
      vertex 6.68585 -3.82506 0
      vertex 6.55643 -1.5244 0
    endloop
  endfacet
  facet normal -0 0 -1
    outer loop
      vertex 9.16772 -2.16672 0
      vertex 8.68271 -2.75771 0
      vertex 7.29692 -0.916687 0
    endloop
  endfacet
  facet normal 0 0 -1
    outer loop
      vertex 7.575 0 0
      vertex 9.75006 0.760849 0
      vertex 9.825 0 0
    endloop
  endfacet
  facet normal 0 0 -1
    outer loop
      vertex 7.29692 0.916687 0
      vertex 9.16772 2.16672 0
      vertex 9.52812 1.49246 0
    endloop
  endfacet
  facet normal 0 -0 -1
    outer loop
      vertex 8.68271 2.75771 0
      vertex 9.16772 2.16672 0
      vertex 7.29692 0.916687 0
    endloop
  endfacet
  facet normal 0 0 -1
    outer loop
      vertex 6.55643 1.5244 0
      vertex 8.09172 3.24272 0
      vertex 6.84169 1.37192 0
    endloop
  endfacet
  facet normal 0 -0 -1
    outer loop
      vertex 9.52812 1.49246 0
      vertex 9.75006 0.760849 0
      vertex 7.54329 0.321884 0
    endloop
  endfacet
  facet normal 0 0 -1
    outer loop
      vertex 5.92499 1.64999 0
      vertex 6.68585 3.82506 0
      vertex 6.24689 1.61829 0
    endloop
  endfacet
  facet normal 0 0 -1
    outer loop
      vertex 9.52812 -1.49246 0
      vertex 7.54329 -0.321884 0
      vertex 9.75006 -0.760849 0
    endloop
  endfacet
  facet normal -0 0 -1
    outer loop
      vertex 5.60309 1.61829 0
      vertex 5.29356 1.5244 0
      vertex 5.92499 3.89999 0
    endloop
  endfacet
  facet normal -0 0 -1
    outer loop
      vertex 5.29356 1.5244 0
      vertex 5.0083 1.37192 0
      vertex 2.73958 3.89999 0
    endloop
  endfacet
  facet normal 0 0 -1
    outer loop
      vertex 2.73958 3.89999 0
      vertex 4.75827 1.16672 0
      vertex 4.55307 0.916687 0
    endloop
  endfacet
  facet normal 0 -0 -1
    outer loop
      vertex 7.09172 -1.16672 0
      vertex 8.68271 -2.75771 0
      vertex 6.84169 -1.37192 0
    endloop
  endfacet
  facet normal 0 0 -1
    outer loop
      vertex 4.3067 -0.321884 0
      vertex 1.05853 2.00577 0
      vertex 4.27499 0 0
    endloop
  endfacet
  facet normal -0 0 -1
    outer loop
      vertex 6.68585 -3.82506 0
      vertex 5.92499 -3.89999 0
      vertex 5.92499 -1.64999 0
    endloop
  endfacet
  facet normal -0 -0 -1
    outer loop
      vertex 4.3067 -0.321884 0
      vertex 4.40059 -0.631424 0
      vertex 1 2 0
    endloop
  endfacet
  facet normal 0 0 -1
    outer loop
      vertex -4.40059 -0.631424 0
      vertex -4.3067 -0.321884 0
      vertex -1.2 2 0
    endloop
  endfacet
  facet normal -0 0 -1
    outer loop
      vertex -1.2 2 0
      vertex -4.3067 -0.321884 0
      vertex -1.28343 2.01184 0
    endloop
  endfacet
  facet normal -0 -0 -1
    outer loop
      vertex 5.92499 -1.64999 0
      vertex 5.92499 -3.89999 0
      vertex 5.60309 -1.61829 0
    endloop
  endfacet
  facet normal 0 0 -1
    outer loop
      vertex 5.92499 -3.89999 0
      vertex 4.75827 -1.16672 0
      vertex 5.0083 -1.37192 0
    endloop
  endfacet
  facet normal 0 -0 -1
    outer loop
      vertex -5.92499 -1.64999 0
      vertex -5.92499 -3.89999 0
      vertex -6.68585 -3.82506 0
    endloop
  endfacet
  facet normal -0 0 -1
    outer loop
      vertex -7.09172 -1.16672 0
      vertex -8.68271 -2.75771 0
      vertex -7.29692 -0.916687 0
    endloop
  endfacet
  facet normal 0 0 -1
    outer loop
      vertex -7.54329 0.321884 0
      vertex -9.52812 1.49246 0
      vertex -7.44939 0.631424 0
    endloop
  endfacet
  facet normal 0 0 -1
    outer loop
      vertex -8.09172 -3.24272 0
      vertex -6.55643 -1.5244 0
      vertex -7.41747 -3.60312 0
    endloop
  endfacet
  facet normal 0 0 -1
    outer loop
      vertex -7.29692 0.916687 0
      vertex -8.68271 2.75771 0
      vertex -7.09172 1.16672 0
    endloop
  endfacet
  facet normal 0 0 -1
    outer loop
      vertex -9.75006 -0.760849 0
      vertex -9.825 0 0
      vertex -7.575 0 0
    endloop
  endfacet
  facet normal 0 0 -1
    outer loop
      vertex -6.84169 -1.37192 0
      vertex -8.09172 -3.24272 0
      vertex -8.68271 -2.75771 0
    endloop
  endfacet
  facet normal -0 0 -1
    outer loop
      vertex -7.29692 -0.916687 0
      vertex -9.52812 -1.49246 0
      vertex -7.44939 -0.631424 0
    endloop
  endfacet
  facet normal 0 -0 -1
    outer loop
      vertex -6.84169 -1.37192 0
      vertex -6.55643 -1.5244 0
      vertex -8.09172 -3.24272 0
    endloop
  endfacet
  facet normal -0 0 -1
    outer loop
      vertex -7.44939 -0.631424 0
      vertex -9.52812 -1.49246 0
      vertex -7.54329 -0.321884 0
    endloop
  endfacet
  facet normal 0 0 -1
    outer loop
      vertex -7.41747 -3.60312 0
      vertex -6.55643 -1.5244 0
      vertex -6.68585 -3.82506 0
    endloop
  endfacet
  facet normal -0 0 -1
    outer loop
      vertex -6.24689 -1.61829 0
      vertex -6.68585 -3.82506 0
      vertex -6.55643 -1.5244 0
    endloop
  endfacet
  facet normal 0 -0 -1
    outer loop
      vertex -6.24689 -1.61829 0
      vertex -5.92499 -1.64999 0
      vertex -6.68585 -3.82506 0
    endloop
  endfacet
  facet normal 0 0 -1
    outer loop
      vertex -8.68271 2.75771 0
      vertex -8.09172 3.24272 0
      vertex -6.84169 1.37192 0
    endloop
  endfacet
  facet normal -0 0 -1
    outer loop
      vertex -5.92499 1.64999 0
      vertex -6.24689 1.61829 0
      vertex -6.68585 3.82506 0
    endloop
  endfacet
  facet normal 0 0 -1
    outer loop
      vertex -5.29356 1.5244 0
      vertex -2.93958 3.89999 0
      vertex -5.0083 1.37192 0
    endloop
  endfacet
  facet normal 0 0 -1
    outer loop
      vertex -4.75827 1.16672 0
      vertex -2.93958 3.89999 0
      vertex -4.55307 0.916687 0
    endloop
  endfacet
  facet normal 0 0 -1
    outer loop
      vertex -4.3067 0.321884 0
      vertex -4.40059 0.631424 0
      vertex -1.42947 2.10677 0
    endloop
  endfacet
  facet normal 0 -0 -1
    outer loop
      vertex -1.38736 2.0657 0
      vertex -1.33806 2.03366 0
      vertex -4.3067 0.321884 0
    endloop
  endfacet
  facet normal -0 -0 -1
    outer loop
      vertex 5.29356 -1.5244 0
      vertex 5.92499 -3.89999 0
      vertex 5.0083 -1.37192 0
    endloop
  endfacet
  facet normal 0 0 -1
    outer loop
      vertex 4.3067 -0.321884 0
      vertex 1 2 0
      vertex 1.05853 2.00577 0
    endloop
  endfacet
  facet normal -0 -0 -1
    outer loop
      vertex 5.60309 -1.61829 0
      vertex 5.92499 -3.89999 0
      vertex 5.29356 -1.5244 0
    endloop
  endfacet
  facet normal 0 0 -1
    outer loop
      vertex -5.92499 -3.89999 0
      vertex 4.55307 -0.916687 0
      vertex 5.92499 -3.89999 0
    endloop
  endfacet
  facet normal 0 0 -1
    outer loop
      vertex 5.92499 -3.89999 0
      vertex 4.55307 -0.916687 0
      vertex 4.75827 -1.16672 0
    endloop
  endfacet
  facet normal 0 0 -1
    outer loop
      vertex -1.28343 2.01184 0
      vertex -4.3067 -0.321884 0
      vertex -4.27499 0 0
    endloop
  endfacet
  facet normal 0 0 -1
    outer loop
      vertex 4.27499 0 0
      vertex 1.05853 2.00577 0
      vertex 1.11481 2.02284 0
    endloop
  endfacet
  facet normal 0 -0 -1
    outer loop
      vertex 1.16667 2.05057 0
      vertex 4.27499 0 0
      vertex 1.11481 2.02284 0
    endloop
  endfacet
  facet normal 0 0 -1
    outer loop
      vertex 1.16667 2.05057 0
      vertex 4.3067 0.321884 0
      vertex 4.27499 0 0
    endloop
  endfacet
  facet normal 0 0 -1
    outer loop
      vertex 1.16667 2.05057 0
      vertex 1.22948 2.10677 0
      vertex 4.3067 0.321884 0
    endloop
  endfacet
  facet normal 0 0 -1
    outer loop
      vertex 4.3067 0.321884 0
      vertex 1.22948 2.10677 0
      vertex 4.40059 0.631424 0
    endloop
  endfacet
  facet normal 0 0 -1
    outer loop
      vertex 4.55307 0.916687 0
      vertex 1.22948 2.10677 0
      vertex 2.73958 3.89999 0
    endloop
  endfacet
  facet normal 0 0 -1
    outer loop
      vertex 4.40059 0.631424 0
      vertex 1.22948 2.10677 0
      vertex 4.55307 0.916687 0
    endloop
  endfacet
  facet normal 0 0 -1
    outer loop
      vertex 2.73958 3.89999 0
      vertex 5.0083 1.37192 0
      vertex 4.75827 1.16672 0
    endloop
  endfacet
  facet normal -0 0 -1
    outer loop
      vertex 5.92499 3.89999 0
      vertex 5.29356 1.5244 0
      vertex 2.73958 3.89999 0
    endloop
  endfacet
  facet normal -0 0 -1
    outer loop
      vertex 5.92499 1.64999 0
      vertex 5.60309 1.61829 0
      vertex 5.92499 3.89999 0
    endloop
  endfacet
  facet normal 0 0 -1
    outer loop
      vertex 5.92499 3.89999 0
      vertex 6.68585 3.82506 0
      vertex 5.92499 1.64999 0
    endloop
  endfacet
  facet normal -0 0 -1
    outer loop
      vertex 7.41747 3.60312 0
      vertex 6.55643 1.5244 0
      vertex 6.68585 3.82506 0
    endloop
  endfacet
  facet normal 0 0 -1
    outer loop
      vertex 6.55643 1.5244 0
      vertex 6.24689 1.61829 0
      vertex 6.68585 3.82506 0
    endloop
  endfacet
  facet normal 0 -0 -1
    outer loop
      vertex 7.41747 3.60312 0
      vertex 8.09172 3.24272 0
      vertex 6.55643 1.5244 0
    endloop
  endfacet
  facet normal 0 0 -1
    outer loop
      vertex 8.68271 2.75771 0
      vertex 7.09172 1.16672 0
      vertex 6.84169 1.37192 0
    endloop
  endfacet
  facet normal -0 0 -1
    outer loop
      vertex 8.68271 2.75771 0
      vertex 6.84169 1.37192 0
      vertex 8.09172 3.24272 0
    endloop
  endfacet
  facet normal 0 0 -1
    outer loop
      vertex 8.68271 2.75771 0
      vertex 7.29692 0.916687 0
      vertex 7.09172 1.16672 0
    endloop
  endfacet
  facet normal 0 0 -1
    outer loop
      vertex 7.44939 0.631424 0
      vertex 7.29692 0.916687 0
      vertex 9.52812 1.49246 0
    endloop
  endfacet
  facet normal 0 0 -1
    outer loop
      vertex 9.52812 1.49246 0
      vertex 7.54329 0.321884 0
      vertex 7.44939 0.631424 0
    endloop
  endfacet
  facet normal 0 0 -1
    outer loop
      vertex 7.575 0 0
      vertex 7.54329 0.321884 0
      vertex 9.75006 0.760849 0
    endloop
  endfacet
  facet normal 0 0 -1
    outer loop
      vertex 9.75006 -0.760849 0
      vertex 7.575 0 0
      vertex 9.825 0 0
    endloop
  endfacet
  facet normal 0 0 -1
    outer loop
      vertex 9.75006 -0.760849 0
      vertex 7.54329 -0.321884 0
      vertex 7.575 0 0
    endloop
  endfacet
  facet normal 0 0 -1
    outer loop
      vertex 9.52812 -1.49246 0
      vertex 7.44939 -0.631424 0
      vertex 7.54329 -0.321884 0
    endloop
  endfacet
  facet normal 0 0 -1
    outer loop
      vertex 9.52812 -1.49246 0
      vertex 7.29692 -0.916687 0
      vertex 7.44939 -0.631424 0
    endloop
  endfacet
  facet normal -0 0 -1
    outer loop
      vertex 9.52812 -1.49246 0
      vertex 9.16772 -2.16672 0
      vertex 7.29692 -0.916687 0
    endloop
  endfacet
  facet normal 0 -0 -1
    outer loop
      vertex 7.29692 -0.916687 0
      vertex 8.68271 -2.75771 0
      vertex 7.09172 -1.16672 0
    endloop
  endfacet
  facet normal -0 0 -1
    outer loop
      vertex 8.68271 -2.75771 0
      vertex 8.09172 -3.24272 0
      vertex 6.84169 -1.37192 0
    endloop
  endfacet
  facet normal 0 -0 -1
    outer loop
      vertex 6.84169 -1.37192 0
      vertex 8.09172 -3.24272 0
      vertex 6.55643 -1.5244 0
    endloop
  endfacet
  facet normal 0 0 -1
    outer loop
      vertex 6.55643 -1.5244 0
      vertex 8.09172 -3.24272 0
      vertex 7.41747 -3.60312 0
    endloop
  endfacet
  facet normal 0 0 -1
    outer loop
      vertex 5.92499 -1.64999 0
      vertex 6.24689 -1.61829 0
      vertex 6.68585 -3.82506 0
    endloop
  endfacet
  facet normal 0 0 -1
    outer loop
      vertex 6.24689 -1.61829 0
      vertex 6.55643 -1.5244 0
      vertex 6.68585 -3.82506 0
    endloop
  endfacet
  facet normal -0 0 -1
    outer loop
      vertex -1.28343 2.01184 0
      vertex -4.27499 0 0
      vertex -1.33806 2.03366 0
    endloop
  endfacet
  facet normal 0 -0 -1
    outer loop
      vertex -7.09172 -1.16672 0
      vertex -6.84169 -1.37192 0
      vertex -8.68271 -2.75771 0
    endloop
  endfacet
  facet normal 0 0 -1
    outer loop
      vertex -7.29692 -0.916687 0
      vertex -8.68271 -2.75771 0
      vertex -9.16772 -2.16672 0
    endloop
  endfacet
  facet normal 0 0 -1
    outer loop
      vertex -9.16772 -2.16672 0
      vertex -9.52812 -1.49246 0
      vertex -7.29692 -0.916687 0
    endloop
  endfacet
  facet normal 0 0 -1
    outer loop
      vertex -7.54329 -0.321884 0
      vertex -9.52812 -1.49246 0
      vertex -9.75006 -0.760849 0
    endloop
  endfacet
  facet normal 0 0 -1
    outer loop
      vertex -9.75006 -0.760849 0
      vertex -7.575 0 0
      vertex -7.54329 -0.321884 0
    endloop
  endfacet
  facet normal 0 0 -1
    outer loop
      vertex -9.75006 0.760849 0
      vertex -7.54329 0.321884 0
      vertex -7.575 0 0
    endloop
  endfacet
  facet normal 0 -0 -1
    outer loop
      vertex -9.75006 0.760849 0
      vertex -7.575 0 0
      vertex -9.825 0 0
    endloop
  endfacet
  facet normal 0 0 -1
    outer loop
      vertex -9.75006 0.760849 0
      vertex -9.52812 1.49246 0
      vertex -7.54329 0.321884 0
    endloop
  endfacet
  facet normal 0 -0 -1
    outer loop
      vertex -9.16772 2.16672 0
      vertex -7.29692 0.916687 0
      vertex -9.52812 1.49246 0
    endloop
  endfacet
  facet normal -0 0 -1
    outer loop
      vertex -7.29692 0.916687 0
      vertex -7.44939 0.631424 0
      vertex -9.52812 1.49246 0
    endloop
  endfacet
  facet normal 0 0 -1
    outer loop
      vertex -9.16772 2.16672 0
      vertex -8.68271 2.75771 0
      vertex -7.29692 0.916687 0
    endloop
  endfacet
  facet normal 0 0 -1
    outer loop
      vertex -8.68271 2.75771 0
      vertex -6.84169 1.37192 0
      vertex -7.09172 1.16672 0
    endloop
  endfacet
  facet normal -0 0 -1
    outer loop
      vertex -6.55643 1.5244 0
      vertex -6.84169 1.37192 0
      vertex -8.09172 3.24272 0
    endloop
  endfacet
  facet normal 0 -0 -1
    outer loop
      vertex -7.41747 3.60312 0
      vertex -6.55643 1.5244 0
      vertex -8.09172 3.24272 0
    endloop
  endfacet
  facet normal 0 0 -1
    outer loop
      vertex -6.55643 1.5244 0
      vertex -6.68585 3.82506 0
      vertex -6.24689 1.61829 0
    endloop
  endfacet
  facet normal 0 0 -1
    outer loop
      vertex -7.41747 3.60312 0
      vertex -6.68585 3.82506 0
      vertex -6.55643 1.5244 0
    endloop
  endfacet
  facet normal 0 -0 -1
    outer loop
      vertex -5.92499 3.89999 0
      vertex -5.92499 1.64999 0
      vertex -6.68585 3.82506 0
    endloop
  endfacet
  facet normal 0 0 -1
    outer loop
      vertex -5.92499 3.89999 0
      vertex -5.60309 1.61829 0
      vertex -5.92499 1.64999 0
    endloop
  endfacet
  facet normal 0 0 -1
    outer loop
      vertex -5.92499 3.89999 0
      vertex -5.29356 1.5244 0
      vertex -5.60309 1.61829 0
    endloop
  endfacet
  facet normal 0 0 -1
    outer loop
      vertex -5.92499 3.89999 0
      vertex -2.93958 3.89999 0
      vertex -5.29356 1.5244 0
    endloop
  endfacet
  facet normal 0 0 -1
    outer loop
      vertex -2.93958 3.89999 0
      vertex -4.75827 1.16672 0
      vertex -5.0083 1.37192 0
    endloop
  endfacet
  facet normal -0 0 -1
    outer loop
      vertex -1.42947 2.10677 0
      vertex -4.55307 0.916687 0
      vertex -2.93958 3.89999 0
    endloop
  endfacet
  facet normal 0 0 -1
    outer loop
      vertex -1.42947 2.10677 0
      vertex -4.40059 0.631424 0
      vertex -4.55307 0.916687 0
    endloop
  endfacet
  facet normal -0 0 -1
    outer loop
      vertex -1.38736 2.0657 0
      vertex -4.3067 0.321884 0
      vertex -1.42947 2.10677 0
    endloop
  endfacet
  facet normal 0 0 -1
    outer loop
      vertex -1.33806 2.03366 0
      vertex -4.27499 0 0
      vertex -4.3067 0.321884 0
    endloop
  endfacet
  facet normal 0 0 -1
    outer loop
      vertex -4.40059 -0.631424 0
      vertex -1.2 2 0
      vertex 1 2 0
    endloop
  endfacet
  facet normal 0 0 -1
    outer loop
      vertex 4.40059 -0.631424 0
      vertex -4.40059 -0.631424 0
      vertex 1 2 0
    endloop
  endfacet
  facet normal -0 0 -1
    outer loop
      vertex 4.40059 -0.631424 0
      vertex -4.55307 -0.916687 0
      vertex -4.40059 -0.631424 0
    endloop
  endfacet
  facet normal 0 -0 -1
    outer loop
      vertex 4.40059 -0.631424 0
      vertex 4.55307 -0.916687 0
      vertex -4.55307 -0.916687 0
    endloop
  endfacet
  facet normal 0 -0 -1
    outer loop
      vertex -4.55307 -0.916687 0
      vertex 4.55307 -0.916687 0
      vertex -5.92499 -3.89999 0
    endloop
  endfacet
  facet normal 0 -0 -1
    outer loop
      vertex -4.75827 -1.16672 0
      vertex -4.55307 -0.916687 0
      vertex -5.92499 -3.89999 0
    endloop
  endfacet
  facet normal 0 -0 -1
    outer loop
      vertex -5.0083 -1.37192 0
      vertex -4.75827 -1.16672 0
      vertex -5.92499 -3.89999 0
    endloop
  endfacet
  facet normal 0 -0 -1
    outer loop
      vertex -5.29356 -1.5244 0
      vertex -5.0083 -1.37192 0
      vertex -5.92499 -3.89999 0
    endloop
  endfacet
  facet normal 0 0 -1
    outer loop
      vertex -5.92499 -1.64999 0
      vertex -5.60309 -1.61829 0
      vertex -5.92499 -3.89999 0
    endloop
  endfacet
  facet normal 0 -0 -1
    outer loop
      vertex -5.60309 -1.61829 0
      vertex -5.29356 -1.5244 0
      vertex -5.92499 -3.89999 0
    endloop
  endfacet
  facet normal 0 0 1
    outer loop
      vertex 6.55643 -1.5244 13.8
      vertex 6.68585 -3.82506 13.8
      vertex 7.41747 -3.60312 13.8
    endloop
  endfacet
  facet normal 0 0 1
    outer loop
      vertex 7.29692 -0.916687 13.8
      vertex 8.68271 -2.75771 13.8
      vertex 9.16772 -2.16672 13.8
    endloop
  endfacet
  facet normal 0 0 1
    outer loop
      vertex 9.825 0 13.8
      vertex 9.75006 0.760849 13.8
      vertex 7.575 0 13.8
    endloop
  endfacet
  facet normal 0 0 1
    outer loop
      vertex 9.52812 1.49246 13.8
      vertex 9.16772 2.16672 13.8
      vertex 7.29692 0.916687 13.8
    endloop
  endfacet
  facet normal 0 0 1
    outer loop
      vertex 7.29692 0.916687 13.8
      vertex 9.16772 2.16672 13.8
      vertex 8.68271 2.75771 13.8
    endloop
  endfacet
  facet normal 0 -0 1
    outer loop
      vertex 6.84169 1.37192 13.8
      vertex 8.09172 3.24272 13.8
      vertex 6.55643 1.5244 13.8
    endloop
  endfacet
  facet normal 0 0 1
    outer loop
      vertex 7.54329 0.321884 13.8
      vertex 9.75006 0.760849 13.8
      vertex 9.52812 1.49246 13.8
    endloop
  endfacet
  facet normal 0 -0 1
    outer loop
      vertex 6.24689 1.61829 13.8
      vertex 6.68585 3.82506 13.8
      vertex 5.92499 1.64999 13.8
    endloop
  endfacet
  facet normal 0 0 1
    outer loop
      vertex 9.75006 -0.760849 13.8
      vertex 7.54329 -0.321884 13.8
      vertex 9.52812 -1.49246 13.8
    endloop
  endfacet
  facet normal 0 0 1
    outer loop
      vertex 5.92499 3.89999 13.8
      vertex 5.29356 1.5244 13.8
      vertex 5.60309 1.61829 13.8
    endloop
  endfacet
  facet normal 0 0 1
    outer loop
      vertex 2.73958 3.89999 13.8
      vertex 5.0083 1.37192 13.8
      vertex 5.29356 1.5244 13.8
    endloop
  endfacet
  facet normal 0 -0 1
    outer loop
      vertex 4.55307 0.916687 13.8
      vertex 4.75827 1.16672 13.8
      vertex 2.73958 3.89999 13.8
    endloop
  endfacet
  facet normal -0 0 1
    outer loop
      vertex 6.84169 -1.37192 13.8
      vertex 8.68271 -2.75771 13.8
      vertex 7.09172 -1.16672 13.8
    endloop
  endfacet
  facet normal 0 0 1
    outer loop
      vertex 4.27499 0 13.8
      vertex 1.05853 2.00577 13.8
      vertex 4.3067 -0.321884 13.8
    endloop
  endfacet
  facet normal 0 0 1
    outer loop
      vertex 5.92499 -1.64999 13.8
      vertex 5.92499 -3.89999 13.8
      vertex 6.68585 -3.82506 13.8
    endloop
  endfacet
  facet normal 0 0 1
    outer loop
      vertex 1 2 13.8
      vertex 4.40059 -0.631424 13.8
      vertex 4.3067 -0.321884 13.8
    endloop
  endfacet
  facet normal 0 0 1
    outer loop
      vertex -1.2 2 13.8
      vertex -4.3067 -0.321884 13.8
      vertex -4.40059 -0.631424 13.8
    endloop
  endfacet
  facet normal 0 0 1
    outer loop
      vertex -1.28343 2.01184 13.8
      vertex -4.3067 -0.321884 13.8
      vertex -1.2 2 13.8
    endloop
  endfacet
  facet normal 0 0 1
    outer loop
      vertex 5.60309 -1.61829 13.8
      vertex 5.92499 -3.89999 13.8
      vertex 5.92499 -1.64999 13.8
    endloop
  endfacet
  facet normal 0 0 1
    outer loop
      vertex 5.0083 -1.37192 13.8
      vertex 4.75827 -1.16672 13.8
      vertex 5.92499 -3.89999 13.8
    endloop
  endfacet
  facet normal -0 0 1
    outer loop
      vertex -6.68585 -3.82506 13.8
      vertex -5.92499 -3.89999 13.8
      vertex -5.92499 -1.64999 13.8
    endloop
  endfacet
  facet normal 0 0 1
    outer loop
      vertex -7.29692 -0.916687 13.8
      vertex -8.68271 -2.75771 13.8
      vertex -7.09172 -1.16672 13.8
    endloop
  endfacet
  facet normal 0 0 1
    outer loop
      vertex -7.44939 0.631424 13.8
      vertex -9.52812 1.49246 13.8
      vertex -7.54329 0.321884 13.8
    endloop
  endfacet
  facet normal 0 -0 1
    outer loop
      vertex -7.41747 -3.60312 13.8
      vertex -6.55643 -1.5244 13.8
      vertex -8.09172 -3.24272 13.8
    endloop
  endfacet
  facet normal 0 0 1
    outer loop
      vertex -7.09172 1.16672 13.8
      vertex -8.68271 2.75771 13.8
      vertex -7.29692 0.916687 13.8
    endloop
  endfacet
  facet normal 0 0 1
    outer loop
      vertex -7.575 0 13.8
      vertex -9.825 0 13.8
      vertex -9.75006 -0.760849 13.8
    endloop
  endfacet
  facet normal -0 0 1
    outer loop
      vertex -8.68271 -2.75771 13.8
      vertex -8.09172 -3.24272 13.8
      vertex -6.84169 -1.37192 13.8
    endloop
  endfacet
  facet normal 0 0 1
    outer loop
      vertex -7.44939 -0.631424 13.8
      vertex -9.52812 -1.49246 13.8
      vertex -7.29692 -0.916687 13.8
    endloop
  endfacet
  facet normal 0 0 1
    outer loop
      vertex -8.09172 -3.24272 13.8
      vertex -6.55643 -1.5244 13.8
      vertex -6.84169 -1.37192 13.8
    endloop
  endfacet
  facet normal 0 0 1
    outer loop
      vertex -7.54329 -0.321884 13.8
      vertex -9.52812 -1.49246 13.8
      vertex -7.44939 -0.631424 13.8
    endloop
  endfacet
  facet normal 0 -0 1
    outer loop
      vertex -6.68585 -3.82506 13.8
      vertex -6.55643 -1.5244 13.8
      vertex -7.41747 -3.60312 13.8
    endloop
  endfacet
  facet normal 0 0 1
    outer loop
      vertex -6.55643 -1.5244 13.8
      vertex -6.68585 -3.82506 13.8
      vertex -6.24689 -1.61829 13.8
    endloop
  endfacet
  facet normal 0 0 1
    outer loop
      vertex -6.68585 -3.82506 13.8
      vertex -5.92499 -1.64999 13.8
      vertex -6.24689 -1.61829 13.8
    endloop
  endfacet
  facet normal 0 0 1
    outer loop
      vertex -6.84169 1.37192 13.8
      vertex -8.09172 3.24272 13.8
      vertex -8.68271 2.75771 13.8
    endloop
  endfacet
  facet normal 0 0 1
    outer loop
      vertex -6.68585 3.82506 13.8
      vertex -6.24689 1.61829 13.8
      vertex -5.92499 1.64999 13.8
    endloop
  endfacet
  facet normal 0 -0 1
    outer loop
      vertex -5.0083 1.37192 13.8
      vertex -2.93958 3.89999 13.8
      vertex -5.29356 1.5244 13.8
    endloop
  endfacet
  facet normal 0 -0 1
    outer loop
      vertex -4.55307 0.916687 13.8
      vertex -2.93958 3.89999 13.8
      vertex -4.75827 1.16672 13.8
    endloop
  endfacet
  facet normal 0 0 1
    outer loop
      vertex -1.42947 2.10677 13.8
      vertex -4.40059 0.631424 13.8
      vertex -4.3067 0.321884 13.8
    endloop
  endfacet
  facet normal 0 0 1
    outer loop
      vertex -4.3067 0.321884 13.8
      vertex -1.33806 2.03366 13.8
      vertex -1.38736 2.0657 13.8
    endloop
  endfacet
  facet normal 0 0 1
    outer loop
      vertex 5.0083 -1.37192 13.8
      vertex 5.92499 -3.89999 13.8
      vertex 5.29356 -1.5244 13.8
    endloop
  endfacet
  facet normal 0 0 1
    outer loop
      vertex 1.05853 2.00577 13.8
      vertex 1 2 13.8
      vertex 4.3067 -0.321884 13.8
    endloop
  endfacet
  facet normal 0 0 1
    outer loop
      vertex 5.29356 -1.5244 13.8
      vertex 5.92499 -3.89999 13.8
      vertex 5.60309 -1.61829 13.8
    endloop
  endfacet
  facet normal 0 0 1
    outer loop
      vertex 5.92499 -3.89999 13.8
      vertex 4.55307 -0.916687 13.8
      vertex -5.92499 -3.89999 13.8
    endloop
  endfacet
  facet normal 0 0 1
    outer loop
      vertex 4.75827 -1.16672 13.8
      vertex 4.55307 -0.916687 13.8
      vertex 5.92499 -3.89999 13.8
    endloop
  endfacet
  facet normal -0 0 1
    outer loop
      vertex -4.27499 0 13.8
      vertex -4.3067 -0.321884 13.8
      vertex -1.28343 2.01184 13.8
    endloop
  endfacet
  facet normal 0 0 1
    outer loop
      vertex 1.11481 2.02284 13.8
      vertex 1.05853 2.00577 13.8
      vertex 4.27499 0 13.8
    endloop
  endfacet
  facet normal -0 0 1
    outer loop
      vertex 1.11481 2.02284 13.8
      vertex 4.27499 0 13.8
      vertex 1.16667 2.05057 13.8
    endloop
  endfacet
  facet normal 0 -0 1
    outer loop
      vertex 4.27499 0 13.8
      vertex 4.3067 0.321884 13.8
      vertex 1.16667 2.05057 13.8
    endloop
  endfacet
  facet normal 0 0 1
    outer loop
      vertex 4.3067 0.321884 13.8
      vertex 1.22948 2.10677 13.8
      vertex 1.16667 2.05057 13.8
    endloop
  endfacet
  facet normal 0 0 1
    outer loop
      vertex 4.40059 0.631424 13.8
      vertex 1.22948 2.10677 13.8
      vertex 4.3067 0.321884 13.8
    endloop
  endfacet
  facet normal 0 0 1
    outer loop
      vertex 2.73958 3.89999 13.8
      vertex 1.22948 2.10677 13.8
      vertex 4.55307 0.916687 13.8
    endloop
  endfacet
  facet normal 0 0 1
    outer loop
      vertex 4.55307 0.916687 13.8
      vertex 1.22948 2.10677 13.8
      vertex 4.40059 0.631424 13.8
    endloop
  endfacet
  facet normal 0 -0 1
    outer loop
      vertex 4.75827 1.16672 13.8
      vertex 5.0083 1.37192 13.8
      vertex 2.73958 3.89999 13.8
    endloop
  endfacet
  facet normal -0 0 1
    outer loop
      vertex 2.73958 3.89999 13.8
      vertex 5.29356 1.5244 13.8
      vertex 5.92499 3.89999 13.8
    endloop
  endfacet
  facet normal 0 0 1
    outer loop
      vertex 5.92499 3.89999 13.8
      vertex 5.60309 1.61829 13.8
      vertex 5.92499 1.64999 13.8
    endloop
  endfacet
  facet normal 0 0 1
    outer loop
      vertex 5.92499 1.64999 13.8
      vertex 6.68585 3.82506 13.8
      vertex 5.92499 3.89999 13.8
    endloop
  endfacet
  facet normal 0 0 1
    outer loop
      vertex 6.68585 3.82506 13.8
      vertex 6.55643 1.5244 13.8
      vertex 7.41747 3.60312 13.8
    endloop
  endfacet
  facet normal 0 0 1
    outer loop
      vertex 6.68585 3.82506 13.8
      vertex 6.24689 1.61829 13.8
      vertex 6.55643 1.5244 13.8
    endloop
  endfacet
  facet normal 0 0 1
    outer loop
      vertex 6.55643 1.5244 13.8
      vertex 8.09172 3.24272 13.8
      vertex 7.41747 3.60312 13.8
    endloop
  endfacet
  facet normal -0 0 1
    outer loop
      vertex 6.84169 1.37192 13.8
      vertex 7.09172 1.16672 13.8
      vertex 8.68271 2.75771 13.8
    endloop
  endfacet
  facet normal 0 0 1
    outer loop
      vertex 8.09172 3.24272 13.8
      vertex 6.84169 1.37192 13.8
      vertex 8.68271 2.75771 13.8
    endloop
  endfacet
  facet normal -0 0 1
    outer loop
      vertex 7.09172 1.16672 13.8
      vertex 7.29692 0.916687 13.8
      vertex 8.68271 2.75771 13.8
    endloop
  endfacet
  facet normal 0 0 1
    outer loop
      vertex 9.52812 1.49246 13.8
      vertex 7.29692 0.916687 13.8
      vertex 7.44939 0.631424 13.8
    endloop
  endfacet
  facet normal -0 0 1
    outer loop
      vertex 7.44939 0.631424 13.8
      vertex 7.54329 0.321884 13.8
      vertex 9.52812 1.49246 13.8
    endloop
  endfacet
  facet normal 0 0 1
    outer loop
      vertex 9.75006 0.760849 13.8
      vertex 7.54329 0.321884 13.8
      vertex 7.575 0 13.8
    endloop
  endfacet
  facet normal 0 0 1
    outer loop
      vertex 9.825 0 13.8
      vertex 7.575 0 13.8
      vertex 9.75006 -0.760849 13.8
    endloop
  endfacet
  facet normal 0 0 1
    outer loop
      vertex 7.575 0 13.8
      vertex 7.54329 -0.321884 13.8
      vertex 9.75006 -0.760849 13.8
    endloop
  endfacet
  facet normal 0 0 1
    outer loop
      vertex 7.54329 -0.321884 13.8
      vertex 7.44939 -0.631424 13.8
      vertex 9.52812 -1.49246 13.8
    endloop
  endfacet
  facet normal 0 0 1
    outer loop
      vertex 7.44939 -0.631424 13.8
      vertex 7.29692 -0.916687 13.8
      vertex 9.52812 -1.49246 13.8
    endloop
  endfacet
  facet normal 0 0 1
    outer loop
      vertex 7.29692 -0.916687 13.8
      vertex 9.16772 -2.16672 13.8
      vertex 9.52812 -1.49246 13.8
    endloop
  endfacet
  facet normal -0 0 1
    outer loop
      vertex 7.09172 -1.16672 13.8
      vertex 8.68271 -2.75771 13.8
      vertex 7.29692 -0.916687 13.8
    endloop
  endfacet
  facet normal 0 0 1
    outer loop
      vertex 6.84169 -1.37192 13.8
      vertex 8.09172 -3.24272 13.8
      vertex 8.68271 -2.75771 13.8
    endloop
  endfacet
  facet normal -0 0 1
    outer loop
      vertex 6.55643 -1.5244 13.8
      vertex 8.09172 -3.24272 13.8
      vertex 6.84169 -1.37192 13.8
    endloop
  endfacet
  facet normal 0 -0 1
    outer loop
      vertex 7.41747 -3.60312 13.8
      vertex 8.09172 -3.24272 13.8
      vertex 6.55643 -1.5244 13.8
    endloop
  endfacet
  facet normal 0 0 1
    outer loop
      vertex 6.68585 -3.82506 13.8
      vertex 6.24689 -1.61829 13.8
      vertex 5.92499 -1.64999 13.8
    endloop
  endfacet
  facet normal 0 0 1
    outer loop
      vertex 6.68585 -3.82506 13.8
      vertex 6.55643 -1.5244 13.8
      vertex 6.24689 -1.61829 13.8
    endloop
  endfacet
  facet normal 0 0 1
    outer loop
      vertex -1.33806 2.03366 13.8
      vertex -4.27499 0 13.8
      vertex -1.28343 2.01184 13.8
    endloop
  endfacet
  facet normal 0 0 1
    outer loop
      vertex -8.68271 -2.75771 13.8
      vertex -6.84169 -1.37192 13.8
      vertex -7.09172 -1.16672 13.8
    endloop
  endfacet
  facet normal -0 0 1
    outer loop
      vertex -9.16772 -2.16672 13.8
      vertex -8.68271 -2.75771 13.8
      vertex -7.29692 -0.916687 13.8
    endloop
  endfacet
  facet normal 0 0 1
    outer loop
      vertex -7.29692 -0.916687 13.8
      vertex -9.52812 -1.49246 13.8
      vertex -9.16772 -2.16672 13.8
    endloop
  endfacet
  facet normal -0 0 1
    outer loop
      vertex -9.75006 -0.760849 13.8
      vertex -9.52812 -1.49246 13.8
      vertex -7.54329 -0.321884 13.8
    endloop
  endfacet
  facet normal 0 0 1
    outer loop
      vertex -7.54329 -0.321884 13.8
      vertex -7.575 0 13.8
      vertex -9.75006 -0.760849 13.8
    endloop
  endfacet
  facet normal 0 -0 1
    outer loop
      vertex -7.575 0 13.8
      vertex -7.54329 0.321884 13.8
      vertex -9.75006 0.760849 13.8
    endloop
  endfacet
  facet normal 0 0 1
    outer loop
      vertex -9.825 0 13.8
      vertex -7.575 0 13.8
      vertex -9.75006 0.760849 13.8
    endloop
  endfacet
  facet normal 0 0 1
    outer loop
      vertex -7.54329 0.321884 13.8
      vertex -9.52812 1.49246 13.8
      vertex -9.75006 0.760849 13.8
    endloop
  endfacet
  facet normal -0 0 1
    outer loop
      vertex -9.52812 1.49246 13.8
      vertex -7.29692 0.916687 13.8
      vertex -9.16772 2.16672 13.8
    endloop
  endfacet
  facet normal 0 0 1
    outer loop
      vertex -9.52812 1.49246 13.8
      vertex -7.44939 0.631424 13.8
      vertex -7.29692 0.916687 13.8
    endloop
  endfacet
  facet normal 0 0 1
    outer loop
      vertex -7.29692 0.916687 13.8
      vertex -8.68271 2.75771 13.8
      vertex -9.16772 2.16672 13.8
    endloop
  endfacet
  facet normal 0 -0 1
    outer loop
      vertex -7.09172 1.16672 13.8
      vertex -6.84169 1.37192 13.8
      vertex -8.68271 2.75771 13.8
    endloop
  endfacet
  facet normal 0 0 1
    outer loop
      vertex -8.09172 3.24272 13.8
      vertex -6.84169 1.37192 13.8
      vertex -6.55643 1.5244 13.8
    endloop
  endfacet
  facet normal -0 0 1
    outer loop
      vertex -8.09172 3.24272 13.8
      vertex -6.55643 1.5244 13.8
      vertex -7.41747 3.60312 13.8
    endloop
  endfacet
  facet normal 0 0 1
    outer loop
      vertex -6.24689 1.61829 13.8
      vertex -6.68585 3.82506 13.8
      vertex -6.55643 1.5244 13.8
    endloop
  endfacet
  facet normal 0 0 1
    outer loop
      vertex -6.55643 1.5244 13.8
      vertex -6.68585 3.82506 13.8
      vertex -7.41747 3.60312 13.8
    endloop
  endfacet
  facet normal -0 0 1
    outer loop
      vertex -6.68585 3.82506 13.8
      vertex -5.92499 1.64999 13.8
      vertex -5.92499 3.89999 13.8
    endloop
  endfacet
  facet normal -0 0 1
    outer loop
      vertex -5.92499 1.64999 13.8
      vertex -5.60309 1.61829 13.8
      vertex -5.92499 3.89999 13.8
    endloop
  endfacet
  facet normal -0 -0 1
    outer loop
      vertex -5.60309 1.61829 13.8
      vertex -5.29356 1.5244 13.8
      vertex -5.92499 3.89999 13.8
    endloop
  endfacet
  facet normal 0 -0 1
    outer loop
      vertex -5.29356 1.5244 13.8
      vertex -2.93958 3.89999 13.8
      vertex -5.92499 3.89999 13.8
    endloop
  endfacet
  facet normal -0 0 1
    outer loop
      vertex -5.0083 1.37192 13.8
      vertex -4.75827 1.16672 13.8
      vertex -2.93958 3.89999 13.8
    endloop
  endfacet
  facet normal 0 0 1
    outer loop
      vertex -2.93958 3.89999 13.8
      vertex -4.55307 0.916687 13.8
      vertex -1.42947 2.10677 13.8
    endloop
  endfacet
  facet normal -0 0 1
    outer loop
      vertex -4.55307 0.916687 13.8
      vertex -4.40059 0.631424 13.8
      vertex -1.42947 2.10677 13.8
    endloop
  endfacet
  facet normal 0 0 1
    outer loop
      vertex -1.42947 2.10677 13.8
      vertex -4.3067 0.321884 13.8
      vertex -1.38736 2.0657 13.8
    endloop
  endfacet
  facet normal -0 0 1
    outer loop
      vertex -4.3067 0.321884 13.8
      vertex -4.27499 0 13.8
      vertex -1.33806 2.03366 13.8
    endloop
  endfacet
  facet normal 0 0 1
    outer loop
      vertex 1 2 13.8
      vertex -1.2 2 13.8
      vertex -4.40059 -0.631424 13.8
    endloop
  endfacet
  facet normal 0 0 1
    outer loop
      vertex 1 2 13.8
      vertex -4.40059 -0.631424 13.8
      vertex 4.40059 -0.631424 13.8
    endloop
  endfacet
  facet normal -0 0 1
    outer loop
      vertex -4.40059 -0.631424 13.8
      vertex -4.55307 -0.916687 13.8
      vertex 4.40059 -0.631424 13.8
    endloop
  endfacet
  facet normal 0 0 1
    outer loop
      vertex -4.55307 -0.916687 13.8
      vertex 4.55307 -0.916687 13.8
      vertex 4.40059 -0.631424 13.8
    endloop
  endfacet
  facet normal 0 0 1
    outer loop
      vertex -5.92499 -3.89999 13.8
      vertex 4.55307 -0.916687 13.8
      vertex -4.55307 -0.916687 13.8
    endloop
  endfacet
  facet normal 0 0 1
    outer loop
      vertex -5.92499 -3.89999 13.8
      vertex -4.55307 -0.916687 13.8
      vertex -4.75827 -1.16672 13.8
    endloop
  endfacet
  facet normal 0 0 1
    outer loop
      vertex -5.92499 -3.89999 13.8
      vertex -4.75827 -1.16672 13.8
      vertex -5.0083 -1.37192 13.8
    endloop
  endfacet
  facet normal 0 0 1
    outer loop
      vertex -5.92499 -3.89999 13.8
      vertex -5.0083 -1.37192 13.8
      vertex -5.29356 -1.5244 13.8
    endloop
  endfacet
  facet normal 0 0 1
    outer loop
      vertex -5.92499 -3.89999 13.8
      vertex -5.60309 -1.61829 13.8
      vertex -5.92499 -1.64999 13.8
    endloop
  endfacet
  facet normal 0 0 1
    outer loop
      vertex -5.92499 -3.89999 13.8
      vertex -5.29356 -1.5244 13.8
      vertex -5.60309 -1.61829 13.8
    endloop
  endfacet
  facet normal 0.290291 -0.956938 0
    outer loop
      vertex 7.41747 -3.60312 0
      vertex 6.68585 -3.82506 13.8
      vertex 6.68585 -3.82506 0
    endloop
  endfacet
  facet normal 0.290291 -0.956938 0
    outer loop
      vertex 7.41747 -3.60312 0
      vertex 7.41747 -3.60312 13.8
      vertex 6.68585 -3.82506 13.8
    endloop
  endfacet
  facet normal 0.471403 -0.881918 0
    outer loop
      vertex 8.09172 -3.24272 0
      vertex 7.41747 -3.60312 13.8
      vertex 7.41747 -3.60312 0
    endloop
  endfacet
  facet normal 0.471403 -0.881918 0
    outer loop
      vertex 8.09172 -3.24272 0
      vertex 8.09172 -3.24272 13.8
      vertex 7.41747 -3.60312 13.8
    endloop
  endfacet
  facet normal 0.634391 -0.773012 0
    outer loop
      vertex 8.68271 -2.75771 0
      vertex 8.09172 -3.24272 13.8
      vertex 8.09172 -3.24272 0
    endloop
  endfacet
  facet normal 0.634391 -0.773012 0
    outer loop
      vertex 8.68271 -2.75771 0
      vertex 8.68271 -2.75771 13.8
      vertex 8.09172 -3.24272 13.8
    endloop
  endfacet
  facet normal 0.773012 -0.634391 0
    outer loop
      vertex 9.16772 -2.16672 0
      vertex 8.68271 -2.75771 13.8
      vertex 8.68271 -2.75771 0
    endloop
  endfacet
  facet normal 0.773012 -0.634391 0
    outer loop
      vertex 9.16772 -2.16672 0
      vertex 9.16772 -2.16672 13.8
      vertex 8.68271 -2.75771 13.8
    endloop
  endfacet
  facet normal 0.881921 -0.471397 0
    outer loop
      vertex 9.52812 -1.49246 0
      vertex 9.16772 -2.16672 13.8
      vertex 9.16772 -2.16672 0
    endloop
  endfacet
  facet normal 0.881921 -0.471397 0
    outer loop
      vertex 9.52812 -1.49246 0
      vertex 9.52812 -1.49246 13.8
      vertex 9.16772 -2.16672 13.8
    endloop
  endfacet
  facet normal 0.956937 -0.290295 0
    outer loop
      vertex 9.75006 -0.760849 0
      vertex 9.52812 -1.49246 13.8
      vertex 9.52812 -1.49246 0
    endloop
  endfacet
  facet normal 0.956937 -0.290295 0
    outer loop
      vertex 9.75006 -0.760849 0
      vertex 9.75006 -0.760849 13.8
      vertex 9.52812 -1.49246 13.8
    endloop
  endfacet
  facet normal 0.995184 -0.0980209 0
    outer loop
      vertex 9.825 0 0
      vertex 9.75006 -0.760849 13.8
      vertex 9.75006 -0.760849 0
    endloop
  endfacet
  facet normal 0.995184 -0.0980209 0
    outer loop
      vertex 9.825 0 0
      vertex 9.825 0 13.8
      vertex 9.75006 -0.760849 13.8
    endloop
  endfacet
  facet normal 0.995184 0.0980209 0
    outer loop
      vertex 9.75006 0.760849 0
      vertex 9.825 0 13.8
      vertex 9.825 0 0
    endloop
  endfacet
  facet normal 0.995184 0.0980209 -0
    outer loop
      vertex 9.75006 0.760849 0
      vertex 9.75006 0.760849 13.8
      vertex 9.825 0 13.8
    endloop
  endfacet
  facet normal 0.956937 0.290295 0
    outer loop
      vertex 9.52812 1.49246 0
      vertex 9.75006 0.760849 13.8
      vertex 9.75006 0.760849 0
    endloop
  endfacet
  facet normal 0.956937 0.290295 -0
    outer loop
      vertex 9.52812 1.49246 0
      vertex 9.52812 1.49246 13.8
      vertex 9.75006 0.760849 13.8
    endloop
  endfacet
  facet normal 0.881921 0.471397 0
    outer loop
      vertex 9.16772 2.16672 0
      vertex 9.52812 1.49246 13.8
      vertex 9.52812 1.49246 0
    endloop
  endfacet
  facet normal 0.881921 0.471397 -0
    outer loop
      vertex 9.16772 2.16672 0
      vertex 9.16772 2.16672 13.8
      vertex 9.52812 1.49246 13.8
    endloop
  endfacet
  facet normal 0.773012 0.634391 0
    outer loop
      vertex 8.68271 2.75771 0
      vertex 9.16772 2.16672 13.8
      vertex 9.16772 2.16672 0
    endloop
  endfacet
  facet normal 0.773012 0.634391 -0
    outer loop
      vertex 8.68271 2.75771 0
      vertex 8.68271 2.75771 13.8
      vertex 9.16772 2.16672 13.8
    endloop
  endfacet
  facet normal 0.634391 0.773012 0
    outer loop
      vertex 8.09172 3.24272 0
      vertex 8.68271 2.75771 13.8
      vertex 8.68271 2.75771 0
    endloop
  endfacet
  facet normal 0.634391 0.773012 -0
    outer loop
      vertex 8.09172 3.24272 0
      vertex 8.09172 3.24272 13.8
      vertex 8.68271 2.75771 13.8
    endloop
  endfacet
  facet normal 0.471403 0.881918 0
    outer loop
      vertex 7.41747 3.60312 0
      vertex 8.09172 3.24272 13.8
      vertex 8.09172 3.24272 0
    endloop
  endfacet
  facet normal 0.471403 0.881918 -0
    outer loop
      vertex 7.41747 3.60312 0
      vertex 7.41747 3.60312 13.8
      vertex 8.09172 3.24272 13.8
    endloop
  endfacet
  facet normal 0.290291 0.956938 0
    outer loop
      vertex 6.68585 3.82506 0
      vertex 7.41747 3.60312 13.8
      vertex 7.41747 3.60312 0
    endloop
  endfacet
  facet normal 0.290291 0.956938 -0
    outer loop
      vertex 6.68585 3.82506 0
      vertex 6.68585 3.82506 13.8
      vertex 7.41747 3.60312 13.8
    endloop
  endfacet
  facet normal 0.0980066 0.995186 0
    outer loop
      vertex 5.92499 3.89999 0
      vertex 6.68585 3.82506 13.8
      vertex 6.68585 3.82506 0
    endloop
  endfacet
  facet normal 0.0980066 0.995186 -0
    outer loop
      vertex 5.92499 3.89999 0
      vertex 5.92499 3.89999 13.8
      vertex 6.68585 3.82506 13.8
    endloop
  endfacet
  facet normal 0 1 0
    outer loop
      vertex 2.73958 3.89999 0
      vertex 5.92499 3.89999 13.8
      vertex 5.92499 3.89999 0
    endloop
  endfacet
  facet normal 0 1 0
    outer loop
      vertex 2.73958 3.89999 0
      vertex 2.73958 3.89999 13.8
      vertex 5.92499 3.89999 13.8
    endloop
  endfacet
  facet normal -0.764907 0.644141 0
    outer loop
      vertex 1.22948 2.10677 0
      vertex 2.73958 3.89999 13.8
      vertex 2.73958 3.89999 0
    endloop
  endfacet
  facet normal -0.764907 0.644141 0
    outer loop
      vertex 1.22948 2.10677 0
      vertex 1.22948 2.10677 13.8
      vertex 2.73958 3.89999 13.8
    endloop
  endfacet
  facet normal -0.666805 0.745232 0
    outer loop
      vertex 1.16667 2.05057 0
      vertex 1.22948 2.10677 13.8
      vertex 1.22948 2.10677 0
    endloop
  endfacet
  facet normal -0.666805 0.745232 0
    outer loop
      vertex 1.16667 2.05057 0
      vertex 1.16667 2.05057 13.8
      vertex 1.22948 2.10677 13.8
    endloop
  endfacet
  facet normal -0.471532 0.881849 0
    outer loop
      vertex 1.11481 2.02284 0
      vertex 1.16667 2.05057 13.8
      vertex 1.16667 2.05057 0
    endloop
  endfacet
  facet normal -0.471532 0.881849 0
    outer loop
      vertex 1.11481 2.02284 0
      vertex 1.11481 2.02284 13.8
      vertex 1.16667 2.05057 13.8
    endloop
  endfacet
  facet normal -0.290248 0.956951 0
    outer loop
      vertex 1.05853 2.00577 0
      vertex 1.11481 2.02284 13.8
      vertex 1.11481 2.02284 0
    endloop
  endfacet
  facet normal -0.290248 0.956951 0
    outer loop
      vertex 1.05853 2.00577 0
      vertex 1.05853 2.00577 13.8
      vertex 1.11481 2.02284 13.8
    endloop
  endfacet
  facet normal -0.0981064 0.995176 0
    outer loop
      vertex 1 2 0
      vertex 1.05853 2.00577 13.8
      vertex 1.05853 2.00577 0
    endloop
  endfacet
  facet normal -0.0981064 0.995176 0
    outer loop
      vertex 1 2 0
      vertex 1 2 13.8
      vertex 1.05853 2.00577 13.8
    endloop
  endfacet
  facet normal 0 1 0
    outer loop
      vertex -1.2 2 0
      vertex 1 2 13.8
      vertex 1 2 0
    endloop
  endfacet
  facet normal 0 1 0
    outer loop
      vertex -1.2 2 0
      vertex -1.2 2 13.8
      vertex 1 2 13.8
    endloop
  endfacet
  facet normal 0.140508 0.99008 0
    outer loop
      vertex -1.28343 2.01184 0
      vertex -1.2 2 13.8
      vertex -1.2 2 0
    endloop
  endfacet
  facet normal 0.140508 0.99008 -0
    outer loop
      vertex -1.28343 2.01184 0
      vertex -1.28343 2.01184 13.8
      vertex -1.2 2 13.8
    endloop
  endfacet
  facet normal 0.370922 0.928664 0
    outer loop
      vertex -1.33806 2.03366 0
      vertex -1.28343 2.01184 13.8
      vertex -1.28343 2.01184 0
    endloop
  endfacet
  facet normal 0.370922 0.928664 -0
    outer loop
      vertex -1.33806 2.03366 0
      vertex -1.33806 2.03366 13.8
      vertex -1.28343 2.01184 13.8
    endloop
  endfacet
  facet normal 0.544929 0.838482 0
    outer loop
      vertex -1.38736 2.0657 0
      vertex -1.33806 2.03366 13.8
      vertex -1.33806 2.03366 0
    endloop
  endfacet
  facet normal 0.544929 0.838482 -0
    outer loop
      vertex -1.38736 2.0657 0
      vertex -1.38736 2.0657 13.8
      vertex -1.33806 2.03366 13.8
    endloop
  endfacet
  facet normal 0.698211 0.715892 0
    outer loop
      vertex -1.42947 2.10677 0
      vertex -1.38736 2.0657 13.8
      vertex -1.38736 2.0657 0
    endloop
  endfacet
  facet normal 0.698211 0.715892 -0
    outer loop
      vertex -1.42947 2.10677 0
      vertex -1.42947 2.10677 13.8
      vertex -1.38736 2.0657 13.8
    endloop
  endfacet
  facet normal 0.764905 0.644143 0
    outer loop
      vertex -2.93958 3.89999 0
      vertex -1.42947 2.10677 13.8
      vertex -1.42947 2.10677 0
    endloop
  endfacet
  facet normal 0.764905 0.644143 -0
    outer loop
      vertex -2.93958 3.89999 0
      vertex -2.93958 3.89999 13.8
      vertex -1.42947 2.10677 13.8
    endloop
  endfacet
  facet normal 0 1 0
    outer loop
      vertex -5.92499 3.89999 0
      vertex -2.93958 3.89999 13.8
      vertex -2.93958 3.89999 0
    endloop
  endfacet
  facet normal 0 1 0
    outer loop
      vertex -5.92499 3.89999 0
      vertex -5.92499 3.89999 13.8
      vertex -2.93958 3.89999 13.8
    endloop
  endfacet
  facet normal -0.0980066 0.995186 0
    outer loop
      vertex -6.68585 3.82506 0
      vertex -5.92499 3.89999 13.8
      vertex -5.92499 3.89999 0
    endloop
  endfacet
  facet normal -0.0980066 0.995186 0
    outer loop
      vertex -6.68585 3.82506 0
      vertex -6.68585 3.82506 13.8
      vertex -5.92499 3.89999 13.8
    endloop
  endfacet
  facet normal -0.290291 0.956938 0
    outer loop
      vertex -7.41747 3.60312 0
      vertex -6.68585 3.82506 13.8
      vertex -6.68585 3.82506 0
    endloop
  endfacet
  facet normal -0.290291 0.956938 0
    outer loop
      vertex -7.41747 3.60312 0
      vertex -7.41747 3.60312 13.8
      vertex -6.68585 3.82506 13.8
    endloop
  endfacet
  facet normal -0.471403 0.881918 0
    outer loop
      vertex -8.09172 3.24272 0
      vertex -7.41747 3.60312 13.8
      vertex -7.41747 3.60312 0
    endloop
  endfacet
  facet normal -0.471403 0.881918 0
    outer loop
      vertex -8.09172 3.24272 0
      vertex -8.09172 3.24272 13.8
      vertex -7.41747 3.60312 13.8
    endloop
  endfacet
  facet normal -0.634391 0.773012 0
    outer loop
      vertex -8.68271 2.75771 0
      vertex -8.09172 3.24272 13.8
      vertex -8.09172 3.24272 0
    endloop
  endfacet
  facet normal -0.634391 0.773012 0
    outer loop
      vertex -8.68271 2.75771 0
      vertex -8.68271 2.75771 13.8
      vertex -8.09172 3.24272 13.8
    endloop
  endfacet
  facet normal -0.773012 0.634391 0
    outer loop
      vertex -9.16772 2.16672 0
      vertex -8.68271 2.75771 13.8
      vertex -8.68271 2.75771 0
    endloop
  endfacet
  facet normal -0.773012 0.634391 0
    outer loop
      vertex -9.16772 2.16672 0
      vertex -9.16772 2.16672 13.8
      vertex -8.68271 2.75771 13.8
    endloop
  endfacet
  facet normal -0.881921 0.471397 0
    outer loop
      vertex -9.52812 1.49246 0
      vertex -9.16772 2.16672 13.8
      vertex -9.16772 2.16672 0
    endloop
  endfacet
  facet normal -0.881921 0.471397 0
    outer loop
      vertex -9.52812 1.49246 0
      vertex -9.52812 1.49246 13.8
      vertex -9.16772 2.16672 13.8
    endloop
  endfacet
  facet normal -0.956937 0.290295 0
    outer loop
      vertex -9.75006 0.760849 0
      vertex -9.52812 1.49246 13.8
      vertex -9.52812 1.49246 0
    endloop
  endfacet
  facet normal -0.956937 0.290295 0
    outer loop
      vertex -9.75006 0.760849 0
      vertex -9.75006 0.760849 13.8
      vertex -9.52812 1.49246 13.8
    endloop
  endfacet
  facet normal -0.995184 0.0980209 0
    outer loop
      vertex -9.825 0 0
      vertex -9.75006 0.760849 13.8
      vertex -9.75006 0.760849 0
    endloop
  endfacet
  facet normal -0.995184 0.0980209 0
    outer loop
      vertex -9.825 0 0
      vertex -9.825 0 13.8
      vertex -9.75006 0.760849 13.8
    endloop
  endfacet
  facet normal -0.995184 -0.0980209 0
    outer loop
      vertex -9.75006 -0.760849 0
      vertex -9.825 0 13.8
      vertex -9.825 0 0
    endloop
  endfacet
  facet normal -0.995184 -0.0980209 0
    outer loop
      vertex -9.75006 -0.760849 0
      vertex -9.75006 -0.760849 13.8
      vertex -9.825 0 13.8
    endloop
  endfacet
  facet normal -0.956937 -0.290295 0
    outer loop
      vertex -9.52812 -1.49246 0
      vertex -9.75006 -0.760849 13.8
      vertex -9.75006 -0.760849 0
    endloop
  endfacet
  facet normal -0.956937 -0.290295 0
    outer loop
      vertex -9.52812 -1.49246 0
      vertex -9.52812 -1.49246 13.8
      vertex -9.75006 -0.760849 13.8
    endloop
  endfacet
  facet normal -0.881921 -0.471397 0
    outer loop
      vertex -9.16772 -2.16672 0
      vertex -9.52812 -1.49246 13.8
      vertex -9.52812 -1.49246 0
    endloop
  endfacet
  facet normal -0.881921 -0.471397 0
    outer loop
      vertex -9.16772 -2.16672 0
      vertex -9.16772 -2.16672 13.8
      vertex -9.52812 -1.49246 13.8
    endloop
  endfacet
  facet normal -0.773012 -0.634391 0
    outer loop
      vertex -8.68271 -2.75771 0
      vertex -9.16772 -2.16672 13.8
      vertex -9.16772 -2.16672 0
    endloop
  endfacet
  facet normal -0.773012 -0.634391 0
    outer loop
      vertex -8.68271 -2.75771 0
      vertex -8.68271 -2.75771 13.8
      vertex -9.16772 -2.16672 13.8
    endloop
  endfacet
  facet normal -0.634391 -0.773012 0
    outer loop
      vertex -8.09172 -3.24272 0
      vertex -8.68271 -2.75771 13.8
      vertex -8.68271 -2.75771 0
    endloop
  endfacet
  facet normal -0.634391 -0.773012 0
    outer loop
      vertex -8.09172 -3.24272 0
      vertex -8.09172 -3.24272 13.8
      vertex -8.68271 -2.75771 13.8
    endloop
  endfacet
  facet normal -0.471403 -0.881918 0
    outer loop
      vertex -7.41747 -3.60312 0
      vertex -8.09172 -3.24272 13.8
      vertex -8.09172 -3.24272 0
    endloop
  endfacet
  facet normal -0.471403 -0.881918 0
    outer loop
      vertex -7.41747 -3.60312 0
      vertex -7.41747 -3.60312 13.8
      vertex -8.09172 -3.24272 13.8
    endloop
  endfacet
  facet normal -0.290291 -0.956938 0
    outer loop
      vertex -6.68585 -3.82506 0
      vertex -7.41747 -3.60312 13.8
      vertex -7.41747 -3.60312 0
    endloop
  endfacet
  facet normal -0.290291 -0.956938 0
    outer loop
      vertex -6.68585 -3.82506 0
      vertex -6.68585 -3.82506 13.8
      vertex -7.41747 -3.60312 13.8
    endloop
  endfacet
  facet normal -0.0980066 -0.995186 0
    outer loop
      vertex -5.92499 -3.89999 0
      vertex -6.68585 -3.82506 13.8
      vertex -6.68585 -3.82506 0
    endloop
  endfacet
  facet normal -0.0980066 -0.995186 0
    outer loop
      vertex -5.92499 -3.89999 0
      vertex -5.92499 -3.89999 13.8
      vertex -6.68585 -3.82506 13.8
    endloop
  endfacet
  facet normal 0 -1 0
    outer loop
      vertex 5.92499 -3.89999 0
      vertex -5.92499 -3.89999 13.8
      vertex -5.92499 -3.89999 0
    endloop
  endfacet
  facet normal 0 -1 0
    outer loop
      vertex 5.92499 -3.89999 0
      vertex 5.92499 -3.89999 13.8
      vertex -5.92499 -3.89999 13.8
    endloop
  endfacet
  facet normal 0.0980066 -0.995186 0
    outer loop
      vertex 6.68585 -3.82506 0
      vertex 5.92499 -3.89999 13.8
      vertex 5.92499 -3.89999 0
    endloop
  endfacet
  facet normal 0.0980066 -0.995186 0
    outer loop
      vertex 6.68585 -3.82506 0
      vertex 6.68585 -3.82506 13.8
      vertex 5.92499 -3.89999 13.8
    endloop
  endfacet
  facet normal 0.290271 0.956945 -0
    outer loop
      vertex 5.29356 -1.5244 0
      vertex 5.29356 -1.5244 13.8
      vertex 5.60309 -1.61829 0
    endloop
  endfacet
  facet normal 0.290271 0.956945 0
    outer loop
      vertex 5.60309 -1.61829 13.8
      vertex 5.60309 -1.61829 0
      vertex 5.29356 -1.5244 13.8
    endloop
  endfacet
  facet normal 0.47141 0.881914 -0
    outer loop
      vertex 5.0083 -1.37192 0
      vertex 5.0083 -1.37192 13.8
      vertex 5.29356 -1.5244 0
    endloop
  endfacet
  facet normal 0.47141 0.881914 0
    outer loop
      vertex 5.29356 -1.5244 13.8
      vertex 5.29356 -1.5244 0
      vertex 5.0083 -1.37192 13.8
    endloop
  endfacet
  facet normal 0.634404 0.773002 -0
    outer loop
      vertex 4.75827 -1.16672 0
      vertex 4.75827 -1.16672 13.8
      vertex 5.0083 -1.37192 0
    endloop
  endfacet
  facet normal 0.634404 0.773002 0
    outer loop
      vertex 5.0083 -1.37192 13.8
      vertex 5.0083 -1.37192 0
      vertex 4.75827 -1.16672 13.8
    endloop
  endfacet
  facet normal 0.773006 0.634399 -0
    outer loop
      vertex 4.55307 -0.916687 0
      vertex 4.55307 -0.916687 13.8
      vertex 4.75827 -1.16672 0
    endloop
  endfacet
  facet normal 0.773006 0.634399 0
    outer loop
      vertex 4.75827 -1.16672 13.8
      vertex 4.75827 -1.16672 0
      vertex 4.55307 -0.916687 13.8
    endloop
  endfacet
  facet normal 0.881916 0.471406 -0
    outer loop
      vertex 4.40059 -0.631424 0
      vertex 4.40059 -0.631424 13.8
      vertex 4.55307 -0.916687 0
    endloop
  endfacet
  facet normal 0.881916 0.471406 0
    outer loop
      vertex 4.55307 -0.916687 13.8
      vertex 4.55307 -0.916687 0
      vertex 4.40059 -0.631424 13.8
    endloop
  endfacet
  facet normal 0.956947 0.290262 -0
    outer loop
      vertex 4.3067 -0.321884 0
      vertex 4.3067 -0.321884 13.8
      vertex 4.40059 -0.631424 0
    endloop
  endfacet
  facet normal 0.956947 0.290262 0
    outer loop
      vertex 4.40059 -0.631424 13.8
      vertex 4.40059 -0.631424 0
      vertex 4.3067 -0.321884 13.8
    endloop
  endfacet
  facet normal 0.995183 0.0980392 -0
    outer loop
      vertex 4.27499 0 0
      vertex 4.27499 0 13.8
      vertex 4.3067 -0.321884 0
    endloop
  endfacet
  facet normal 0.995183 0.0980392 0
    outer loop
      vertex 4.3067 -0.321884 13.8
      vertex 4.3067 -0.321884 0
      vertex 4.27499 0 13.8
    endloop
  endfacet
  facet normal 0.995183 -0.0980392 0
    outer loop
      vertex 4.3067 0.321884 0
      vertex 4.3067 0.321884 13.8
      vertex 4.27499 0 0
    endloop
  endfacet
  facet normal 0.995183 -0.0980392 0
    outer loop
      vertex 4.27499 0 13.8
      vertex 4.27499 0 0
      vertex 4.3067 0.321884 13.8
    endloop
  endfacet
  facet normal 0.956947 -0.290262 0
    outer loop
      vertex 4.40059 0.631424 0
      vertex 4.40059 0.631424 13.8
      vertex 4.3067 0.321884 0
    endloop
  endfacet
  facet normal 0.956947 -0.290262 0
    outer loop
      vertex 4.3067 0.321884 13.8
      vertex 4.3067 0.321884 0
      vertex 4.40059 0.631424 13.8
    endloop
  endfacet
  facet normal 0.881916 -0.471406 0
    outer loop
      vertex 4.55307 0.916687 0
      vertex 4.55307 0.916687 13.8
      vertex 4.40059 0.631424 0
    endloop
  endfacet
  facet normal 0.881916 -0.471406 0
    outer loop
      vertex 4.40059 0.631424 13.8
      vertex 4.40059 0.631424 0
      vertex 4.55307 0.916687 13.8
    endloop
  endfacet
  facet normal 0.773006 -0.634399 0
    outer loop
      vertex 4.75827 1.16672 0
      vertex 4.75827 1.16672 13.8
      vertex 4.55307 0.916687 0
    endloop
  endfacet
  facet normal 0.773006 -0.634399 0
    outer loop
      vertex 4.55307 0.916687 13.8
      vertex 4.55307 0.916687 0
      vertex 4.75827 1.16672 13.8
    endloop
  endfacet
  facet normal 0.634404 -0.773002 0
    outer loop
      vertex 5.0083 1.37192 0
      vertex 5.0083 1.37192 13.8
      vertex 4.75827 1.16672 0
    endloop
  endfacet
  facet normal 0.634404 -0.773002 0
    outer loop
      vertex 4.75827 1.16672 13.8
      vertex 4.75827 1.16672 0
      vertex 5.0083 1.37192 13.8
    endloop
  endfacet
  facet normal 0.47141 -0.881914 0
    outer loop
      vertex 5.29356 1.5244 0
      vertex 5.29356 1.5244 13.8
      vertex 5.0083 1.37192 0
    endloop
  endfacet
  facet normal 0.47141 -0.881914 0
    outer loop
      vertex 5.0083 1.37192 13.8
      vertex 5.0083 1.37192 0
      vertex 5.29356 1.5244 13.8
    endloop
  endfacet
  facet normal 0.290271 -0.956945 0
    outer loop
      vertex 5.60309 1.61829 0
      vertex 5.60309 1.61829 13.8
      vertex 5.29356 1.5244 0
    endloop
  endfacet
  facet normal 0.290271 -0.956945 0
    outer loop
      vertex 5.29356 1.5244 13.8
      vertex 5.29356 1.5244 0
      vertex 5.60309 1.61829 13.8
    endloop
  endfacet
  facet normal 0.0980037 -0.995186 0
    outer loop
      vertex 5.92499 1.64999 0
      vertex 5.92499 1.64999 13.8
      vertex 5.60309 1.61829 0
    endloop
  endfacet
  facet normal 0.0980037 -0.995186 0
    outer loop
      vertex 5.60309 1.61829 13.8
      vertex 5.60309 1.61829 0
      vertex 5.92499 1.64999 13.8
    endloop
  endfacet
  facet normal -0.0980037 -0.995186 0
    outer loop
      vertex 6.24689 1.61829 0
      vertex 6.24689 1.61829 13.8
      vertex 5.92499 1.64999 0
    endloop
  endfacet
  facet normal -0.0980037 -0.995186 -0
    outer loop
      vertex 5.92499 1.64999 13.8
      vertex 5.92499 1.64999 0
      vertex 6.24689 1.61829 13.8
    endloop
  endfacet
  facet normal -0.290262 -0.956947 0
    outer loop
      vertex 6.55643 1.5244 0
      vertex 6.55643 1.5244 13.8
      vertex 6.24689 1.61829 0
    endloop
  endfacet
  facet normal -0.290262 -0.956947 -0
    outer loop
      vertex 6.24689 1.61829 13.8
      vertex 6.24689 1.61829 0
      vertex 6.55643 1.5244 13.8
    endloop
  endfacet
  facet normal -0.47141 -0.881914 0
    outer loop
      vertex 6.84169 1.37192 0
      vertex 6.84169 1.37192 13.8
      vertex 6.55643 1.5244 0
    endloop
  endfacet
  facet normal -0.47141 -0.881914 -0
    outer loop
      vertex 6.55643 1.5244 13.8
      vertex 6.55643 1.5244 0
      vertex 6.84169 1.37192 13.8
    endloop
  endfacet
  facet normal -0.634404 -0.773002 0
    outer loop
      vertex 7.09172 1.16672 0
      vertex 7.09172 1.16672 13.8
      vertex 6.84169 1.37192 0
    endloop
  endfacet
  facet normal -0.634404 -0.773002 -0
    outer loop
      vertex 6.84169 1.37192 13.8
      vertex 6.84169 1.37192 0
      vertex 7.09172 1.16672 13.8
    endloop
  endfacet
  facet normal -0.773006 -0.634399 0
    outer loop
      vertex 7.29692 0.916687 0
      vertex 7.29692 0.916687 13.8
      vertex 7.09172 1.16672 0
    endloop
  endfacet
  facet normal -0.773006 -0.634399 -0
    outer loop
      vertex 7.09172 1.16672 13.8
      vertex 7.09172 1.16672 0
      vertex 7.29692 0.916687 13.8
    endloop
  endfacet
  facet normal -0.881929 -0.471382 0
    outer loop
      vertex 7.44939 0.631424 0
      vertex 7.44939 0.631424 13.8
      vertex 7.29692 0.916687 0
    endloop
  endfacet
  facet normal -0.881929 -0.471382 -0
    outer loop
      vertex 7.29692 0.916687 13.8
      vertex 7.29692 0.916687 0
      vertex 7.44939 0.631424 13.8
    endloop
  endfacet
  facet normal -0.956939 -0.290291 0
    outer loop
      vertex 7.54329 0.321884 0
      vertex 7.54329 0.321884 13.8
      vertex 7.44939 0.631424 0
    endloop
  endfacet
  facet normal -0.956939 -0.290291 -0
    outer loop
      vertex 7.44939 0.631424 13.8
      vertex 7.44939 0.631424 0
      vertex 7.54329 0.321884 13.8
    endloop
  endfacet
  facet normal -0.995183 -0.0980392 0
    outer loop
      vertex 7.575 0 0
      vertex 7.575 0 13.8
      vertex 7.54329 0.321884 0
    endloop
  endfacet
  facet normal -0.995183 -0.0980392 -0
    outer loop
      vertex 7.54329 0.321884 13.8
      vertex 7.54329 0.321884 0
      vertex 7.575 0 13.8
    endloop
  endfacet
  facet normal -0.995183 0.0980392 0
    outer loop
      vertex 7.54329 -0.321884 0
      vertex 7.54329 -0.321884 13.8
      vertex 7.575 0 0
    endloop
  endfacet
  facet normal -0.995183 0.0980392 0
    outer loop
      vertex 7.575 0 13.8
      vertex 7.575 0 0
      vertex 7.54329 -0.321884 13.8
    endloop
  endfacet
  facet normal -0.956939 0.290291 0
    outer loop
      vertex 7.44939 -0.631424 0
      vertex 7.44939 -0.631424 13.8
      vertex 7.54329 -0.321884 0
    endloop
  endfacet
  facet normal -0.956939 0.290291 0
    outer loop
      vertex 7.54329 -0.321884 13.8
      vertex 7.54329 -0.321884 0
      vertex 7.44939 -0.631424 13.8
    endloop
  endfacet
  facet normal -0.881929 0.471382 0
    outer loop
      vertex 7.29692 -0.916687 0
      vertex 7.29692 -0.916687 13.8
      vertex 7.44939 -0.631424 0
    endloop
  endfacet
  facet normal -0.881929 0.471382 0
    outer loop
      vertex 7.44939 -0.631424 13.8
      vertex 7.44939 -0.631424 0
      vertex 7.29692 -0.916687 13.8
    endloop
  endfacet
  facet normal -0.773006 0.634399 0
    outer loop
      vertex 7.09172 -1.16672 0
      vertex 7.09172 -1.16672 13.8
      vertex 7.29692 -0.916687 0
    endloop
  endfacet
  facet normal -0.773006 0.634399 0
    outer loop
      vertex 7.29692 -0.916687 13.8
      vertex 7.29692 -0.916687 0
      vertex 7.09172 -1.16672 13.8
    endloop
  endfacet
  facet normal -0.634404 0.773002 0
    outer loop
      vertex 6.84169 -1.37192 0
      vertex 6.84169 -1.37192 13.8
      vertex 7.09172 -1.16672 0
    endloop
  endfacet
  facet normal -0.634404 0.773002 0
    outer loop
      vertex 7.09172 -1.16672 13.8
      vertex 7.09172 -1.16672 0
      vertex 6.84169 -1.37192 13.8
    endloop
  endfacet
  facet normal -0.47141 0.881914 0
    outer loop
      vertex 6.55643 -1.5244 0
      vertex 6.55643 -1.5244 13.8
      vertex 6.84169 -1.37192 0
    endloop
  endfacet
  facet normal -0.47141 0.881914 0
    outer loop
      vertex 6.84169 -1.37192 13.8
      vertex 6.84169 -1.37192 0
      vertex 6.55643 -1.5244 13.8
    endloop
  endfacet
  facet normal -0.290262 0.956947 0
    outer loop
      vertex 6.24689 -1.61829 0
      vertex 6.24689 -1.61829 13.8
      vertex 6.55643 -1.5244 0
    endloop
  endfacet
  facet normal -0.290262 0.956947 0
    outer loop
      vertex 6.55643 -1.5244 13.8
      vertex 6.55643 -1.5244 0
      vertex 6.24689 -1.61829 13.8
    endloop
  endfacet
  facet normal -0.0980037 0.995186 0
    outer loop
      vertex 5.92499 -1.64999 0
      vertex 5.92499 -1.64999 13.8
      vertex 6.24689 -1.61829 0
    endloop
  endfacet
  facet normal -0.0980037 0.995186 0
    outer loop
      vertex 6.24689 -1.61829 13.8
      vertex 6.24689 -1.61829 0
      vertex 5.92499 -1.64999 13.8
    endloop
  endfacet
  facet normal 0.0980037 0.995186 -0
    outer loop
      vertex 5.60309 -1.61829 0
      vertex 5.60309 -1.61829 13.8
      vertex 5.92499 -1.64999 0
    endloop
  endfacet
  facet normal 0.0980037 0.995186 0
    outer loop
      vertex 5.92499 -1.64999 13.8
      vertex 5.92499 -1.64999 0
      vertex 5.60309 -1.61829 13.8
    endloop
  endfacet
  facet normal 0.290262 0.956947 -0
    outer loop
      vertex -6.55643 -1.5244 0
      vertex -6.55643 -1.5244 13.8
      vertex -6.24689 -1.61829 0
    endloop
  endfacet
  facet normal 0.290262 0.956947 0
    outer loop
      vertex -6.24689 -1.61829 13.8
      vertex -6.24689 -1.61829 0
      vertex -6.55643 -1.5244 13.8
    endloop
  endfacet
  facet normal 0.47141 0.881914 -0
    outer loop
      vertex -6.84169 -1.37192 0
      vertex -6.84169 -1.37192 13.8
      vertex -6.55643 -1.5244 0
    endloop
  endfacet
  facet normal 0.47141 0.881914 0
    outer loop
      vertex -6.55643 -1.5244 13.8
      vertex -6.55643 -1.5244 0
      vertex -6.84169 -1.37192 13.8
    endloop
  endfacet
  facet normal 0.634404 0.773002 -0
    outer loop
      vertex -7.09172 -1.16672 0
      vertex -7.09172 -1.16672 13.8
      vertex -6.84169 -1.37192 0
    endloop
  endfacet
  facet normal 0.634404 0.773002 0
    outer loop
      vertex -6.84169 -1.37192 13.8
      vertex -6.84169 -1.37192 0
      vertex -7.09172 -1.16672 13.8
    endloop
  endfacet
  facet normal 0.773006 0.634399 -0
    outer loop
      vertex -7.29692 -0.916687 0
      vertex -7.29692 -0.916687 13.8
      vertex -7.09172 -1.16672 0
    endloop
  endfacet
  facet normal 0.773006 0.634399 0
    outer loop
      vertex -7.09172 -1.16672 13.8
      vertex -7.09172 -1.16672 0
      vertex -7.29692 -0.916687 13.8
    endloop
  endfacet
  facet normal 0.881929 0.471382 -0
    outer loop
      vertex -7.44939 -0.631424 0
      vertex -7.44939 -0.631424 13.8
      vertex -7.29692 -0.916687 0
    endloop
  endfacet
  facet normal 0.881929 0.471382 0
    outer loop
      vertex -7.29692 -0.916687 13.8
      vertex -7.29692 -0.916687 0
      vertex -7.44939 -0.631424 13.8
    endloop
  endfacet
  facet normal 0.956939 0.290291 -0
    outer loop
      vertex -7.54329 -0.321884 0
      vertex -7.54329 -0.321884 13.8
      vertex -7.44939 -0.631424 0
    endloop
  endfacet
  facet normal 0.956939 0.290291 0
    outer loop
      vertex -7.44939 -0.631424 13.8
      vertex -7.44939 -0.631424 0
      vertex -7.54329 -0.321884 13.8
    endloop
  endfacet
  facet normal 0.995183 0.0980392 -0
    outer loop
      vertex -7.575 0 0
      vertex -7.575 0 13.8
      vertex -7.54329 -0.321884 0
    endloop
  endfacet
  facet normal 0.995183 0.0980392 0
    outer loop
      vertex -7.54329 -0.321884 13.8
      vertex -7.54329 -0.321884 0
      vertex -7.575 0 13.8
    endloop
  endfacet
  facet normal 0.995183 -0.0980392 0
    outer loop
      vertex -7.54329 0.321884 0
      vertex -7.54329 0.321884 13.8
      vertex -7.575 0 0
    endloop
  endfacet
  facet normal 0.995183 -0.0980392 0
    outer loop
      vertex -7.575 0 13.8
      vertex -7.575 0 0
      vertex -7.54329 0.321884 13.8
    endloop
  endfacet
  facet normal 0.956939 -0.290291 0
    outer loop
      vertex -7.44939 0.631424 0
      vertex -7.44939 0.631424 13.8
      vertex -7.54329 0.321884 0
    endloop
  endfacet
  facet normal 0.956939 -0.290291 0
    outer loop
      vertex -7.54329 0.321884 13.8
      vertex -7.54329 0.321884 0
      vertex -7.44939 0.631424 13.8
    endloop
  endfacet
  facet normal 0.881929 -0.471382 0
    outer loop
      vertex -7.29692 0.916687 0
      vertex -7.29692 0.916687 13.8
      vertex -7.44939 0.631424 0
    endloop
  endfacet
  facet normal 0.881929 -0.471382 0
    outer loop
      vertex -7.44939 0.631424 13.8
      vertex -7.44939 0.631424 0
      vertex -7.29692 0.916687 13.8
    endloop
  endfacet
  facet normal 0.773006 -0.634399 0
    outer loop
      vertex -7.09172 1.16672 0
      vertex -7.09172 1.16672 13.8
      vertex -7.29692 0.916687 0
    endloop
  endfacet
  facet normal 0.773006 -0.634399 0
    outer loop
      vertex -7.29692 0.916687 13.8
      vertex -7.29692 0.916687 0
      vertex -7.09172 1.16672 13.8
    endloop
  endfacet
  facet normal 0.634404 -0.773002 0
    outer loop
      vertex -6.84169 1.37192 0
      vertex -6.84169 1.37192 13.8
      vertex -7.09172 1.16672 0
    endloop
  endfacet
  facet normal 0.634404 -0.773002 0
    outer loop
      vertex -7.09172 1.16672 13.8
      vertex -7.09172 1.16672 0
      vertex -6.84169 1.37192 13.8
    endloop
  endfacet
  facet normal 0.47141 -0.881914 0
    outer loop
      vertex -6.55643 1.5244 0
      vertex -6.55643 1.5244 13.8
      vertex -6.84169 1.37192 0
    endloop
  endfacet
  facet normal 0.47141 -0.881914 0
    outer loop
      vertex -6.84169 1.37192 13.8
      vertex -6.84169 1.37192 0
      vertex -6.55643 1.5244 13.8
    endloop
  endfacet
  facet normal 0.290262 -0.956947 0
    outer loop
      vertex -6.24689 1.61829 0
      vertex -6.24689 1.61829 13.8
      vertex -6.55643 1.5244 0
    endloop
  endfacet
  facet normal 0.290262 -0.956947 0
    outer loop
      vertex -6.55643 1.5244 13.8
      vertex -6.55643 1.5244 0
      vertex -6.24689 1.61829 13.8
    endloop
  endfacet
  facet normal 0.0980037 -0.995186 0
    outer loop
      vertex -5.92499 1.64999 0
      vertex -5.92499 1.64999 13.8
      vertex -6.24689 1.61829 0
    endloop
  endfacet
  facet normal 0.0980037 -0.995186 0
    outer loop
      vertex -6.24689 1.61829 13.8
      vertex -6.24689 1.61829 0
      vertex -5.92499 1.64999 13.8
    endloop
  endfacet
  facet normal -0.0980037 -0.995186 0
    outer loop
      vertex -5.60309 1.61829 0
      vertex -5.60309 1.61829 13.8
      vertex -5.92499 1.64999 0
    endloop
  endfacet
  facet normal -0.0980037 -0.995186 -0
    outer loop
      vertex -5.92499 1.64999 13.8
      vertex -5.92499 1.64999 0
      vertex -5.60309 1.61829 13.8
    endloop
  endfacet
  facet normal -0.290271 -0.956945 0
    outer loop
      vertex -5.29356 1.5244 0
      vertex -5.29356 1.5244 13.8
      vertex -5.60309 1.61829 0
    endloop
  endfacet
  facet normal -0.290271 -0.956945 -0
    outer loop
      vertex -5.60309 1.61829 13.8
      vertex -5.60309 1.61829 0
      vertex -5.29356 1.5244 13.8
    endloop
  endfacet
  facet normal -0.47141 -0.881914 0
    outer loop
      vertex -5.0083 1.37192 0
      vertex -5.0083 1.37192 13.8
      vertex -5.29356 1.5244 0
    endloop
  endfacet
  facet normal -0.47141 -0.881914 -0
    outer loop
      vertex -5.29356 1.5244 13.8
      vertex -5.29356 1.5244 0
      vertex -5.0083 1.37192 13.8
    endloop
  endfacet
  facet normal -0.634404 -0.773002 0
    outer loop
      vertex -4.75827 1.16672 0
      vertex -4.75827 1.16672 13.8
      vertex -5.0083 1.37192 0
    endloop
  endfacet
  facet normal -0.634404 -0.773002 -0
    outer loop
      vertex -5.0083 1.37192 13.8
      vertex -5.0083 1.37192 0
      vertex -4.75827 1.16672 13.8
    endloop
  endfacet
  facet normal -0.773006 -0.634399 0
    outer loop
      vertex -4.55307 0.916687 0
      vertex -4.55307 0.916687 13.8
      vertex -4.75827 1.16672 0
    endloop
  endfacet
  facet normal -0.773006 -0.634399 -0
    outer loop
      vertex -4.75827 1.16672 13.8
      vertex -4.75827 1.16672 0
      vertex -4.55307 0.916687 13.8
    endloop
  endfacet
  facet normal -0.881916 -0.471406 0
    outer loop
      vertex -4.40059 0.631424 0
      vertex -4.40059 0.631424 13.8
      vertex -4.55307 0.916687 0
    endloop
  endfacet
  facet normal -0.881916 -0.471406 -0
    outer loop
      vertex -4.55307 0.916687 13.8
      vertex -4.55307 0.916687 0
      vertex -4.40059 0.631424 13.8
    endloop
  endfacet
  facet normal -0.956947 -0.290262 0
    outer loop
      vertex -4.3067 0.321884 0
      vertex -4.3067 0.321884 13.8
      vertex -4.40059 0.631424 0
    endloop
  endfacet
  facet normal -0.956947 -0.290262 -0
    outer loop
      vertex -4.40059 0.631424 13.8
      vertex -4.40059 0.631424 0
      vertex -4.3067 0.321884 13.8
    endloop
  endfacet
  facet normal -0.995183 -0.0980392 0
    outer loop
      vertex -4.27499 0 0
      vertex -4.27499 0 13.8
      vertex -4.3067 0.321884 0
    endloop
  endfacet
  facet normal -0.995183 -0.0980392 -0
    outer loop
      vertex -4.3067 0.321884 13.8
      vertex -4.3067 0.321884 0
      vertex -4.27499 0 13.8
    endloop
  endfacet
  facet normal -0.995183 0.0980392 0
    outer loop
      vertex -4.3067 -0.321884 0
      vertex -4.3067 -0.321884 13.8
      vertex -4.27499 0 0
    endloop
  endfacet
  facet normal -0.995183 0.0980392 0
    outer loop
      vertex -4.27499 0 13.8
      vertex -4.27499 0 0
      vertex -4.3067 -0.321884 13.8
    endloop
  endfacet
  facet normal -0.956947 0.290262 0
    outer loop
      vertex -4.40059 -0.631424 0
      vertex -4.40059 -0.631424 13.8
      vertex -4.3067 -0.321884 0
    endloop
  endfacet
  facet normal -0.956947 0.290262 0
    outer loop
      vertex -4.3067 -0.321884 13.8
      vertex -4.3067 -0.321884 0
      vertex -4.40059 -0.631424 13.8
    endloop
  endfacet
  facet normal -0.881916 0.471406 0
    outer loop
      vertex -4.55307 -0.916687 0
      vertex -4.55307 -0.916687 13.8
      vertex -4.40059 -0.631424 0
    endloop
  endfacet
  facet normal -0.881916 0.471406 0
    outer loop
      vertex -4.40059 -0.631424 13.8
      vertex -4.40059 -0.631424 0
      vertex -4.55307 -0.916687 13.8
    endloop
  endfacet
  facet normal -0.773006 0.634399 0
    outer loop
      vertex -4.75827 -1.16672 0
      vertex -4.75827 -1.16672 13.8
      vertex -4.55307 -0.916687 0
    endloop
  endfacet
  facet normal -0.773006 0.634399 0
    outer loop
      vertex -4.55307 -0.916687 13.8
      vertex -4.55307 -0.916687 0
      vertex -4.75827 -1.16672 13.8
    endloop
  endfacet
  facet normal -0.634404 0.773002 0
    outer loop
      vertex -5.0083 -1.37192 0
      vertex -5.0083 -1.37192 13.8
      vertex -4.75827 -1.16672 0
    endloop
  endfacet
  facet normal -0.634404 0.773002 0
    outer loop
      vertex -4.75827 -1.16672 13.8
      vertex -4.75827 -1.16672 0
      vertex -5.0083 -1.37192 13.8
    endloop
  endfacet
  facet normal -0.47141 0.881914 0
    outer loop
      vertex -5.29356 -1.5244 0
      vertex -5.29356 -1.5244 13.8
      vertex -5.0083 -1.37192 0
    endloop
  endfacet
  facet normal -0.47141 0.881914 0
    outer loop
      vertex -5.0083 -1.37192 13.8
      vertex -5.0083 -1.37192 0
      vertex -5.29356 -1.5244 13.8
    endloop
  endfacet
  facet normal -0.290271 0.956945 0
    outer loop
      vertex -5.60309 -1.61829 0
      vertex -5.60309 -1.61829 13.8
      vertex -5.29356 -1.5244 0
    endloop
  endfacet
  facet normal -0.290271 0.956945 0
    outer loop
      vertex -5.29356 -1.5244 13.8
      vertex -5.29356 -1.5244 0
      vertex -5.60309 -1.61829 13.8
    endloop
  endfacet
  facet normal -0.0980037 0.995186 0
    outer loop
      vertex -5.92499 -1.64999 0
      vertex -5.92499 -1.64999 13.8
      vertex -5.60309 -1.61829 0
    endloop
  endfacet
  facet normal -0.0980037 0.995186 0
    outer loop
      vertex -5.60309 -1.61829 13.8
      vertex -5.60309 -1.61829 0
      vertex -5.92499 -1.64999 13.8
    endloop
  endfacet
  facet normal 0.0980037 0.995186 -0
    outer loop
      vertex -6.24689 -1.61829 0
      vertex -6.24689 -1.61829 13.8
      vertex -5.92499 -1.64999 0
    endloop
  endfacet
  facet normal 0.0980037 0.995186 0
    outer loop
      vertex -5.92499 -1.64999 13.8
      vertex -5.92499 -1.64999 0
      vertex -6.24689 -1.61829 13.8
    endloop
  endfacet
endsolid OpenSCAD_Model
