solid OpenSCAD_Model
  facet normal 0 0 -1
    outer loop
      vertex 3.5 0 0
      vertex 1.35852 -2.10577 0
      vertex 1.29999 -2.10001 0
    endloop
  endfacet
  facet normal 0 -0 -1
    outer loop
      vertex 6.46899 3.7879 0
      vertex 7.17783 3.40901 0
      vertex 5.43575 1.29343 0
    endloop
  endfacet
  facet normal 0 0 -1
    outer loop
      vertex 6.29999 0 0
      vertex 9 0 0
      vertex 8.92122 -0.799866 0
    endloop
  endfacet
  facet normal -0 0 -1
    outer loop
      vertex 7.17783 -3.40901 0
      vertex 6.46899 -3.7879 0
      vertex 5.43575 -1.29343 0
    endloop
  endfacet
  facet normal 0 0 -1
    outer loop
      vertex 6.06406 -0.777786 0
      vertex 8.30902 -2.27783 0
      vertex 7.79913 -2.89912 0
    endloop
  endfacet
  facet normal 0 -0 -1
    outer loop
      vertex 6.19342 -0.535751 0
      vertex 8.6879 -1.569 0
      vertex 6.06406 -0.777786 0
    endloop
  endfacet
  facet normal 0 0 -1
    outer loop
      vertex 4.89999 -4.09999 0
      vertex 3.12378 -4.09999 0
      vertex 4.36424 -1.29343 0
    endloop
  endfacet
  facet normal 0 0 -1
    outer loop
      vertex 3.12378 -4.09999 0
      vertex 1.52946 -2.20677 0
      vertex 4.12219 -1.16405 0
    endloop
  endfacet
  facet normal 0 0 -1
    outer loop
      vertex 1.52946 -2.20677 0
      vertex 3.73593 -0.777786 0
      vertex 3.91005 -0.989944 0
    endloop
  endfacet
  facet normal 0 0 -1
    outer loop
      vertex 8.92122 0.799866 0
      vertex 6.27309 0.273117 0
      vertex 6.19342 0.535751 0
    endloop
  endfacet
  facet normal 0 0 -1
    outer loop
      vertex 1.41479 -2.12285 0
      vertex 1.35852 -2.10577 0
      vertex 3.52689 -0.273117 0
    endloop
  endfacet
  facet normal 0 0 -1
    outer loop
      vertex 4.89999 1.39999 0
      vertex 4.89999 4.09999 0
      vertex 5.69986 4.02121 0
    endloop
  endfacet
  facet normal 0 0 -1
    outer loop
      vertex 1.29999 -2.10001 0
      vertex 3.52689 0.273117 0
      vertex 3.5 0 0
    endloop
  endfacet
  facet normal 0 0 -1
    outer loop
      vertex -1.2 -2.10001 0
      vertex 3.60657 0.535751 0
      vertex 3.52689 0.273117 0
    endloop
  endfacet
  facet normal 0 0 -1
    outer loop
      vertex 3.73593 0.777786 0
      vertex 3.60657 0.535751 0
      vertex -1.2 -2.10001 0
    endloop
  endfacet
  facet normal 0 0 -1
    outer loop
      vertex 4.62686 1.37309 0
      vertex 4.89999 4.09999 0
      vertex 4.89999 1.39999 0
    endloop
  endfacet
  facet normal 0 0 -1
    outer loop
      vertex 4.36424 1.29343 0
      vertex 4.89999 4.09999 0
      vertex 4.62686 1.37309 0
    endloop
  endfacet
  facet normal 0 0 -1
    outer loop
      vertex -1.28343 -2.11185 0
      vertex 4.89999 4.09999 0
      vertex -1.2 -2.10001 0
    endloop
  endfacet
  facet normal 0 0 -1
    outer loop
      vertex -1.33806 -2.13367 0
      vertex 4.89999 4.09999 0
      vertex -1.28343 -2.11185 0
    endloop
  endfacet
  facet normal 0 0 -1
    outer loop
      vertex -18.6269 1.37309 0
      vertex -18.9 1.39999 0
      vertex -18.9 4.09999 0
    endloop
  endfacet
  facet normal 0 0 -1
    outer loop
      vertex -19.6778 1.16405 0
      vertex -21.1778 3.40901 0
      vertex -19.4357 1.29343 0
    endloop
  endfacet
  facet normal 0 0 -1
    outer loop
      vertex -22.6879 1.569 0
      vertex -22.309 2.27783 0
      vertex -20.0641 0.777786 0
    endloop
  endfacet
  facet normal 0 0 -1
    outer loop
      vertex -19.4357 1.29343 0
      vertex -19.6999 4.02121 0
      vertex -19.1731 1.37309 0
    endloop
  endfacet
  facet normal 0 0 -1
    outer loop
      vertex -20.0641 -0.777786 0
      vertex -22.309 -2.27783 0
      vertex -22.6879 -1.569 0
    endloop
  endfacet
  facet normal 0 0 -1
    outer loop
      vertex -21.7991 -2.89912 0
      vertex -22.309 -2.27783 0
      vertex -20.0641 -0.777786 0
    endloop
  endfacet
  facet normal -0 0 -1
    outer loop
      vertex -20.2731 -0.273117 0
      vertex -22.9212 -0.799866 0
      vertex -20.3 0 0
    endloop
  endfacet
  facet normal 0 0 -1
    outer loop
      vertex -20.0641 0.777786 0
      vertex -22.309 2.27783 0
      vertex -21.7991 2.89912 0
    endloop
  endfacet
  facet normal 0 0 -1
    outer loop
      vertex -19.4357 1.29343 0
      vertex -21.1778 3.40901 0
      vertex -20.469 3.7879 0
    endloop
  endfacet
  facet normal 0 0 -1
    outer loop
      vertex -19.4357 1.29343 0
      vertex -20.469 3.7879 0
      vertex -19.6999 4.02121 0
    endloop
  endfacet
  facet normal 0 0 -1
    outer loop
      vertex -20.2731 0.273117 0
      vertex -22.9212 0.799866 0
      vertex -20.1934 0.535751 0
    endloop
  endfacet
  facet normal 0 0 -1
    outer loop
      vertex -19.6999 4.02121 0
      vertex -18.9 1.39999 0
      vertex -19.1731 1.37309 0
    endloop
  endfacet
  facet normal 0 -0 -1
    outer loop
      vertex -18.9 4.09999 0
      vertex -18.9 1.39999 0
      vertex -19.6999 4.02121 0
    endloop
  endfacet
  facet normal 0 0 -1
    outer loop
      vertex -20.1934 -0.535751 0
      vertex -22.6879 -1.569 0
      vertex -22.9212 -0.799866 0
    endloop
  endfacet
  facet normal 0 0 -1
    outer loop
      vertex -18.9 -4.09999 0
      vertex -19.6999 -4.02121 0
      vertex -18.9 -1.39999 0
    endloop
  endfacet
  facet normal 0 0 -1
    outer loop
      vertex -18.9 -4.09999 0
      vertex -17.7359 -0.777786 0
      vertex -3.02377 -4.09999 0
    endloop
  endfacet
  facet normal 0 0 -1
    outer loop
      vertex -17.5269 0.273117 0
      vertex -1.42947 -2.20677 0
      vertex -3.02377 -4.09999 0
    endloop
  endfacet
  facet normal 0 0 -1
    outer loop
      vertex -1.38736 -2.16571 0
      vertex -18.9 4.09999 0
      vertex -1.33806 -2.13367 0
    endloop
  endfacet
  facet normal 0 0 -1
    outer loop
      vertex -18.9 4.09999 0
      vertex 4.89999 4.09999 0
      vertex -1.33806 -2.13367 0
    endloop
  endfacet
  facet normal 0 0 -1
    outer loop
      vertex 7.17783 3.40901 0
      vertex 5.88994 0.989944 0
      vertex 5.6778 1.16405 0
    endloop
  endfacet
  facet normal -0 0 -1
    outer loop
      vertex 8.6879 1.569 0
      vertex 6.06406 0.777786 0
      vertex 8.30902 2.27783 0
    endloop
  endfacet
  facet normal -0 0 -1
    outer loop
      vertex 3.91005 0.989944 0
      vertex 3.73593 0.777786 0
      vertex 4.89999 4.09999 0
    endloop
  endfacet
  facet normal 0 0 -1
    outer loop
      vertex 4.12219 1.16405 0
      vertex 4.89999 4.09999 0
      vertex 4.36424 1.29343 0
    endloop
  endfacet
  facet normal 0 0 -1
    outer loop
      vertex 3.91005 0.989944 0
      vertex 4.89999 4.09999 0
      vertex 4.12219 1.16405 0
    endloop
  endfacet
  facet normal -0 0 -1
    outer loop
      vertex 3.73593 0.777786 0
      vertex -1.2 -2.10001 0
      vertex 4.89999 4.09999 0
    endloop
  endfacet
  facet normal 0 0 -1
    outer loop
      vertex -1.2 -2.10001 0
      vertex 3.52689 0.273117 0
      vertex 1.29999 -2.10001 0
    endloop
  endfacet
  facet normal 0 -0 -1
    outer loop
      vertex 3.5 0 0
      vertex 3.52689 -0.273117 0
      vertex 1.35852 -2.10577 0
    endloop
  endfacet
  facet normal 0 0 -1
    outer loop
      vertex 1.41479 -2.12285 0
      vertex 3.52689 -0.273117 0
      vertex 1.46666 -2.15057 0
    endloop
  endfacet
  facet normal 0 -0 -1
    outer loop
      vertex 3.52689 -0.273117 0
      vertex 3.60657 -0.535751 0
      vertex 1.46666 -2.15057 0
    endloop
  endfacet
  facet normal 0 0 -1
    outer loop
      vertex 1.52946 -2.20677 0
      vertex 1.46666 -2.15057 0
      vertex 3.60657 -0.535751 0
    endloop
  endfacet
  facet normal 0 0 -1
    outer loop
      vertex 1.52946 -2.20677 0
      vertex 3.60657 -0.535751 0
      vertex 3.73593 -0.777786 0
    endloop
  endfacet
  facet normal -0 0 -1
    outer loop
      vertex 4.12219 -1.16405 0
      vertex 1.52946 -2.20677 0
      vertex 3.91005 -0.989944 0
    endloop
  endfacet
  facet normal -0 0 -1
    outer loop
      vertex 4.36424 -1.29343 0
      vertex 3.12378 -4.09999 0
      vertex 4.12219 -1.16405 0
    endloop
  endfacet
  facet normal 0 0 -1
    outer loop
      vertex 4.62686 -1.37309 0
      vertex 4.89999 -1.39999 0
      vertex 4.89999 -4.09999 0
    endloop
  endfacet
  facet normal 0 0 -1
    outer loop
      vertex 4.36424 -1.29343 0
      vertex 4.62686 -1.37309 0
      vertex 4.89999 -4.09999 0
    endloop
  endfacet
  facet normal 0 0 -1
    outer loop
      vertex 4.89999 -1.39999 0
      vertex 5.17313 -1.37309 0
      vertex 5.69986 -4.02121 0
    endloop
  endfacet
  facet normal 0 0 -1
    outer loop
      vertex 4.89999 -4.09999 0
      vertex 4.89999 -1.39999 0
      vertex 5.69986 -4.02121 0
    endloop
  endfacet
  facet normal 0 0 -1
    outer loop
      vertex 5.69986 -4.02121 0
      vertex 5.43575 -1.29343 0
      vertex 6.46899 -3.7879 0
    endloop
  endfacet
  facet normal 0 0 -1
    outer loop
      vertex 5.69986 -4.02121 0
      vertex 5.17313 -1.37309 0
      vertex 5.43575 -1.29343 0
    endloop
  endfacet
  facet normal 0 0 -1
    outer loop
      vertex 7.17783 -3.40901 0
      vertex 5.43575 -1.29343 0
      vertex 5.6778 -1.16405 0
    endloop
  endfacet
  facet normal 0 0 -1
    outer loop
      vertex 7.17783 -3.40901 0
      vertex 5.88994 -0.989944 0
      vertex 7.79913 -2.89912 0
    endloop
  endfacet
  facet normal 0 0 -1
    outer loop
      vertex 7.17783 -3.40901 0
      vertex 5.6778 -1.16405 0
      vertex 5.88994 -0.989944 0
    endloop
  endfacet
  facet normal 0 0 -1
    outer loop
      vertex 5.88994 -0.989944 0
      vertex 6.06406 -0.777786 0
      vertex 7.79913 -2.89912 0
    endloop
  endfacet
  facet normal 0 0 -1
    outer loop
      vertex 6.06406 -0.777786 0
      vertex 8.6879 -1.569 0
      vertex 8.30902 -2.27783 0
    endloop
  endfacet
  facet normal 0 0 -1
    outer loop
      vertex 6.19342 -0.535751 0
      vertex 6.27309 -0.273117 0
      vertex 8.92122 -0.799866 0
    endloop
  endfacet
  facet normal 0 0 -1
    outer loop
      vertex 8.6879 -1.569 0
      vertex 6.19342 -0.535751 0
      vertex 8.92122 -0.799866 0
    endloop
  endfacet
  facet normal 0 0 -1
    outer loop
      vertex 8.92122 -0.799866 0
      vertex 6.27309 -0.273117 0
      vertex 6.29999 0 0
    endloop
  endfacet
  facet normal 0 0 -1
    outer loop
      vertex 9 0 0
      vertex 6.29999 0 0
      vertex 8.92122 0.799866 0
    endloop
  endfacet
  facet normal 0 0 -1
    outer loop
      vertex 6.29999 0 0
      vertex 6.27309 0.273117 0
      vertex 8.92122 0.799866 0
    endloop
  endfacet
  facet normal -0 0 -1
    outer loop
      vertex 8.92122 0.799866 0
      vertex 6.19342 0.535751 0
      vertex 8.6879 1.569 0
    endloop
  endfacet
  facet normal 0 0 -1
    outer loop
      vertex 6.19342 0.535751 0
      vertex 6.06406 0.777786 0
      vertex 8.6879 1.569 0
    endloop
  endfacet
  facet normal 0 0 -1
    outer loop
      vertex 6.06406 0.777786 0
      vertex 7.79913 2.89912 0
      vertex 8.30902 2.27783 0
    endloop
  endfacet
  facet normal 0 0 -1
    outer loop
      vertex 5.88994 0.989944 0
      vertex 7.79913 2.89912 0
      vertex 6.06406 0.777786 0
    endloop
  endfacet
  facet normal 0 -0 -1
    outer loop
      vertex 7.17783 3.40901 0
      vertex 7.79913 2.89912 0
      vertex 5.88994 0.989944 0
    endloop
  endfacet
  facet normal 0 0 -1
    outer loop
      vertex 5.43575 1.29343 0
      vertex 7.17783 3.40901 0
      vertex 5.6778 1.16405 0
    endloop
  endfacet
  facet normal 0 -0 -1
    outer loop
      vertex 5.69986 4.02121 0
      vertex 6.46899 3.7879 0
      vertex 5.43575 1.29343 0
    endloop
  endfacet
  facet normal 0 0 -1
    outer loop
      vertex 5.69986 4.02121 0
      vertex 5.17313 1.37309 0
      vertex 4.89999 1.39999 0
    endloop
  endfacet
  facet normal 0 0 -1
    outer loop
      vertex 5.69986 4.02121 0
      vertex 5.43575 1.29343 0
      vertex 5.17313 1.37309 0
    endloop
  endfacet
  facet normal 0 0 -1
    outer loop
      vertex -21.1778 -3.40901 0
      vertex -21.7991 -2.89912 0
      vertex -19.8899 -0.989944 0
    endloop
  endfacet
  facet normal 0 -0 -1
    outer loop
      vertex -21.1778 3.40901 0
      vertex -19.8899 0.989944 0
      vertex -21.7991 2.89912 0
    endloop
  endfacet
  facet normal 0 0 -1
    outer loop
      vertex -21.1778 3.40901 0
      vertex -19.6778 1.16405 0
      vertex -19.8899 0.989944 0
    endloop
  endfacet
  facet normal -0 0 -1
    outer loop
      vertex -19.8899 0.989944 0
      vertex -20.0641 0.777786 0
      vertex -21.7991 2.89912 0
    endloop
  endfacet
  facet normal 0 0 -1
    outer loop
      vertex -22.6879 1.569 0
      vertex -20.0641 0.777786 0
      vertex -20.1934 0.535751 0
    endloop
  endfacet
  facet normal 0 0 -1
    outer loop
      vertex -20.1934 0.535751 0
      vertex -22.9212 0.799866 0
      vertex -22.6879 1.569 0
    endloop
  endfacet
  facet normal 0 -0 -1
    outer loop
      vertex -22.9212 0.799866 0
      vertex -20.3 0 0
      vertex -23 0 0
    endloop
  endfacet
  facet normal 0 0 -1
    outer loop
      vertex -22.9212 0.799866 0
      vertex -20.2731 0.273117 0
      vertex -20.3 0 0
    endloop
  endfacet
  facet normal -0 0 -1
    outer loop
      vertex -20.3 0 0
      vertex -22.9212 -0.799866 0
      vertex -23 0 0
    endloop
  endfacet
  facet normal 0 -0 -1
    outer loop
      vertex -20.2731 -0.273117 0
      vertex -20.1934 -0.535751 0
      vertex -22.9212 -0.799866 0
    endloop
  endfacet
  facet normal 0 -0 -1
    outer loop
      vertex -20.1934 -0.535751 0
      vertex -20.0641 -0.777786 0
      vertex -22.6879 -1.569 0
    endloop
  endfacet
  facet normal 0 0 -1
    outer loop
      vertex -21.7991 -2.89912 0
      vertex -20.0641 -0.777786 0
      vertex -19.8899 -0.989944 0
    endloop
  endfacet
  facet normal 0 0 -1
    outer loop
      vertex -21.1778 -3.40901 0
      vertex -19.8899 -0.989944 0
      vertex -19.6778 -1.16405 0
    endloop
  endfacet
  facet normal 0 -0 -1
    outer loop
      vertex -19.6778 -1.16405 0
      vertex -19.4357 -1.29343 0
      vertex -21.1778 -3.40901 0
    endloop
  endfacet
  facet normal 0 0 -1
    outer loop
      vertex -19.4357 -1.29343 0
      vertex -20.469 -3.7879 0
      vertex -21.1778 -3.40901 0
    endloop
  endfacet
  facet normal 0 0 -1
    outer loop
      vertex -19.6999 -4.02121 0
      vertex -20.469 -3.7879 0
      vertex -19.4357 -1.29343 0
    endloop
  endfacet
  facet normal 0 0 -1
    outer loop
      vertex -19.6999 -4.02121 0
      vertex -19.4357 -1.29343 0
      vertex -19.1731 -1.37309 0
    endloop
  endfacet
  facet normal 0 0 -1
    outer loop
      vertex -19.6999 -4.02121 0
      vertex -19.1731 -1.37309 0
      vertex -18.9 -1.39999 0
    endloop
  endfacet
  facet normal 0 0 -1
    outer loop
      vertex -18.9 -4.09999 0
      vertex -18.9 -1.39999 0
      vertex -18.6269 -1.37309 0
    endloop
  endfacet
  facet normal 0 0 -1
    outer loop
      vertex -18.9 -4.09999 0
      vertex -18.6269 -1.37309 0
      vertex -18.3642 -1.29343 0
    endloop
  endfacet
  facet normal 0 0 -1
    outer loop
      vertex -18.9 -4.09999 0
      vertex -18.3642 -1.29343 0
      vertex -18.1222 -1.16405 0
    endloop
  endfacet
  facet normal 0 0 -1
    outer loop
      vertex -18.9 -4.09999 0
      vertex -18.1222 -1.16405 0
      vertex -17.91 -0.989944 0
    endloop
  endfacet
  facet normal 0 0 -1
    outer loop
      vertex -17.7359 -0.777786 0
      vertex -18.9 -4.09999 0
      vertex -17.91 -0.989944 0
    endloop
  endfacet
  facet normal 0 -0 -1
    outer loop
      vertex -17.6066 -0.535751 0
      vertex -3.02377 -4.09999 0
      vertex -17.7359 -0.777786 0
    endloop
  endfacet
  facet normal 0 -0 -1
    outer loop
      vertex -17.5269 -0.273117 0
      vertex -3.02377 -4.09999 0
      vertex -17.6066 -0.535751 0
    endloop
  endfacet
  facet normal 0 -0 -1
    outer loop
      vertex -17.5 0 0
      vertex -3.02377 -4.09999 0
      vertex -17.5269 -0.273117 0
    endloop
  endfacet
  facet normal 0 0 -1
    outer loop
      vertex -17.5269 0.273117 0
      vertex -3.02377 -4.09999 0
      vertex -17.5 0 0
    endloop
  endfacet
  facet normal 0 0 -1
    outer loop
      vertex -17.6066 0.535751 0
      vertex -1.42947 -2.20677 0
      vertex -17.5269 0.273117 0
    endloop
  endfacet
  facet normal 0 0 -1
    outer loop
      vertex -1.38736 -2.16571 0
      vertex -17.6066 0.535751 0
      vertex -17.7359 0.777786 0
    endloop
  endfacet
  facet normal -0 0 -1
    outer loop
      vertex -1.38736 -2.16571 0
      vertex -1.42947 -2.20677 0
      vertex -17.6066 0.535751 0
    endloop
  endfacet
  facet normal 0 0 -1
    outer loop
      vertex -1.38736 -2.16571 0
      vertex -17.7359 0.777786 0
      vertex -18.9 4.09999 0
    endloop
  endfacet
  facet normal 0 0 -1
    outer loop
      vertex -17.7359 0.777786 0
      vertex -17.91 0.989944 0
      vertex -18.9 4.09999 0
    endloop
  endfacet
  facet normal 0 0 -1
    outer loop
      vertex -17.91 0.989944 0
      vertex -18.1222 1.16405 0
      vertex -18.9 4.09999 0
    endloop
  endfacet
  facet normal 0 0 -1
    outer loop
      vertex -18.1222 1.16405 0
      vertex -18.3642 1.29343 0
      vertex -18.9 4.09999 0
    endloop
  endfacet
  facet normal 0 0 -1
    outer loop
      vertex -18.3642 1.29343 0
      vertex -18.6269 1.37309 0
      vertex -18.9 4.09999 0
    endloop
  endfacet
  facet normal -0 0 1
    outer loop
      vertex 1.29999 -2.10001 2.8
      vertex 1.35852 -2.10577 2.8
      vertex 3.5 0 2.8
    endloop
  endfacet
  facet normal 0 0 1
    outer loop
      vertex 5.43575 1.29343 2.8
      vertex 7.17783 3.40901 2.8
      vertex 6.46899 3.7879 2.8
    endloop
  endfacet
  facet normal 0 -0 1
    outer loop
      vertex 8.92122 -0.799866 2.8
      vertex 9 0 2.8
      vertex 6.29999 0 2.8
    endloop
  endfacet
  facet normal 0 0 1
    outer loop
      vertex 5.43575 -1.29343 2.8
      vertex 6.46899 -3.7879 2.8
      vertex 7.17783 -3.40901 2.8
    endloop
  endfacet
  facet normal 0 -0 1
    outer loop
      vertex 7.79913 -2.89912 2.8
      vertex 8.30902 -2.27783 2.8
      vertex 6.06406 -0.777786 2.8
    endloop
  endfacet
  facet normal -0 0 1
    outer loop
      vertex 6.06406 -0.777786 2.8
      vertex 8.6879 -1.569 2.8
      vertex 6.19342 -0.535751 2.8
    endloop
  endfacet
  facet normal 0 0 1
    outer loop
      vertex 4.36424 -1.29343 2.8
      vertex 3.12378 -4.09999 2.8
      vertex 4.89999 -4.09999 2.8
    endloop
  endfacet
  facet normal 0 0 1
    outer loop
      vertex 4.12219 -1.16405 2.8
      vertex 1.52946 -2.20677 2.8
      vertex 3.12378 -4.09999 2.8
    endloop
  endfacet
  facet normal 0 0 1
    outer loop
      vertex 3.91005 -0.989944 2.8
      vertex 3.73593 -0.777786 2.8
      vertex 1.52946 -2.20677 2.8
    endloop
  endfacet
  facet normal -0 0 1
    outer loop
      vertex 6.19342 0.535751 2.8
      vertex 6.27309 0.273117 2.8
      vertex 8.92122 0.799866 2.8
    endloop
  endfacet
  facet normal 0 0 1
    outer loop
      vertex 3.52689 -0.273117 2.8
      vertex 1.35852 -2.10577 2.8
      vertex 1.41479 -2.12285 2.8
    endloop
  endfacet
  facet normal 0 0 1
    outer loop
      vertex 5.69986 4.02121 2.8
      vertex 4.89999 4.09999 2.8
      vertex 4.89999 1.39999 2.8
    endloop
  endfacet
  facet normal 0 -0 1
    outer loop
      vertex 3.5 0 2.8
      vertex 3.52689 0.273117 2.8
      vertex 1.29999 -2.10001 2.8
    endloop
  endfacet
  facet normal 0 -0 1
    outer loop
      vertex 3.52689 0.273117 2.8
      vertex 3.60657 0.535751 2.8
      vertex -1.2 -2.10001 2.8
    endloop
  endfacet
  facet normal 0 0 1
    outer loop
      vertex -1.2 -2.10001 2.8
      vertex 3.60657 0.535751 2.8
      vertex 3.73593 0.777786 2.8
    endloop
  endfacet
  facet normal 0 -0 1
    outer loop
      vertex 4.89999 1.39999 2.8
      vertex 4.89999 4.09999 2.8
      vertex 4.62686 1.37309 2.8
    endloop
  endfacet
  facet normal 0 -0 1
    outer loop
      vertex 4.62686 1.37309 2.8
      vertex 4.89999 4.09999 2.8
      vertex 4.36424 1.29343 2.8
    endloop
  endfacet
  facet normal 0 -0 1
    outer loop
      vertex -1.2 -2.10001 2.8
      vertex 4.89999 4.09999 2.8
      vertex -1.28343 -2.11185 2.8
    endloop
  endfacet
  facet normal 0 -0 1
    outer loop
      vertex -1.28343 -2.11185 2.8
      vertex 4.89999 4.09999 2.8
      vertex -1.33806 -2.13367 2.8
    endloop
  endfacet
  facet normal 0 0 1
    outer loop
      vertex -18.9 4.09999 2.8
      vertex -18.9 1.39999 2.8
      vertex -18.6269 1.37309 2.8
    endloop
  endfacet
  facet normal 0 0 1
    outer loop
      vertex -19.4357 1.29343 2.8
      vertex -21.1778 3.40901 2.8
      vertex -19.6778 1.16405 2.8
    endloop
  endfacet
  facet normal 0 0 1
    outer loop
      vertex -20.0641 0.777786 2.8
      vertex -22.309 2.27783 2.8
      vertex -22.6879 1.569 2.8
    endloop
  endfacet
  facet normal 0 0 1
    outer loop
      vertex -19.1731 1.37309 2.8
      vertex -19.6999 4.02121 2.8
      vertex -19.4357 1.29343 2.8
    endloop
  endfacet
  facet normal -0 0 1
    outer loop
      vertex -22.6879 -1.569 2.8
      vertex -22.309 -2.27783 2.8
      vertex -20.0641 -0.777786 2.8
    endloop
  endfacet
  facet normal 0 0 1
    outer loop
      vertex -20.0641 -0.777786 2.8
      vertex -22.309 -2.27783 2.8
      vertex -21.7991 -2.89912 2.8
    endloop
  endfacet
  facet normal 0 0 1
    outer loop
      vertex -20.3 0 2.8
      vertex -22.9212 -0.799866 2.8
      vertex -20.2731 -0.273117 2.8
    endloop
  endfacet
  facet normal 0 0 1
    outer loop
      vertex -21.7991 2.89912 2.8
      vertex -22.309 2.27783 2.8
      vertex -20.0641 0.777786 2.8
    endloop
  endfacet
  facet normal 0 0 1
    outer loop
      vertex -20.469 3.7879 2.8
      vertex -21.1778 3.40901 2.8
      vertex -19.4357 1.29343 2.8
    endloop
  endfacet
  facet normal 0 0 1
    outer loop
      vertex -19.6999 4.02121 2.8
      vertex -20.469 3.7879 2.8
      vertex -19.4357 1.29343 2.8
    endloop
  endfacet
  facet normal 0 0 1
    outer loop
      vertex -20.1934 0.535751 2.8
      vertex -22.9212 0.799866 2.8
      vertex -20.2731 0.273117 2.8
    endloop
  endfacet
  facet normal 0 -0 1
    outer loop
      vertex -19.1731 1.37309 2.8
      vertex -18.9 1.39999 2.8
      vertex -19.6999 4.02121 2.8
    endloop
  endfacet
  facet normal -0 0 1
    outer loop
      vertex -19.6999 4.02121 2.8
      vertex -18.9 1.39999 2.8
      vertex -18.9 4.09999 2.8
    endloop
  endfacet
  facet normal -0 0 1
    outer loop
      vertex -22.9212 -0.799866 2.8
      vertex -22.6879 -1.569 2.8
      vertex -20.1934 -0.535751 2.8
    endloop
  endfacet
  facet normal 0 0 1
    outer loop
      vertex -18.9 -1.39999 2.8
      vertex -19.6999 -4.02121 2.8
      vertex -18.9 -4.09999 2.8
    endloop
  endfacet
  facet normal 0 0 1
    outer loop
      vertex -3.02377 -4.09999 2.8
      vertex -17.7359 -0.777786 2.8
      vertex -18.9 -4.09999 2.8
    endloop
  endfacet
  facet normal 0 -0 1
    outer loop
      vertex -3.02377 -4.09999 2.8
      vertex -1.42947 -2.20677 2.8
      vertex -17.5269 0.273117 2.8
    endloop
  endfacet
  facet normal 0 0 1
    outer loop
      vertex -1.33806 -2.13367 2.8
      vertex -18.9 4.09999 2.8
      vertex -1.38736 -2.16571 2.8
    endloop
  endfacet
  facet normal 0 -0 1
    outer loop
      vertex -1.33806 -2.13367 2.8
      vertex 4.89999 4.09999 2.8
      vertex -18.9 4.09999 2.8
    endloop
  endfacet
  facet normal -0 0 1
    outer loop
      vertex 5.6778 1.16405 2.8
      vertex 5.88994 0.989944 2.8
      vertex 7.17783 3.40901 2.8
    endloop
  endfacet
  facet normal 0 0 1
    outer loop
      vertex 8.30902 2.27783 2.8
      vertex 6.06406 0.777786 2.8
      vertex 8.6879 1.569 2.8
    endloop
  endfacet
  facet normal 0 0 1
    outer loop
      vertex 4.89999 4.09999 2.8
      vertex 3.73593 0.777786 2.8
      vertex 3.91005 0.989944 2.8
    endloop
  endfacet
  facet normal 0 -0 1
    outer loop
      vertex 4.36424 1.29343 2.8
      vertex 4.89999 4.09999 2.8
      vertex 4.12219 1.16405 2.8
    endloop
  endfacet
  facet normal 0 -0 1
    outer loop
      vertex 4.12219 1.16405 2.8
      vertex 4.89999 4.09999 2.8
      vertex 3.91005 0.989944 2.8
    endloop
  endfacet
  facet normal 0 0 1
    outer loop
      vertex 4.89999 4.09999 2.8
      vertex -1.2 -2.10001 2.8
      vertex 3.73593 0.777786 2.8
    endloop
  endfacet
  facet normal 0 -0 1
    outer loop
      vertex 1.29999 -2.10001 2.8
      vertex 3.52689 0.273117 2.8
      vertex -1.2 -2.10001 2.8
    endloop
  endfacet
  facet normal 0 0 1
    outer loop
      vertex 1.35852 -2.10577 2.8
      vertex 3.52689 -0.273117 2.8
      vertex 3.5 0 2.8
    endloop
  endfacet
  facet normal 0 -0 1
    outer loop
      vertex 1.46666 -2.15057 2.8
      vertex 3.52689 -0.273117 2.8
      vertex 1.41479 -2.12285 2.8
    endloop
  endfacet
  facet normal 0 0 1
    outer loop
      vertex 1.46666 -2.15057 2.8
      vertex 3.60657 -0.535751 2.8
      vertex 3.52689 -0.273117 2.8
    endloop
  endfacet
  facet normal 0 0 1
    outer loop
      vertex 3.60657 -0.535751 2.8
      vertex 1.46666 -2.15057 2.8
      vertex 1.52946 -2.20677 2.8
    endloop
  endfacet
  facet normal 0 0 1
    outer loop
      vertex 3.73593 -0.777786 2.8
      vertex 3.60657 -0.535751 2.8
      vertex 1.52946 -2.20677 2.8
    endloop
  endfacet
  facet normal 0 0 1
    outer loop
      vertex 3.91005 -0.989944 2.8
      vertex 1.52946 -2.20677 2.8
      vertex 4.12219 -1.16405 2.8
    endloop
  endfacet
  facet normal 0 0 1
    outer loop
      vertex 4.12219 -1.16405 2.8
      vertex 3.12378 -4.09999 2.8
      vertex 4.36424 -1.29343 2.8
    endloop
  endfacet
  facet normal 0 -0 1
    outer loop
      vertex 4.89999 -4.09999 2.8
      vertex 4.89999 -1.39999 2.8
      vertex 4.62686 -1.37309 2.8
    endloop
  endfacet
  facet normal 0 0 1
    outer loop
      vertex 4.89999 -4.09999 2.8
      vertex 4.62686 -1.37309 2.8
      vertex 4.36424 -1.29343 2.8
    endloop
  endfacet
  facet normal 0 0 1
    outer loop
      vertex 5.69986 -4.02121 2.8
      vertex 5.17313 -1.37309 2.8
      vertex 4.89999 -1.39999 2.8
    endloop
  endfacet
  facet normal 0 0 1
    outer loop
      vertex 5.69986 -4.02121 2.8
      vertex 4.89999 -1.39999 2.8
      vertex 4.89999 -4.09999 2.8
    endloop
  endfacet
  facet normal 0 0 1
    outer loop
      vertex 6.46899 -3.7879 2.8
      vertex 5.43575 -1.29343 2.8
      vertex 5.69986 -4.02121 2.8
    endloop
  endfacet
  facet normal 0 0 1
    outer loop
      vertex 5.43575 -1.29343 2.8
      vertex 5.17313 -1.37309 2.8
      vertex 5.69986 -4.02121 2.8
    endloop
  endfacet
  facet normal 0 0 1
    outer loop
      vertex 5.6778 -1.16405 2.8
      vertex 5.43575 -1.29343 2.8
      vertex 7.17783 -3.40901 2.8
    endloop
  endfacet
  facet normal 0 0 1
    outer loop
      vertex 7.79913 -2.89912 2.8
      vertex 5.88994 -0.989944 2.8
      vertex 7.17783 -3.40901 2.8
    endloop
  endfacet
  facet normal 0 0 1
    outer loop
      vertex 5.88994 -0.989944 2.8
      vertex 5.6778 -1.16405 2.8
      vertex 7.17783 -3.40901 2.8
    endloop
  endfacet
  facet normal 0 0 1
    outer loop
      vertex 7.79913 -2.89912 2.8
      vertex 6.06406 -0.777786 2.8
      vertex 5.88994 -0.989944 2.8
    endloop
  endfacet
  facet normal 0 -0 1
    outer loop
      vertex 8.30902 -2.27783 2.8
      vertex 8.6879 -1.569 2.8
      vertex 6.06406 -0.777786 2.8
    endloop
  endfacet
  facet normal 0 0 1
    outer loop
      vertex 8.92122 -0.799866 2.8
      vertex 6.27309 -0.273117 2.8
      vertex 6.19342 -0.535751 2.8
    endloop
  endfacet
  facet normal 0 0 1
    outer loop
      vertex 8.92122 -0.799866 2.8
      vertex 6.19342 -0.535751 2.8
      vertex 8.6879 -1.569 2.8
    endloop
  endfacet
  facet normal 0 0 1
    outer loop
      vertex 6.29999 0 2.8
      vertex 6.27309 -0.273117 2.8
      vertex 8.92122 -0.799866 2.8
    endloop
  endfacet
  facet normal 0 0 1
    outer loop
      vertex 8.92122 0.799866 2.8
      vertex 6.29999 0 2.8
      vertex 9 0 2.8
    endloop
  endfacet
  facet normal 0 0 1
    outer loop
      vertex 8.92122 0.799866 2.8
      vertex 6.27309 0.273117 2.8
      vertex 6.29999 0 2.8
    endloop
  endfacet
  facet normal 0 0 1
    outer loop
      vertex 8.6879 1.569 2.8
      vertex 6.19342 0.535751 2.8
      vertex 8.92122 0.799866 2.8
    endloop
  endfacet
  facet normal 0 0 1
    outer loop
      vertex 8.6879 1.569 2.8
      vertex 6.06406 0.777786 2.8
      vertex 6.19342 0.535751 2.8
    endloop
  endfacet
  facet normal 0 0 1
    outer loop
      vertex 8.30902 2.27783 2.8
      vertex 7.79913 2.89912 2.8
      vertex 6.06406 0.777786 2.8
    endloop
  endfacet
  facet normal 0 -0 1
    outer loop
      vertex 6.06406 0.777786 2.8
      vertex 7.79913 2.89912 2.8
      vertex 5.88994 0.989944 2.8
    endloop
  endfacet
  facet normal 0 0 1
    outer loop
      vertex 5.88994 0.989944 2.8
      vertex 7.79913 2.89912 2.8
      vertex 7.17783 3.40901 2.8
    endloop
  endfacet
  facet normal 0 -0 1
    outer loop
      vertex 5.6778 1.16405 2.8
      vertex 7.17783 3.40901 2.8
      vertex 5.43575 1.29343 2.8
    endloop
  endfacet
  facet normal 0 0 1
    outer loop
      vertex 5.43575 1.29343 2.8
      vertex 6.46899 3.7879 2.8
      vertex 5.69986 4.02121 2.8
    endloop
  endfacet
  facet normal -0 0 1
    outer loop
      vertex 4.89999 1.39999 2.8
      vertex 5.17313 1.37309 2.8
      vertex 5.69986 4.02121 2.8
    endloop
  endfacet
  facet normal -0 0 1
    outer loop
      vertex 5.17313 1.37309 2.8
      vertex 5.43575 1.29343 2.8
      vertex 5.69986 4.02121 2.8
    endloop
  endfacet
  facet normal 0 0 1
    outer loop
      vertex -19.8899 -0.989944 2.8
      vertex -21.7991 -2.89912 2.8
      vertex -21.1778 -3.40901 2.8
    endloop
  endfacet
  facet normal -0 0 1
    outer loop
      vertex -21.7991 2.89912 2.8
      vertex -19.8899 0.989944 2.8
      vertex -21.1778 3.40901 2.8
    endloop
  endfacet
  facet normal 0 -0 1
    outer loop
      vertex -19.8899 0.989944 2.8
      vertex -19.6778 1.16405 2.8
      vertex -21.1778 3.40901 2.8
    endloop
  endfacet
  facet normal 0 0 1
    outer loop
      vertex -21.7991 2.89912 2.8
      vertex -20.0641 0.777786 2.8
      vertex -19.8899 0.989944 2.8
    endloop
  endfacet
  facet normal 0 -0 1
    outer loop
      vertex -20.1934 0.535751 2.8
      vertex -20.0641 0.777786 2.8
      vertex -22.6879 1.569 2.8
    endloop
  endfacet
  facet normal 0 0 1
    outer loop
      vertex -22.6879 1.569 2.8
      vertex -22.9212 0.799866 2.8
      vertex -20.1934 0.535751 2.8
    endloop
  endfacet
  facet normal 0 0 1
    outer loop
      vertex -23 0 2.8
      vertex -20.3 0 2.8
      vertex -22.9212 0.799866 2.8
    endloop
  endfacet
  facet normal 0 -0 1
    outer loop
      vertex -20.3 0 2.8
      vertex -20.2731 0.273117 2.8
      vertex -22.9212 0.799866 2.8
    endloop
  endfacet
  facet normal -0 0 1
    outer loop
      vertex -23 0 2.8
      vertex -22.9212 -0.799866 2.8
      vertex -20.3 0 2.8
    endloop
  endfacet
  facet normal 0 0 1
    outer loop
      vertex -22.9212 -0.799866 2.8
      vertex -20.1934 -0.535751 2.8
      vertex -20.2731 -0.273117 2.8
    endloop
  endfacet
  facet normal 0 0 1
    outer loop
      vertex -22.6879 -1.569 2.8
      vertex -20.0641 -0.777786 2.8
      vertex -20.1934 -0.535751 2.8
    endloop
  endfacet
  facet normal 0 0 1
    outer loop
      vertex -19.8899 -0.989944 2.8
      vertex -20.0641 -0.777786 2.8
      vertex -21.7991 -2.89912 2.8
    endloop
  endfacet
  facet normal 0 0 1
    outer loop
      vertex -19.6778 -1.16405 2.8
      vertex -19.8899 -0.989944 2.8
      vertex -21.1778 -3.40901 2.8
    endloop
  endfacet
  facet normal 0 0 1
    outer loop
      vertex -21.1778 -3.40901 2.8
      vertex -19.4357 -1.29343 2.8
      vertex -19.6778 -1.16405 2.8
    endloop
  endfacet
  facet normal -0 0 1
    outer loop
      vertex -21.1778 -3.40901 2.8
      vertex -20.469 -3.7879 2.8
      vertex -19.4357 -1.29343 2.8
    endloop
  endfacet
  facet normal 0 0 1
    outer loop
      vertex -19.4357 -1.29343 2.8
      vertex -20.469 -3.7879 2.8
      vertex -19.6999 -4.02121 2.8
    endloop
  endfacet
  facet normal 0 0 1
    outer loop
      vertex -19.1731 -1.37309 2.8
      vertex -19.4357 -1.29343 2.8
      vertex -19.6999 -4.02121 2.8
    endloop
  endfacet
  facet normal 0 0 1
    outer loop
      vertex -18.9 -1.39999 2.8
      vertex -19.1731 -1.37309 2.8
      vertex -19.6999 -4.02121 2.8
    endloop
  endfacet
  facet normal 0 0 1
    outer loop
      vertex -18.6269 -1.37309 2.8
      vertex -18.9 -1.39999 2.8
      vertex -18.9 -4.09999 2.8
    endloop
  endfacet
  facet normal 0 0 1
    outer loop
      vertex -18.3642 -1.29343 2.8
      vertex -18.6269 -1.37309 2.8
      vertex -18.9 -4.09999 2.8
    endloop
  endfacet
  facet normal 0 0 1
    outer loop
      vertex -18.1222 -1.16405 2.8
      vertex -18.3642 -1.29343 2.8
      vertex -18.9 -4.09999 2.8
    endloop
  endfacet
  facet normal 0 0 1
    outer loop
      vertex -17.91 -0.989944 2.8
      vertex -18.1222 -1.16405 2.8
      vertex -18.9 -4.09999 2.8
    endloop
  endfacet
  facet normal -0 0 1
    outer loop
      vertex -17.91 -0.989944 2.8
      vertex -18.9 -4.09999 2.8
      vertex -17.7359 -0.777786 2.8
    endloop
  endfacet
  facet normal -0 0 1
    outer loop
      vertex -17.7359 -0.777786 2.8
      vertex -3.02377 -4.09999 2.8
      vertex -17.6066 -0.535751 2.8
    endloop
  endfacet
  facet normal -0 0 1
    outer loop
      vertex -17.6066 -0.535751 2.8
      vertex -3.02377 -4.09999 2.8
      vertex -17.5269 -0.273117 2.8
    endloop
  endfacet
  facet normal -0 0 1
    outer loop
      vertex -17.5269 -0.273117 2.8
      vertex -3.02377 -4.09999 2.8
      vertex -17.5 0 2.8
    endloop
  endfacet
  facet normal -0 -0 1
    outer loop
      vertex -17.5 0 2.8
      vertex -3.02377 -4.09999 2.8
      vertex -17.5269 0.273117 2.8
    endloop
  endfacet
  facet normal -0 -0 1
    outer loop
      vertex -17.5269 0.273117 2.8
      vertex -1.42947 -2.20677 2.8
      vertex -17.6066 0.535751 2.8
    endloop
  endfacet
  facet normal 0 0 1
    outer loop
      vertex -17.7359 0.777786 2.8
      vertex -17.6066 0.535751 2.8
      vertex -1.38736 -2.16571 2.8
    endloop
  endfacet
  facet normal 0 0 1
    outer loop
      vertex -17.6066 0.535751 2.8
      vertex -1.42947 -2.20677 2.8
      vertex -1.38736 -2.16571 2.8
    endloop
  endfacet
  facet normal 0 0 1
    outer loop
      vertex -18.9 4.09999 2.8
      vertex -17.7359 0.777786 2.8
      vertex -1.38736 -2.16571 2.8
    endloop
  endfacet
  facet normal 0 0 1
    outer loop
      vertex -18.9 4.09999 2.8
      vertex -17.91 0.989944 2.8
      vertex -17.7359 0.777786 2.8
    endloop
  endfacet
  facet normal 0 0 1
    outer loop
      vertex -18.9 4.09999 2.8
      vertex -18.1222 1.16405 2.8
      vertex -17.91 0.989944 2.8
    endloop
  endfacet
  facet normal 0 0 1
    outer loop
      vertex -18.9 4.09999 2.8
      vertex -18.3642 1.29343 2.8
      vertex -18.1222 1.16405 2.8
    endloop
  endfacet
  facet normal 0 0 1
    outer loop
      vertex -18.9 4.09999 2.8
      vertex -18.6269 1.37309 2.8
      vertex -18.3642 1.29343 2.8
    endloop
  endfacet
  facet normal 0.290281 0.956941 -0
    outer loop
      vertex 5.69986 4.02121 0
      vertex 5.69986 4.02121 2.8
      vertex 6.46899 3.7879 0
    endloop
  endfacet
  facet normal 0.290281 0.956941 0
    outer loop
      vertex 5.69986 4.02121 2.8
      vertex 6.46899 3.7879 2.8
      vertex 6.46899 3.7879 0
    endloop
  endfacet
  facet normal 0.471404 0.881918 -0
    outer loop
      vertex 6.46899 3.7879 0
      vertex 6.46899 3.7879 2.8
      vertex 7.17783 3.40901 0
    endloop
  endfacet
  facet normal 0.471404 0.881918 0
    outer loop
      vertex 6.46899 3.7879 2.8
      vertex 7.17783 3.40901 2.8
      vertex 7.17783 3.40901 0
    endloop
  endfacet
  facet normal 0.634395 0.773009 -0
    outer loop
      vertex 7.17783 3.40901 0
      vertex 7.17783 3.40901 2.8
      vertex 7.79913 2.89912 0
    endloop
  endfacet
  facet normal 0.634395 0.773009 0
    outer loop
      vertex 7.17783 3.40901 2.8
      vertex 7.79913 2.89912 2.8
      vertex 7.79913 2.89912 0
    endloop
  endfacet
  facet normal 0.773004 0.634401 -0
    outer loop
      vertex 7.79913 2.89912 0
      vertex 7.79913 2.89912 2.8
      vertex 8.30902 2.27783 0
    endloop
  endfacet
  facet normal 0.773004 0.634401 0
    outer loop
      vertex 7.79913 2.89912 2.8
      vertex 8.30902 2.27783 2.8
      vertex 8.30902 2.27783 0
    endloop
  endfacet
  facet normal 0.88192 0.471399 -0
    outer loop
      vertex 8.30902 2.27783 0
      vertex 8.30902 2.27783 2.8
      vertex 8.6879 1.569 0
    endloop
  endfacet
  facet normal 0.88192 0.471399 0
    outer loop
      vertex 8.30902 2.27783 2.8
      vertex 8.6879 1.569 2.8
      vertex 8.6879 1.569 0
    endloop
  endfacet
  facet normal 0.956938 0.290291 -0
    outer loop
      vertex 8.6879 1.569 0
      vertex 8.6879 1.569 2.8
      vertex 8.92122 0.799866 0
    endloop
  endfacet
  facet normal 0.956938 0.290291 0
    outer loop
      vertex 8.6879 1.569 2.8
      vertex 8.92122 0.799866 2.8
      vertex 8.92122 0.799866 0
    endloop
  endfacet
  facet normal 0.995185 0.0980172 -0
    outer loop
      vertex 8.92122 0.799866 0
      vertex 8.92122 0.799866 2.8
      vertex 9 0 0
    endloop
  endfacet
  facet normal 0.995185 0.0980172 0
    outer loop
      vertex 8.92122 0.799866 2.8
      vertex 9 0 2.8
      vertex 9 0 0
    endloop
  endfacet
  facet normal 0.995185 -0.0980172 0
    outer loop
      vertex 9 0 0
      vertex 9 0 2.8
      vertex 8.92122 -0.799866 0
    endloop
  endfacet
  facet normal 0.995185 -0.0980172 0
    outer loop
      vertex 9 0 2.8
      vertex 8.92122 -0.799866 2.8
      vertex 8.92122 -0.799866 0
    endloop
  endfacet
  facet normal 0.956938 -0.290291 0
    outer loop
      vertex 8.92122 -0.799866 0
      vertex 8.92122 -0.799866 2.8
      vertex 8.6879 -1.569 0
    endloop
  endfacet
  facet normal 0.956938 -0.290291 0
    outer loop
      vertex 8.92122 -0.799866 2.8
      vertex 8.6879 -1.569 2.8
      vertex 8.6879 -1.569 0
    endloop
  endfacet
  facet normal 0.88192 -0.471399 0
    outer loop
      vertex 8.6879 -1.569 0
      vertex 8.6879 -1.569 2.8
      vertex 8.30902 -2.27783 0
    endloop
  endfacet
  facet normal 0.88192 -0.471399 0
    outer loop
      vertex 8.6879 -1.569 2.8
      vertex 8.30902 -2.27783 2.8
      vertex 8.30902 -2.27783 0
    endloop
  endfacet
  facet normal 0.773004 -0.634401 0
    outer loop
      vertex 8.30902 -2.27783 0
      vertex 8.30902 -2.27783 2.8
      vertex 7.79913 -2.89912 0
    endloop
  endfacet
  facet normal 0.773004 -0.634401 0
    outer loop
      vertex 8.30902 -2.27783 2.8
      vertex 7.79913 -2.89912 2.8
      vertex 7.79913 -2.89912 0
    endloop
  endfacet
  facet normal 0.634395 -0.773009 0
    outer loop
      vertex 7.79913 -2.89912 0
      vertex 7.79913 -2.89912 2.8
      vertex 7.17783 -3.40901 0
    endloop
  endfacet
  facet normal 0.634395 -0.773009 0
    outer loop
      vertex 7.79913 -2.89912 2.8
      vertex 7.17783 -3.40901 2.8
      vertex 7.17783 -3.40901 0
    endloop
  endfacet
  facet normal 0.471404 -0.881918 0
    outer loop
      vertex 7.17783 -3.40901 0
      vertex 7.17783 -3.40901 2.8
      vertex 6.46899 -3.7879 0
    endloop
  endfacet
  facet normal 0.471404 -0.881918 0
    outer loop
      vertex 7.17783 -3.40901 2.8
      vertex 6.46899 -3.7879 2.8
      vertex 6.46899 -3.7879 0
    endloop
  endfacet
  facet normal 0.290281 -0.956941 0
    outer loop
      vertex 6.46899 -3.7879 0
      vertex 6.46899 -3.7879 2.8
      vertex 5.69986 -4.02121 0
    endloop
  endfacet
  facet normal 0.290281 -0.956941 0
    outer loop
      vertex 6.46899 -3.7879 2.8
      vertex 5.69986 -4.02121 2.8
      vertex 5.69986 -4.02121 0
    endloop
  endfacet
  facet normal 0.0980167 -0.995185 0
    outer loop
      vertex 5.69986 -4.02121 0
      vertex 5.69986 -4.02121 2.8
      vertex 4.89999 -4.09999 0
    endloop
  endfacet
  facet normal 0.0980167 -0.995185 0
    outer loop
      vertex 5.69986 -4.02121 2.8
      vertex 4.89999 -4.09999 2.8
      vertex 4.89999 -4.09999 0
    endloop
  endfacet
  facet normal 0 -1 0
    outer loop
      vertex 4.89999 -4.09999 0
      vertex 4.89999 -4.09999 2.8
      vertex 3.12378 -4.09999 0
    endloop
  endfacet
  facet normal -0 -1 0
    outer loop
      vertex 4.89999 -4.09999 2.8
      vertex 3.12378 -4.09999 2.8
      vertex 3.12378 -4.09999 0
    endloop
  endfacet
  facet normal -0.764905 -0.644143 0
    outer loop
      vertex 3.12378 -4.09999 0
      vertex 3.12378 -4.09999 2.8
      vertex 1.52946 -2.20677 0
    endloop
  endfacet
  facet normal -0.764905 -0.644143 0
    outer loop
      vertex 3.12378 -4.09999 2.8
      vertex 1.52946 -2.20677 2.8
      vertex 1.52946 -2.20677 0
    endloop
  endfacet
  facet normal -0.666864 -0.745179 0
    outer loop
      vertex 1.52946 -2.20677 0
      vertex 1.52946 -2.20677 2.8
      vertex 1.46666 -2.15057 0
    endloop
  endfacet
  facet normal -0.666864 -0.745179 0
    outer loop
      vertex 1.52946 -2.20677 2.8
      vertex 1.46666 -2.15057 2.8
      vertex 1.46666 -2.15057 0
    endloop
  endfacet
  facet normal -0.471329 -0.881957 0
    outer loop
      vertex 1.46666 -2.15057 0
      vertex 1.46666 -2.15057 2.8
      vertex 1.41479 -2.12285 0
    endloop
  endfacet
  facet normal -0.471329 -0.881957 0
    outer loop
      vertex 1.46666 -2.15057 2.8
      vertex 1.41479 -2.12285 2.8
      vertex 1.41479 -2.12285 0
    endloop
  endfacet
  facet normal -0.290451 -0.95689 0
    outer loop
      vertex 1.41479 -2.12285 0
      vertex 1.41479 -2.12285 2.8
      vertex 1.35852 -2.10577 0
    endloop
  endfacet
  facet normal -0.290451 -0.95689 0
    outer loop
      vertex 1.41479 -2.12285 2.8
      vertex 1.35852 -2.10577 2.8
      vertex 1.35852 -2.10577 0
    endloop
  endfacet
  facet normal -0.097938 -0.995193 0
    outer loop
      vertex 1.35852 -2.10577 0
      vertex 1.35852 -2.10577 2.8
      vertex 1.29999 -2.10001 0
    endloop
  endfacet
  facet normal -0.097938 -0.995193 0
    outer loop
      vertex 1.35852 -2.10577 2.8
      vertex 1.29999 -2.10001 2.8
      vertex 1.29999 -2.10001 0
    endloop
  endfacet
  facet normal 0 -1 0
    outer loop
      vertex 1.29999 -2.10001 0
      vertex 1.29999 -2.10001 2.8
      vertex -1.2 -2.10001 0
    endloop
  endfacet
  facet normal -0 -1 0
    outer loop
      vertex 1.29999 -2.10001 2.8
      vertex -1.2 -2.10001 2.8
      vertex -1.2 -2.10001 0
    endloop
  endfacet
  facet normal 0.140508 -0.99008 0
    outer loop
      vertex -1.2 -2.10001 0
      vertex -1.2 -2.10001 2.8
      vertex -1.28343 -2.11185 0
    endloop
  endfacet
  facet normal 0.140508 -0.99008 0
    outer loop
      vertex -1.2 -2.10001 2.8
      vertex -1.28343 -2.11185 2.8
      vertex -1.28343 -2.11185 0
    endloop
  endfacet
  facet normal 0.370922 -0.928664 0
    outer loop
      vertex -1.28343 -2.11185 0
      vertex -1.28343 -2.11185 2.8
      vertex -1.33806 -2.13367 0
    endloop
  endfacet
  facet normal 0.370922 -0.928664 0
    outer loop
      vertex -1.28343 -2.11185 2.8
      vertex -1.33806 -2.13367 2.8
      vertex -1.33806 -2.13367 0
    endloop
  endfacet
  facet normal 0.544929 -0.838482 0
    outer loop
      vertex -1.33806 -2.13367 0
      vertex -1.33806 -2.13367 2.8
      vertex -1.38736 -2.16571 0
    endloop
  endfacet
  facet normal 0.544929 -0.838482 0
    outer loop
      vertex -1.33806 -2.13367 2.8
      vertex -1.38736 -2.16571 2.8
      vertex -1.38736 -2.16571 0
    endloop
  endfacet
  facet normal 0.698124 -0.715977 0
    outer loop
      vertex -1.38736 -2.16571 0
      vertex -1.38736 -2.16571 2.8
      vertex -1.42947 -2.20677 0
    endloop
  endfacet
  facet normal 0.698124 -0.715977 0
    outer loop
      vertex -1.38736 -2.16571 2.8
      vertex -1.42947 -2.20677 2.8
      vertex -1.42947 -2.20677 0
    endloop
  endfacet
  facet normal 0.764909 -0.644138 0
    outer loop
      vertex -1.42947 -2.20677 0
      vertex -1.42947 -2.20677 2.8
      vertex -3.02377 -4.09999 0
    endloop
  endfacet
  facet normal 0.764909 -0.644138 0
    outer loop
      vertex -1.42947 -2.20677 2.8
      vertex -3.02377 -4.09999 2.8
      vertex -3.02377 -4.09999 0
    endloop
  endfacet
  facet normal 0 -1 0
    outer loop
      vertex -3.02377 -4.09999 0
      vertex -3.02377 -4.09999 2.8
      vertex -18.9 -4.09999 0
    endloop
  endfacet
  facet normal -0 -1 0
    outer loop
      vertex -3.02377 -4.09999 2.8
      vertex -18.9 -4.09999 2.8
      vertex -18.9 -4.09999 0
    endloop
  endfacet
  facet normal -0.0980131 -0.995185 0
    outer loop
      vertex -18.9 -4.09999 0
      vertex -18.9 -4.09999 2.8
      vertex -19.6999 -4.02121 0
    endloop
  endfacet
  facet normal -0.0980131 -0.995185 0
    outer loop
      vertex -18.9 -4.09999 2.8
      vertex -19.6999 -4.02121 2.8
      vertex -19.6999 -4.02121 0
    endloop
  endfacet
  facet normal -0.290292 -0.956938 0
    outer loop
      vertex -19.6999 -4.02121 0
      vertex -19.6999 -4.02121 2.8
      vertex -20.469 -3.7879 0
    endloop
  endfacet
  facet normal -0.290292 -0.956938 0
    outer loop
      vertex -19.6999 -4.02121 2.8
      vertex -20.469 -3.7879 2.8
      vertex -20.469 -3.7879 0
    endloop
  endfacet
  facet normal -0.471424 -0.881907 0
    outer loop
      vertex -20.469 -3.7879 0
      vertex -20.469 -3.7879 2.8
      vertex -21.1778 -3.40901 0
    endloop
  endfacet
  facet normal -0.471424 -0.881907 0
    outer loop
      vertex -20.469 -3.7879 2.8
      vertex -21.1778 -3.40901 2.8
      vertex -21.1778 -3.40901 0
    endloop
  endfacet
  facet normal -0.634395 -0.773009 0
    outer loop
      vertex -21.1778 -3.40901 0
      vertex -21.1778 -3.40901 2.8
      vertex -21.7991 -2.89912 0
    endloop
  endfacet
  facet normal -0.634395 -0.773009 0
    outer loop
      vertex -21.1778 -3.40901 2.8
      vertex -21.7991 -2.89912 2.8
      vertex -21.7991 -2.89912 0
    endloop
  endfacet
  facet normal -0.772998 -0.634409 0
    outer loop
      vertex -21.7991 -2.89912 0
      vertex -21.7991 -2.89912 2.8
      vertex -22.309 -2.27783 0
    endloop
  endfacet
  facet normal -0.772998 -0.634409 0
    outer loop
      vertex -21.7991 -2.89912 2.8
      vertex -22.309 -2.27783 2.8
      vertex -22.309 -2.27783 0
    endloop
  endfacet
  facet normal -0.88191 -0.471418 0
    outer loop
      vertex -22.309 -2.27783 0
      vertex -22.309 -2.27783 2.8
      vertex -22.6879 -1.569 0
    endloop
  endfacet
  facet normal -0.88191 -0.471418 0
    outer loop
      vertex -22.309 -2.27783 2.8
      vertex -22.6879 -1.569 2.8
      vertex -22.6879 -1.569 0
    endloop
  endfacet
  facet normal -0.956945 -0.290268 0
    outer loop
      vertex -22.6879 -1.569 0
      vertex -22.6879 -1.569 2.8
      vertex -22.9212 -0.799866 0
    endloop
  endfacet
  facet normal -0.956945 -0.290268 0
    outer loop
      vertex -22.6879 -1.569 2.8
      vertex -22.9212 -0.799866 2.8
      vertex -22.9212 -0.799866 0
    endloop
  endfacet
  facet normal -0.995182 -0.0980419 0
    outer loop
      vertex -22.9212 -0.799866 0
      vertex -22.9212 -0.799866 2.8
      vertex -23 0 0
    endloop
  endfacet
  facet normal -0.995182 -0.0980419 0
    outer loop
      vertex -22.9212 -0.799866 2.8
      vertex -23 0 2.8
      vertex -23 0 0
    endloop
  endfacet
  facet normal -0.995182 0.0980419 0
    outer loop
      vertex -23 0 0
      vertex -23 0 2.8
      vertex -22.9212 0.799866 0
    endloop
  endfacet
  facet normal -0.995182 0.0980419 0
    outer loop
      vertex -23 0 2.8
      vertex -22.9212 0.799866 2.8
      vertex -22.9212 0.799866 0
    endloop
  endfacet
  facet normal -0.956945 0.290268 0
    outer loop
      vertex -22.9212 0.799866 0
      vertex -22.9212 0.799866 2.8
      vertex -22.6879 1.569 0
    endloop
  endfacet
  facet normal -0.956945 0.290268 0
    outer loop
      vertex -22.9212 0.799866 2.8
      vertex -22.6879 1.569 2.8
      vertex -22.6879 1.569 0
    endloop
  endfacet
  facet normal -0.88191 0.471418 0
    outer loop
      vertex -22.6879 1.569 0
      vertex -22.6879 1.569 2.8
      vertex -22.309 2.27783 0
    endloop
  endfacet
  facet normal -0.88191 0.471418 0
    outer loop
      vertex -22.6879 1.569 2.8
      vertex -22.309 2.27783 2.8
      vertex -22.309 2.27783 0
    endloop
  endfacet
  facet normal -0.772998 0.634409 0
    outer loop
      vertex -22.309 2.27783 0
      vertex -22.309 2.27783 2.8
      vertex -21.7991 2.89912 0
    endloop
  endfacet
  facet normal -0.772998 0.634409 0
    outer loop
      vertex -22.309 2.27783 2.8
      vertex -21.7991 2.89912 2.8
      vertex -21.7991 2.89912 0
    endloop
  endfacet
  facet normal -0.634395 0.773009 0
    outer loop
      vertex -21.7991 2.89912 0
      vertex -21.7991 2.89912 2.8
      vertex -21.1778 3.40901 0
    endloop
  endfacet
  facet normal -0.634395 0.773009 0
    outer loop
      vertex -21.7991 2.89912 2.8
      vertex -21.1778 3.40901 2.8
      vertex -21.1778 3.40901 0
    endloop
  endfacet
  facet normal -0.471424 0.881907 0
    outer loop
      vertex -21.1778 3.40901 0
      vertex -21.1778 3.40901 2.8
      vertex -20.469 3.7879 0
    endloop
  endfacet
  facet normal -0.471424 0.881907 0
    outer loop
      vertex -21.1778 3.40901 2.8
      vertex -20.469 3.7879 2.8
      vertex -20.469 3.7879 0
    endloop
  endfacet
  facet normal -0.290292 0.956938 0
    outer loop
      vertex -20.469 3.7879 0
      vertex -20.469 3.7879 2.8
      vertex -19.6999 4.02121 0
    endloop
  endfacet
  facet normal -0.290292 0.956938 0
    outer loop
      vertex -20.469 3.7879 2.8
      vertex -19.6999 4.02121 2.8
      vertex -19.6999 4.02121 0
    endloop
  endfacet
  facet normal -0.0980131 0.995185 0
    outer loop
      vertex -19.6999 4.02121 0
      vertex -19.6999 4.02121 2.8
      vertex -18.9 4.09999 0
    endloop
  endfacet
  facet normal -0.0980131 0.995185 0
    outer loop
      vertex -19.6999 4.02121 2.8
      vertex -18.9 4.09999 2.8
      vertex -18.9 4.09999 0
    endloop
  endfacet
  facet normal 0 1 0
    outer loop
      vertex -18.9 4.09999 0
      vertex -18.9 4.09999 2.8
      vertex 4.89999 4.09999 0
    endloop
  endfacet
  facet normal -0 1 0
    outer loop
      vertex -18.9 4.09999 2.8
      vertex 4.89999 4.09999 2.8
      vertex 4.89999 4.09999 0
    endloop
  endfacet
  facet normal 0.0980167 0.995185 -0
    outer loop
      vertex 4.89999 4.09999 0
      vertex 4.89999 4.09999 2.8
      vertex 5.69986 4.02121 0
    endloop
  endfacet
  facet normal 0.0980167 0.995185 0
    outer loop
      vertex 4.89999 4.09999 2.8
      vertex 5.69986 4.02121 2.8
      vertex 5.69986 4.02121 0
    endloop
  endfacet
  facet normal 0.290268 -0.956945 0
    outer loop
      vertex 4.62686 1.37309 0
      vertex 4.36424 1.29343 2.8
      vertex 4.36424 1.29343 0
    endloop
  endfacet
  facet normal 0.290268 -0.956945 0
    outer loop
      vertex 4.36424 1.29343 2.8
      vertex 4.62686 1.37309 0
      vertex 4.62686 1.37309 2.8
    endloop
  endfacet
  facet normal 0.471401 -0.881919 0
    outer loop
      vertex 4.36424 1.29343 0
      vertex 4.12219 1.16405 2.8
      vertex 4.12219 1.16405 0
    endloop
  endfacet
  facet normal 0.471401 -0.881919 0
    outer loop
      vertex 4.12219 1.16405 2.8
      vertex 4.36424 1.29343 0
      vertex 4.36424 1.29343 2.8
    endloop
  endfacet
  facet normal 0.634409 -0.772998 0
    outer loop
      vertex 4.12219 1.16405 0
      vertex 3.91005 0.989944 2.8
      vertex 3.91005 0.989944 0
    endloop
  endfacet
  facet normal 0.634409 -0.772998 0
    outer loop
      vertex 3.91005 0.989944 2.8
      vertex 4.12219 1.16405 0
      vertex 4.12219 1.16405 2.8
    endloop
  endfacet
  facet normal 0.772999 -0.634407 0
    outer loop
      vertex 3.91005 0.989944 0
      vertex 3.73593 0.777786 2.8
      vertex 3.73593 0.777786 0
    endloop
  endfacet
  facet normal 0.772999 -0.634407 0
    outer loop
      vertex 3.73593 0.777786 2.8
      vertex 3.91005 0.989944 0
      vertex 3.91005 0.989944 2.8
    endloop
  endfacet
  facet normal 0.881937 -0.471367 0
    outer loop
      vertex 3.73593 0.777786 0
      vertex 3.60657 0.535751 2.8
      vertex 3.60657 0.535751 0
    endloop
  endfacet
  facet normal 0.881937 -0.471367 0
    outer loop
      vertex 3.60657 0.535751 2.8
      vertex 3.73593 0.777786 0
      vertex 3.73593 0.777786 2.8
    endloop
  endfacet
  facet normal 0.956929 -0.290321 0
    outer loop
      vertex 3.60657 0.535751 0
      vertex 3.52689 0.273117 2.8
      vertex 3.52689 0.273117 0
    endloop
  endfacet
  facet normal 0.956929 -0.290321 0
    outer loop
      vertex 3.52689 0.273117 2.8
      vertex 3.60657 0.535751 0
      vertex 3.60657 0.535751 2.8
    endloop
  endfacet
  facet normal 0.995188 -0.0979822 0
    outer loop
      vertex 3.52689 0.273117 0
      vertex 3.5 0 2.8
      vertex 3.5 0 0
    endloop
  endfacet
  facet normal 0.995188 -0.0979822 0
    outer loop
      vertex 3.5 0 2.8
      vertex 3.52689 0.273117 0
      vertex 3.52689 0.273117 2.8
    endloop
  endfacet
  facet normal 0.995188 0.0979822 0
    outer loop
      vertex 3.5 0 0
      vertex 3.52689 -0.273117 2.8
      vertex 3.52689 -0.273117 0
    endloop
  endfacet
  facet normal 0.995188 0.0979822 0
    outer loop
      vertex 3.52689 -0.273117 2.8
      vertex 3.5 0 0
      vertex 3.5 0 2.8
    endloop
  endfacet
  facet normal 0.956929 0.290321 0
    outer loop
      vertex 3.52689 -0.273117 0
      vertex 3.60657 -0.535751 2.8
      vertex 3.60657 -0.535751 0
    endloop
  endfacet
  facet normal 0.956929 0.290321 0
    outer loop
      vertex 3.60657 -0.535751 2.8
      vertex 3.52689 -0.273117 0
      vertex 3.52689 -0.273117 2.8
    endloop
  endfacet
  facet normal 0.881937 0.471367 0
    outer loop
      vertex 3.60657 -0.535751 0
      vertex 3.73593 -0.777786 2.8
      vertex 3.73593 -0.777786 0
    endloop
  endfacet
  facet normal 0.881937 0.471367 0
    outer loop
      vertex 3.73593 -0.777786 2.8
      vertex 3.60657 -0.535751 0
      vertex 3.60657 -0.535751 2.8
    endloop
  endfacet
  facet normal 0.772999 0.634407 0
    outer loop
      vertex 3.73593 -0.777786 0
      vertex 3.91005 -0.989944 2.8
      vertex 3.91005 -0.989944 0
    endloop
  endfacet
  facet normal 0.772999 0.634407 0
    outer loop
      vertex 3.91005 -0.989944 2.8
      vertex 3.73593 -0.777786 0
      vertex 3.73593 -0.777786 2.8
    endloop
  endfacet
  facet normal 0.634409 0.772998 0
    outer loop
      vertex 3.91005 -0.989944 0
      vertex 4.12219 -1.16405 2.8
      vertex 4.12219 -1.16405 0
    endloop
  endfacet
  facet normal 0.634409 0.772998 0
    outer loop
      vertex 4.12219 -1.16405 2.8
      vertex 3.91005 -0.989944 0
      vertex 3.91005 -0.989944 2.8
    endloop
  endfacet
  facet normal 0.471401 0.881919 0
    outer loop
      vertex 4.12219 -1.16405 0
      vertex 4.36424 -1.29343 2.8
      vertex 4.36424 -1.29343 0
    endloop
  endfacet
  facet normal 0.471401 0.881919 0
    outer loop
      vertex 4.36424 -1.29343 2.8
      vertex 4.12219 -1.16405 0
      vertex 4.12219 -1.16405 2.8
    endloop
  endfacet
  facet normal 0.290268 0.956945 0
    outer loop
      vertex 4.36424 -1.29343 0
      vertex 4.62686 -1.37309 2.8
      vertex 4.62686 -1.37309 0
    endloop
  endfacet
  facet normal 0.290268 0.956945 0
    outer loop
      vertex 4.62686 -1.37309 2.8
      vertex 4.36424 -1.29343 0
      vertex 4.36424 -1.29343 2.8
    endloop
  endfacet
  facet normal 0.0980137 0.995185 0
    outer loop
      vertex 4.62686 -1.37309 0
      vertex 4.89999 -1.39999 2.8
      vertex 4.89999 -1.39999 0
    endloop
  endfacet
  facet normal 0.0980137 0.995185 0
    outer loop
      vertex 4.89999 -1.39999 2.8
      vertex 4.62686 -1.37309 0
      vertex 4.62686 -1.37309 2.8
    endloop
  endfacet
  facet normal -0.0980101 0.995185 0
    outer loop
      vertex 4.89999 -1.39999 0
      vertex 5.17313 -1.37309 2.8
      vertex 5.17313 -1.37309 0
    endloop
  endfacet
  facet normal -0.0980101 0.995185 0
    outer loop
      vertex 5.17313 -1.37309 2.8
      vertex 4.89999 -1.39999 0
      vertex 4.89999 -1.39999 2.8
    endloop
  endfacet
  facet normal -0.290268 0.956945 0
    outer loop
      vertex 5.17313 -1.37309 0
      vertex 5.43575 -1.29343 2.8
      vertex 5.43575 -1.29343 0
    endloop
  endfacet
  facet normal -0.290268 0.956945 0
    outer loop
      vertex 5.43575 -1.29343 2.8
      vertex 5.17313 -1.37309 0
      vertex 5.17313 -1.37309 2.8
    endloop
  endfacet
  facet normal -0.471401 0.881919 0
    outer loop
      vertex 5.43575 -1.29343 0
      vertex 5.6778 -1.16405 2.8
      vertex 5.6778 -1.16405 0
    endloop
  endfacet
  facet normal -0.471401 0.881919 0
    outer loop
      vertex 5.6778 -1.16405 2.8
      vertex 5.43575 -1.29343 0
      vertex 5.43575 -1.29343 2.8
    endloop
  endfacet
  facet normal -0.634409 0.772998 0
    outer loop
      vertex 5.6778 -1.16405 0
      vertex 5.88994 -0.989944 2.8
      vertex 5.88994 -0.989944 0
    endloop
  endfacet
  facet normal -0.634409 0.772998 0
    outer loop
      vertex 5.88994 -0.989944 2.8
      vertex 5.6778 -1.16405 0
      vertex 5.6778 -1.16405 2.8
    endloop
  endfacet
  facet normal -0.772999 0.634407 0
    outer loop
      vertex 5.88994 -0.989944 0
      vertex 6.06406 -0.777786 2.8
      vertex 6.06406 -0.777786 0
    endloop
  endfacet
  facet normal -0.772999 0.634407 0
    outer loop
      vertex 6.06406 -0.777786 2.8
      vertex 5.88994 -0.989944 0
      vertex 5.88994 -0.989944 2.8
    endloop
  endfacet
  facet normal -0.881937 0.471367 0
    outer loop
      vertex 6.06406 -0.777786 0
      vertex 6.19342 -0.535751 2.8
      vertex 6.19342 -0.535751 0
    endloop
  endfacet
  facet normal -0.881937 0.471367 0
    outer loop
      vertex 6.19342 -0.535751 2.8
      vertex 6.06406 -0.777786 0
      vertex 6.06406 -0.777786 2.8
    endloop
  endfacet
  facet normal -0.956939 0.290288 0
    outer loop
      vertex 6.19342 -0.535751 0
      vertex 6.27309 -0.273117 2.8
      vertex 6.27309 -0.273117 0
    endloop
  endfacet
  facet normal -0.956939 0.290288 0
    outer loop
      vertex 6.27309 -0.273117 2.8
      vertex 6.19342 -0.535751 0
      vertex 6.19342 -0.535751 2.8
    endloop
  endfacet
  facet normal -0.995185 0.0980183 0
    outer loop
      vertex 6.27309 -0.273117 0
      vertex 6.29999 0 2.8
      vertex 6.29999 0 0
    endloop
  endfacet
  facet normal -0.995185 0.0980183 0
    outer loop
      vertex 6.29999 0 2.8
      vertex 6.27309 -0.273117 0
      vertex 6.27309 -0.273117 2.8
    endloop
  endfacet
  facet normal -0.995185 -0.0980183 0
    outer loop
      vertex 6.29999 0 0
      vertex 6.27309 0.273117 2.8
      vertex 6.27309 0.273117 0
    endloop
  endfacet
  facet normal -0.995185 -0.0980183 0
    outer loop
      vertex 6.27309 0.273117 2.8
      vertex 6.29999 0 0
      vertex 6.29999 0 2.8
    endloop
  endfacet
  facet normal -0.956939 -0.290288 0
    outer loop
      vertex 6.27309 0.273117 0
      vertex 6.19342 0.535751 2.8
      vertex 6.19342 0.535751 0
    endloop
  endfacet
  facet normal -0.956939 -0.290288 0
    outer loop
      vertex 6.19342 0.535751 2.8
      vertex 6.27309 0.273117 0
      vertex 6.27309 0.273117 2.8
    endloop
  endfacet
  facet normal -0.881937 -0.471367 0
    outer loop
      vertex 6.19342 0.535751 0
      vertex 6.06406 0.777786 2.8
      vertex 6.06406 0.777786 0
    endloop
  endfacet
  facet normal -0.881937 -0.471367 0
    outer loop
      vertex 6.06406 0.777786 2.8
      vertex 6.19342 0.535751 0
      vertex 6.19342 0.535751 2.8
    endloop
  endfacet
  facet normal -0.772999 -0.634407 0
    outer loop
      vertex 6.06406 0.777786 0
      vertex 5.88994 0.989944 2.8
      vertex 5.88994 0.989944 0
    endloop
  endfacet
  facet normal -0.772999 -0.634407 0
    outer loop
      vertex 5.88994 0.989944 2.8
      vertex 6.06406 0.777786 0
      vertex 6.06406 0.777786 2.8
    endloop
  endfacet
  facet normal -0.634409 -0.772998 0
    outer loop
      vertex 5.88994 0.989944 0
      vertex 5.6778 1.16405 2.8
      vertex 5.6778 1.16405 0
    endloop
  endfacet
  facet normal -0.634409 -0.772998 0
    outer loop
      vertex 5.6778 1.16405 2.8
      vertex 5.88994 0.989944 0
      vertex 5.88994 0.989944 2.8
    endloop
  endfacet
  facet normal -0.471401 -0.881919 0
    outer loop
      vertex 5.6778 1.16405 0
      vertex 5.43575 1.29343 2.8
      vertex 5.43575 1.29343 0
    endloop
  endfacet
  facet normal -0.471401 -0.881919 0
    outer loop
      vertex 5.43575 1.29343 2.8
      vertex 5.6778 1.16405 0
      vertex 5.6778 1.16405 2.8
    endloop
  endfacet
  facet normal -0.290268 -0.956945 0
    outer loop
      vertex 5.43575 1.29343 0
      vertex 5.17313 1.37309 2.8
      vertex 5.17313 1.37309 0
    endloop
  endfacet
  facet normal -0.290268 -0.956945 0
    outer loop
      vertex 5.17313 1.37309 2.8
      vertex 5.43575 1.29343 0
      vertex 5.43575 1.29343 2.8
    endloop
  endfacet
  facet normal -0.0980101 -0.995185 0
    outer loop
      vertex 5.17313 1.37309 0
      vertex 4.89999 1.39999 2.8
      vertex 4.89999 1.39999 0
    endloop
  endfacet
  facet normal -0.0980101 -0.995185 0
    outer loop
      vertex 4.89999 1.39999 2.8
      vertex 5.17313 1.37309 0
      vertex 5.17313 1.37309 2.8
    endloop
  endfacet
  facet normal 0.0980137 -0.995185 0
    outer loop
      vertex 4.89999 1.39999 0
      vertex 4.62686 1.37309 2.8
      vertex 4.62686 1.37309 0
    endloop
  endfacet
  facet normal 0.0980137 -0.995185 0
    outer loop
      vertex 4.62686 1.37309 2.8
      vertex 4.89999 1.39999 0
      vertex 4.89999 1.39999 2.8
    endloop
  endfacet
  facet normal 0.290289 -0.956939 0
    outer loop
      vertex -19.1731 1.37309 0
      vertex -19.4357 1.29343 2.8
      vertex -19.4357 1.29343 0
    endloop
  endfacet
  facet normal 0.290289 -0.956939 0
    outer loop
      vertex -19.4357 1.29343 2.8
      vertex -19.1731 1.37309 0
      vertex -19.1731 1.37309 2.8
    endloop
  endfacet
  facet normal 0.471325 -0.881959 0
    outer loop
      vertex -19.4357 1.29343 0
      vertex -19.6778 1.16405 2.8
      vertex -19.6778 1.16405 0
    endloop
  endfacet
  facet normal 0.471325 -0.881959 0
    outer loop
      vertex -19.6778 1.16405 2.8
      vertex -19.4357 1.29343 0
      vertex -19.4357 1.29343 2.8
    endloop
  endfacet
  facet normal 0.63448 -0.772939 0
    outer loop
      vertex -19.6778 1.16405 0
      vertex -19.8899 0.989944 2.8
      vertex -19.8899 0.989944 0
    endloop
  endfacet
  facet normal 0.63448 -0.772939 0
    outer loop
      vertex -19.8899 0.989944 2.8
      vertex -19.6778 1.16405 0
      vertex -19.6778 1.16405 2.8
    endloop
  endfacet
  facet normal 0.772856 -0.634581 0
    outer loop
      vertex -19.8899 0.989944 0
      vertex -20.0641 0.777786 2.8
      vertex -20.0641 0.777786 0
    endloop
  endfacet
  facet normal 0.772856 -0.634581 0
    outer loop
      vertex -20.0641 0.777786 2.8
      vertex -19.8899 0.989944 0
      vertex -19.8899 0.989944 2.8
    endloop
  endfacet
  facet normal 0.882028 -0.471197 0
    outer loop
      vertex -20.0641 0.777786 0
      vertex -20.1934 0.535751 2.8
      vertex -20.1934 0.535751 0
    endloop
  endfacet
  facet normal 0.882028 -0.471197 0
    outer loop
      vertex -20.1934 0.535751 2.8
      vertex -20.0641 0.777786 0
      vertex -20.0641 0.777786 2.8
    endloop
  endfacet
  facet normal 0.956909 -0.290388 0
    outer loop
      vertex -20.1934 0.535751 0
      vertex -20.2731 0.273117 2.8
      vertex -20.2731 0.273117 0
    endloop
  endfacet
  facet normal 0.956909 -0.290388 0
    outer loop
      vertex -20.2731 0.273117 2.8
      vertex -20.1934 0.535751 0
      vertex -20.1934 0.535751 2.8
    endloop
  endfacet
  facet normal 0.995185 -0.0980183 0
    outer loop
      vertex -20.2731 0.273117 0
      vertex -20.3 0 2.8
      vertex -20.3 0 0
    endloop
  endfacet
  facet normal 0.995185 -0.0980183 0
    outer loop
      vertex -20.3 0 2.8
      vertex -20.2731 0.273117 0
      vertex -20.2731 0.273117 2.8
    endloop
  endfacet
  facet normal 0.995185 0.0980183 0
    outer loop
      vertex -20.3 0 0
      vertex -20.2731 -0.273117 2.8
      vertex -20.2731 -0.273117 0
    endloop
  endfacet
  facet normal 0.995185 0.0980183 0
    outer loop
      vertex -20.2731 -0.273117 2.8
      vertex -20.3 0 0
      vertex -20.3 0 2.8
    endloop
  endfacet
  facet normal 0.956909 0.290388 0
    outer loop
      vertex -20.2731 -0.273117 0
      vertex -20.1934 -0.535751 2.8
      vertex -20.1934 -0.535751 0
    endloop
  endfacet
  facet normal 0.956909 0.290388 0
    outer loop
      vertex -20.1934 -0.535751 2.8
      vertex -20.2731 -0.273117 0
      vertex -20.2731 -0.273117 2.8
    endloop
  endfacet
  facet normal 0.882028 0.471197 0
    outer loop
      vertex -20.1934 -0.535751 0
      vertex -20.0641 -0.777786 2.8
      vertex -20.0641 -0.777786 0
    endloop
  endfacet
  facet normal 0.882028 0.471197 0
    outer loop
      vertex -20.0641 -0.777786 2.8
      vertex -20.1934 -0.535751 0
      vertex -20.1934 -0.535751 2.8
    endloop
  endfacet
  facet normal 0.772856 0.634581 0
    outer loop
      vertex -20.0641 -0.777786 0
      vertex -19.8899 -0.989944 2.8
      vertex -19.8899 -0.989944 0
    endloop
  endfacet
  facet normal 0.772856 0.634581 0
    outer loop
      vertex -19.8899 -0.989944 2.8
      vertex -20.0641 -0.777786 0
      vertex -20.0641 -0.777786 2.8
    endloop
  endfacet
  facet normal 0.63448 0.772939 0
    outer loop
      vertex -19.8899 -0.989944 0
      vertex -19.6778 -1.16405 2.8
      vertex -19.6778 -1.16405 0
    endloop
  endfacet
  facet normal 0.63448 0.772939 0
    outer loop
      vertex -19.6778 -1.16405 2.8
      vertex -19.8899 -0.989944 0
      vertex -19.8899 -0.989944 2.8
    endloop
  endfacet
  facet normal 0.471325 0.881959 0
    outer loop
      vertex -19.6778 -1.16405 0
      vertex -19.4357 -1.29343 2.8
      vertex -19.4357 -1.29343 0
    endloop
  endfacet
  facet normal 0.471325 0.881959 0
    outer loop
      vertex -19.4357 -1.29343 2.8
      vertex -19.6778 -1.16405 0
      vertex -19.6778 -1.16405 2.8
    endloop
  endfacet
  facet normal 0.290289 0.956939 0
    outer loop
      vertex -19.4357 -1.29343 0
      vertex -19.1731 -1.37309 2.8
      vertex -19.1731 -1.37309 0
    endloop
  endfacet
  facet normal 0.290289 0.956939 0
    outer loop
      vertex -19.1731 -1.37309 2.8
      vertex -19.4357 -1.29343 0
      vertex -19.4357 -1.29343 2.8
    endloop
  endfacet
  facet normal 0.0980244 0.995184 0
    outer loop
      vertex -19.1731 -1.37309 0
      vertex -18.9 -1.39999 2.8
      vertex -18.9 -1.39999 0
    endloop
  endfacet
  facet normal 0.0980244 0.995184 0
    outer loop
      vertex -18.9 -1.39999 2.8
      vertex -19.1731 -1.37309 0
      vertex -19.1731 -1.37309 2.8
    endloop
  endfacet
  facet normal -0.0980244 0.995184 0
    outer loop
      vertex -18.9 -1.39999 0
      vertex -18.6269 -1.37309 2.8
      vertex -18.6269 -1.37309 0
    endloop
  endfacet
  facet normal -0.0980244 0.995184 0
    outer loop
      vertex -18.6269 -1.37309 2.8
      vertex -18.9 -1.39999 0
      vertex -18.9 -1.39999 2.8
    endloop
  endfacet
  facet normal -0.290187 0.95697 0
    outer loop
      vertex -18.6269 -1.37309 0
      vertex -18.3642 -1.29343 2.8
      vertex -18.3642 -1.29343 0
    endloop
  endfacet
  facet normal -0.290187 0.95697 0
    outer loop
      vertex -18.3642 -1.29343 2.8
      vertex -18.6269 -1.37309 0
      vertex -18.6269 -1.37309 2.8
    endloop
  endfacet
  facet normal -0.471477 0.881878 0
    outer loop
      vertex -18.3642 -1.29343 0
      vertex -18.1222 -1.16405 2.8
      vertex -18.1222 -1.16405 0
    endloop
  endfacet
  facet normal -0.471477 0.881878 0
    outer loop
      vertex -18.1222 -1.16405 2.8
      vertex -18.3642 -1.29343 0
      vertex -18.3642 -1.29343 2.8
    endloop
  endfacet
  facet normal -0.634302 0.773086 0
    outer loop
      vertex -18.1222 -1.16405 0
      vertex -17.91 -0.989944 2.8
      vertex -17.91 -0.989944 0
    endloop
  endfacet
  facet normal -0.634302 0.773086 0
    outer loop
      vertex -17.91 -0.989944 2.8
      vertex -18.1222 -1.16405 0
      vertex -18.1222 -1.16405 2.8
    endloop
  endfacet
  facet normal -0.773035 0.634364 0
    outer loop
      vertex -17.91 -0.989944 0
      vertex -17.7359 -0.777786 2.8
      vertex -17.7359 -0.777786 0
    endloop
  endfacet
  facet normal -0.773035 0.634364 0
    outer loop
      vertex -17.7359 -0.777786 2.8
      vertex -17.91 -0.989944 0
      vertex -17.91 -0.989944 2.8
    endloop
  endfacet
  facet normal -0.882028 0.471197 0
    outer loop
      vertex -17.7359 -0.777786 0
      vertex -17.6066 -0.535751 2.8
      vertex -17.6066 -0.535751 0
    endloop
  endfacet
  facet normal -0.882028 0.471197 0
    outer loop
      vertex -17.6066 -0.535751 2.8
      vertex -17.7359 -0.777786 0
      vertex -17.7359 -0.777786 2.8
    endloop
  endfacet
  facet normal -0.956909 0.290388 0
    outer loop
      vertex -17.6066 -0.535751 0
      vertex -17.5269 -0.273117 2.8
      vertex -17.5269 -0.273117 0
    endloop
  endfacet
  facet normal -0.956909 0.290388 0
    outer loop
      vertex -17.5269 -0.273117 2.8
      vertex -17.6066 -0.535751 0
      vertex -17.6066 -0.535751 2.8
    endloop
  endfacet
  facet normal -0.995185 0.0980183 0
    outer loop
      vertex -17.5269 -0.273117 0
      vertex -17.5 0 2.8
      vertex -17.5 0 0
    endloop
  endfacet
  facet normal -0.995185 0.0980183 0
    outer loop
      vertex -17.5 0 2.8
      vertex -17.5269 -0.273117 0
      vertex -17.5269 -0.273117 2.8
    endloop
  endfacet
  facet normal -0.995185 -0.0980183 0
    outer loop
      vertex -17.5 0 0
      vertex -17.5269 0.273117 2.8
      vertex -17.5269 0.273117 0
    endloop
  endfacet
  facet normal -0.995185 -0.0980183 0
    outer loop
      vertex -17.5269 0.273117 2.8
      vertex -17.5 0 0
      vertex -17.5 0 2.8
    endloop
  endfacet
  facet normal -0.956909 -0.290388 0
    outer loop
      vertex -17.5269 0.273117 0
      vertex -17.6066 0.535751 2.8
      vertex -17.6066 0.535751 0
    endloop
  endfacet
  facet normal -0.956909 -0.290388 0
    outer loop
      vertex -17.6066 0.535751 2.8
      vertex -17.5269 0.273117 0
      vertex -17.5269 0.273117 2.8
    endloop
  endfacet
  facet normal -0.882028 -0.471197 0
    outer loop
      vertex -17.6066 0.535751 0
      vertex -17.7359 0.777786 2.8
      vertex -17.7359 0.777786 0
    endloop
  endfacet
  facet normal -0.882028 -0.471197 0
    outer loop
      vertex -17.7359 0.777786 2.8
      vertex -17.6066 0.535751 0
      vertex -17.6066 0.535751 2.8
    endloop
  endfacet
  facet normal -0.773035 -0.634364 0
    outer loop
      vertex -17.7359 0.777786 0
      vertex -17.91 0.989944 2.8
      vertex -17.91 0.989944 0
    endloop
  endfacet
  facet normal -0.773035 -0.634364 0
    outer loop
      vertex -17.91 0.989944 2.8
      vertex -17.7359 0.777786 0
      vertex -17.7359 0.777786 2.8
    endloop
  endfacet
  facet normal -0.634302 -0.773086 0
    outer loop
      vertex -17.91 0.989944 0
      vertex -18.1222 1.16405 2.8
      vertex -18.1222 1.16405 0
    endloop
  endfacet
  facet normal -0.634302 -0.773086 0
    outer loop
      vertex -18.1222 1.16405 2.8
      vertex -17.91 0.989944 0
      vertex -17.91 0.989944 2.8
    endloop
  endfacet
  facet normal -0.471477 -0.881878 0
    outer loop
      vertex -18.1222 1.16405 0
      vertex -18.3642 1.29343 2.8
      vertex -18.3642 1.29343 0
    endloop
  endfacet
  facet normal -0.471477 -0.881878 0
    outer loop
      vertex -18.3642 1.29343 2.8
      vertex -18.1222 1.16405 0
      vertex -18.1222 1.16405 2.8
    endloop
  endfacet
  facet normal -0.290187 -0.95697 0
    outer loop
      vertex -18.3642 1.29343 0
      vertex -18.6269 1.37309 2.8
      vertex -18.6269 1.37309 0
    endloop
  endfacet
  facet normal -0.290187 -0.95697 0
    outer loop
      vertex -18.6269 1.37309 2.8
      vertex -18.3642 1.29343 0
      vertex -18.3642 1.29343 2.8
    endloop
  endfacet
  facet normal -0.0980244 -0.995184 0
    outer loop
      vertex -18.6269 1.37309 0
      vertex -18.9 1.39999 2.8
      vertex -18.9 1.39999 0
    endloop
  endfacet
  facet normal -0.0980244 -0.995184 0
    outer loop
      vertex -18.9 1.39999 2.8
      vertex -18.6269 1.37309 0
      vertex -18.6269 1.37309 2.8
    endloop
  endfacet
  facet normal 0.0980244 -0.995184 0
    outer loop
      vertex -18.9 1.39999 0
      vertex -19.1731 1.37309 2.8
      vertex -19.1731 1.37309 0
    endloop
  endfacet
  facet normal 0.0980244 -0.995184 0
    outer loop
      vertex -19.1731 1.37309 2.8
      vertex -18.9 1.39999 0
      vertex -18.9 1.39999 2.8
    endloop
  endfacet
endsolid OpenSCAD_Model
