solid OpenSCAD_Model
  facet normal 0.0980323 -0.995183 0
    outer loop
      vertex 13.1 -12.6 7.62939e-07
      vertex 13.9974 -12.5116 0.599999
      vertex 13.1 -12.6 0.599999
    endloop
  endfacet
  facet normal 0.0980323 -0.995183 0
    outer loop
      vertex 13.9974 -12.5116 0.599999
      vertex 13.1 -12.6 7.62939e-07
      vertex 13.9974 -12.5116 7.62939e-07
    endloop
  endfacet
  facet normal 0.4714 -0.88192 0
    outer loop
      vertex 14.8603 -12.2498 7.62939e-07
      vertex 15.6556 -11.8247 0.599999
      vertex 14.8603 -12.2498 0.599999
    endloop
  endfacet
  facet normal 0.4714 -0.88192 0
    outer loop
      vertex 15.6556 -11.8247 0.599999
      vertex 14.8603 -12.2498 7.62939e-07
      vertex 15.6556 -11.8247 7.62939e-07
    endloop
  endfacet
  facet normal 0 -1 0
    outer loop
      vertex -13.1 -12.6 7.62939e-07
      vertex 13.1 -12.6 0.599999
      vertex -13.1 -12.6 0.599999
    endloop
  endfacet
  facet normal 0 -1 -0
    outer loop
      vertex 13.1 -12.6 0.599999
      vertex -13.1 -12.6 7.62939e-07
      vertex 13.1 -12.6 7.62939e-07
    endloop
  endfacet
  facet normal 0.63433 0.773062 -0
    outer loop
      vertex 16.3527 11.2527 7.62939e-07
      vertex 15.6556 11.8247 0.599999
      vertex 16.3527 11.2527 0.599999
    endloop
  endfacet
  facet normal 0.63433 0.773062 0
    outer loop
      vertex 15.6556 11.8247 0.599999
      vertex 16.3527 11.2527 7.62939e-07
      vertex 15.6556 11.8247 7.62939e-07
    endloop
  endfacet
  facet normal 0.290327 -0.956927 0
    outer loop
      vertex 13.9974 -12.5116 7.62939e-07
      vertex 14.8603 -12.2498 0.599999
      vertex 13.9974 -12.5116 0.599999
    endloop
  endfacet
  facet normal 0.290327 -0.956927 0
    outer loop
      vertex 14.8603 -12.2498 0.599999
      vertex 13.9974 -12.5116 7.62939e-07
      vertex 14.8603 -12.2498 7.62939e-07
    endloop
  endfacet
  facet normal -1 0 0
    outer loop
      vertex -17.7 -7.99998 7.62939e-07
      vertex -17.7 7.99998 0.599999
      vertex -17.7 7.99998 7.62939e-07
    endloop
  endfacet
  facet normal -1 -0 0
    outer loop
      vertex -17.7 7.99998 0.599999
      vertex -17.7 -7.99998 7.62939e-07
      vertex -17.7 -7.99998 0.599999
    endloop
  endfacet
  facet normal -0.95693 0.290318 0
    outer loop
      vertex -17.6116 8.8974 7.62939e-07
      vertex -17.3498 9.76033 0.599999
      vertex -17.3498 9.76033 7.62939e-07
    endloop
  endfacet
  facet normal -0.95693 0.290318 0
    outer loop
      vertex -17.3498 9.76033 0.599999
      vertex -17.6116 8.8974 7.62939e-07
      vertex -17.6116 8.8974 0.599999
    endloop
  endfacet
  facet normal -0.63433 0.773062 0
    outer loop
      vertex -15.6556 11.8247 7.62939e-07
      vertex -16.3527 11.2527 0.599999
      vertex -15.6556 11.8247 0.599999
    endloop
  endfacet
  facet normal -0.63433 0.773062 0
    outer loop
      vertex -16.3527 11.2527 0.599999
      vertex -15.6556 11.8247 7.62939e-07
      vertex -16.3527 11.2527 7.62939e-07
    endloop
  endfacet
  facet normal -0.0980323 0.995183 0
    outer loop
      vertex -13.1 12.6 7.62939e-07
      vertex -13.9974 12.5116 0.599999
      vertex -13.1 12.6 0.599999
    endloop
  endfacet
  facet normal -0.0980323 0.995183 0
    outer loop
      vertex -13.9974 12.5116 0.599999
      vertex -13.1 12.6 7.62939e-07
      vertex -13.9974 12.5116 7.62939e-07
    endloop
  endfacet
  facet normal -0.995183 -0.0980301 0
    outer loop
      vertex -17.6116 -8.8974 7.62939e-07
      vertex -17.7 -7.99998 0.599999
      vertex -17.7 -7.99998 7.62939e-07
    endloop
  endfacet
  facet normal -0.995183 -0.0980301 0
    outer loop
      vertex -17.7 -7.99998 0.599999
      vertex -17.6116 -8.8974 7.62939e-07
      vertex -17.6116 -8.8974 0.599999
    endloop
  endfacet
  facet normal -0.4714 0.88192 0
    outer loop
      vertex -14.8603 12.2498 7.62939e-07
      vertex -15.6556 11.8247 0.599999
      vertex -14.8603 12.2498 0.599999
    endloop
  endfacet
  facet normal -0.4714 0.88192 0
    outer loop
      vertex -15.6556 11.8247 0.599999
      vertex -14.8603 12.2498 7.62939e-07
      vertex -15.6556 11.8247 7.62939e-07
    endloop
  endfacet
  facet normal -0.95693 -0.290318 0
    outer loop
      vertex -17.3498 -9.76033 7.62939e-07
      vertex -17.6116 -8.8974 0.599999
      vertex -17.6116 -8.8974 7.62939e-07
    endloop
  endfacet
  facet normal -0.95693 -0.290318 0
    outer loop
      vertex -17.6116 -8.8974 0.599999
      vertex -17.3498 -9.76033 7.62939e-07
      vertex -17.3498 -9.76033 0.599999
    endloop
  endfacet
  facet normal 0 1 -0
    outer loop
      vertex 13.1 12.6 7.62939e-07
      vertex -13.1 12.6 0.599999
      vertex 13.1 12.6 0.599999
    endloop
  endfacet
  facet normal 0 1 0
    outer loop
      vertex -13.1 12.6 0.599999
      vertex 13.1 12.6 7.62939e-07
      vertex -13.1 12.6 7.62939e-07
    endloop
  endfacet
  facet normal -0.0980323 -0.995183 0
    outer loop
      vertex -13.9974 -12.5116 7.62939e-07
      vertex -13.1 -12.6 0.599999
      vertex -13.9974 -12.5116 0.599999
    endloop
  endfacet
  facet normal -0.0980323 -0.995183 -0
    outer loop
      vertex -13.1 -12.6 0.599999
      vertex -13.9974 -12.5116 7.62939e-07
      vertex -13.1 -12.6 7.62939e-07
    endloop
  endfacet
  facet normal 0.63433 -0.773062 0
    outer loop
      vertex 15.6556 -11.8247 7.62939e-07
      vertex 16.3527 -11.2527 0.599999
      vertex 15.6556 -11.8247 0.599999
    endloop
  endfacet
  facet normal 0.63433 -0.773062 0
    outer loop
      vertex 16.3527 -11.2527 0.599999
      vertex 15.6556 -11.8247 7.62939e-07
      vertex 16.3527 -11.2527 7.62939e-07
    endloop
  endfacet
  facet normal -0.881912 0.471413 0
    outer loop
      vertex -17.3498 9.76033 7.62939e-07
      vertex -16.9247 10.5556 0.599999
      vertex -16.9247 10.5556 7.62939e-07
    endloop
  endfacet
  facet normal -0.881912 0.471413 0
    outer loop
      vertex -16.9247 10.5556 0.599999
      vertex -17.3498 9.76033 7.62939e-07
      vertex -17.3498 9.76033 0.599999
    endloop
  endfacet
  facet normal -0.4714 -0.88192 0
    outer loop
      vertex -15.6556 -11.8247 7.62939e-07
      vertex -14.8603 -12.2498 0.599999
      vertex -15.6556 -11.8247 0.599999
    endloop
  endfacet
  facet normal -0.4714 -0.88192 -0
    outer loop
      vertex -14.8603 -12.2498 0.599999
      vertex -15.6556 -11.8247 7.62939e-07
      vertex -14.8603 -12.2498 7.62939e-07
    endloop
  endfacet
  facet normal -0.290327 -0.956927 0
    outer loop
      vertex -14.8603 -12.2498 7.62939e-07
      vertex -13.9974 -12.5116 0.599999
      vertex -14.8603 -12.2498 0.599999
    endloop
  endfacet
  facet normal -0.290327 -0.956927 -0
    outer loop
      vertex -13.9974 -12.5116 0.599999
      vertex -14.8603 -12.2498 7.62939e-07
      vertex -13.9974 -12.5116 7.62939e-07
    endloop
  endfacet
  facet normal -0.63433 -0.773062 0
    outer loop
      vertex -16.3527 -11.2527 7.62939e-07
      vertex -15.6556 -11.8247 0.599999
      vertex -16.3527 -11.2527 0.599999
    endloop
  endfacet
  facet normal -0.63433 -0.773062 -0
    outer loop
      vertex -15.6556 -11.8247 0.599999
      vertex -16.3527 -11.2527 7.62939e-07
      vertex -15.6556 -11.8247 7.62939e-07
    endloop
  endfacet
  facet normal 0.0980323 0.995183 -0
    outer loop
      vertex 13.9974 12.5116 7.62939e-07
      vertex 13.1 12.6 0.599999
      vertex 13.9974 12.5116 0.599999
    endloop
  endfacet
  facet normal 0.0980323 0.995183 0
    outer loop
      vertex 13.1 12.6 0.599999
      vertex 13.9974 12.5116 7.62939e-07
      vertex 13.1 12.6 7.62939e-07
    endloop
  endfacet
  facet normal -0.290327 0.956927 0
    outer loop
      vertex -13.9974 12.5116 7.62939e-07
      vertex -14.8603 12.2498 0.599999
      vertex -13.9974 12.5116 0.599999
    endloop
  endfacet
  facet normal -0.290327 0.956927 0
    outer loop
      vertex -14.8603 12.2498 0.599999
      vertex -13.9974 12.5116 7.62939e-07
      vertex -14.8603 12.2498 7.62939e-07
    endloop
  endfacet
  facet normal 0.290327 0.956927 -0
    outer loop
      vertex 14.8603 12.2498 7.62939e-07
      vertex 13.9974 12.5116 0.599999
      vertex 14.8603 12.2498 0.599999
    endloop
  endfacet
  facet normal 0.290327 0.956927 0
    outer loop
      vertex 13.9974 12.5116 0.599999
      vertex 14.8603 12.2498 7.62939e-07
      vertex 13.9974 12.5116 7.62939e-07
    endloop
  endfacet
  facet normal -0.881912 -0.471413 0
    outer loop
      vertex -16.9247 -10.5556 7.62939e-07
      vertex -17.3498 -9.76033 0.599999
      vertex -17.3498 -9.76033 7.62939e-07
    endloop
  endfacet
  facet normal -0.881912 -0.471413 0
    outer loop
      vertex -17.3498 -9.76033 0.599999
      vertex -16.9247 -10.5556 7.62939e-07
      vertex -16.9247 -10.5556 0.599999
    endloop
  endfacet
  facet normal 0.881912 0.471413 0
    outer loop
      vertex 17.3498 9.76033 0.599999
      vertex 16.9247 10.5556 7.62939e-07
      vertex 16.9247 10.5556 0.599999
    endloop
  endfacet
  facet normal 0.881912 0.471413 0
    outer loop
      vertex 16.9247 10.5556 7.62939e-07
      vertex 17.3498 9.76033 0.599999
      vertex 17.3498 9.76033 7.62939e-07
    endloop
  endfacet
  facet normal -0.773062 -0.63433 0
    outer loop
      vertex -16.3527 -11.2527 7.62939e-07
      vertex -16.9247 -10.5556 0.599999
      vertex -16.9247 -10.5556 7.62939e-07
    endloop
  endfacet
  facet normal -0.773062 -0.63433 0
    outer loop
      vertex -16.9247 -10.5556 0.599999
      vertex -16.3527 -11.2527 7.62939e-07
      vertex -16.3527 -11.2527 0.599999
    endloop
  endfacet
  facet normal 0.95693 -0.290318 0
    outer loop
      vertex 17.3498 -9.76033 0.599999
      vertex 17.6116 -8.8974 7.62939e-07
      vertex 17.6116 -8.8974 0.599999
    endloop
  endfacet
  facet normal 0.95693 -0.290318 0
    outer loop
      vertex 17.6116 -8.8974 7.62939e-07
      vertex 17.3498 -9.76033 0.599999
      vertex 17.3498 -9.76033 7.62939e-07
    endloop
  endfacet
  facet normal -0.773062 0.63433 0
    outer loop
      vertex -16.9247 10.5556 7.62939e-07
      vertex -16.3527 11.2527 0.599999
      vertex -16.3527 11.2527 7.62939e-07
    endloop
  endfacet
  facet normal -0.773062 0.63433 0
    outer loop
      vertex -16.3527 11.2527 0.599999
      vertex -16.9247 10.5556 7.62939e-07
      vertex -16.9247 10.5556 0.599999
    endloop
  endfacet
  facet normal 1 -0 0
    outer loop
      vertex 17.7 -7.99998 0.599999
      vertex 17.7 7.99998 7.62939e-07
      vertex 17.7 7.99998 0.599999
    endloop
  endfacet
  facet normal 1 0 0
    outer loop
      vertex 17.7 7.99998 7.62939e-07
      vertex 17.7 -7.99998 0.599999
      vertex 17.7 -7.99998 7.62939e-07
    endloop
  endfacet
  facet normal 0.881912 -0.471413 0
    outer loop
      vertex 16.9247 -10.5556 0.599999
      vertex 17.3498 -9.76033 7.62939e-07
      vertex 17.3498 -9.76033 0.599999
    endloop
  endfacet
  facet normal 0.881912 -0.471413 0
    outer loop
      vertex 17.3498 -9.76033 7.62939e-07
      vertex 16.9247 -10.5556 0.599999
      vertex 16.9247 -10.5556 7.62939e-07
    endloop
  endfacet
  facet normal 0.4714 0.88192 -0
    outer loop
      vertex 15.6556 11.8247 7.62939e-07
      vertex 14.8603 12.2498 0.599999
      vertex 15.6556 11.8247 0.599999
    endloop
  endfacet
  facet normal 0.4714 0.88192 0
    outer loop
      vertex 14.8603 12.2498 0.599999
      vertex 15.6556 11.8247 7.62939e-07
      vertex 14.8603 12.2498 7.62939e-07
    endloop
  endfacet
  facet normal 0.995183 0.0980301 0
    outer loop
      vertex 17.7 7.99998 0.599999
      vertex 17.6116 8.8974 7.62939e-07
      vertex 17.6116 8.8974 0.599999
    endloop
  endfacet
  facet normal 0.995183 0.0980301 0
    outer loop
      vertex 17.6116 8.8974 7.62939e-07
      vertex 17.7 7.99998 0.599999
      vertex 17.7 7.99998 7.62939e-07
    endloop
  endfacet
  facet normal -0.995183 0.0980301 0
    outer loop
      vertex -17.7 7.99998 7.62939e-07
      vertex -17.6116 8.8974 0.599999
      vertex -17.6116 8.8974 7.62939e-07
    endloop
  endfacet
  facet normal -0.995183 0.0980301 0
    outer loop
      vertex -17.6116 8.8974 0.599999
      vertex -17.7 7.99998 7.62939e-07
      vertex -17.7 7.99998 0.599999
    endloop
  endfacet
  facet normal -0 0 1
    outer loop
      vertex 16.1 8 0.599999
      vertex 17.7 7.99998 0.599999
      vertex 17.6116 8.8974 0.599999
    endloop
  endfacet
  facet normal 0 0 1
    outer loop
      vertex 17.7 7.99998 0.599999
      vertex 16.1 8 0.599999
      vertex 17.7 -7.99998 0.599999
    endloop
  endfacet
  facet normal 0 0 1
    outer loop
      vertex 16.0423 8.58527 0.599999
      vertex 17.6116 8.8974 0.599999
      vertex 17.3498 9.76033 0.599999
    endloop
  endfacet
  facet normal 0 0 1
    outer loop
      vertex 16.1 -8 0.599999
      vertex 17.7 -7.99998 0.599999
      vertex 16.1 8 0.599999
    endloop
  endfacet
  facet normal 0 0 1
    outer loop
      vertex 15.8716 9.14806 0.599999
      vertex 17.3498 9.76033 0.599999
      vertex 16.9247 10.5556 0.599999
    endloop
  endfacet
  facet normal 0 0 1
    outer loop
      vertex 17.7 -7.99998 0.599999
      vertex 16.1 -8 0.599999
      vertex 17.6116 -8.8974 0.599999
    endloop
  endfacet
  facet normal 0 0 1
    outer loop
      vertex 15.5944 9.66672 0.599999
      vertex 16.9247 10.5556 0.599999
      vertex 16.3527 11.2527 0.599999
    endloop
  endfacet
  facet normal -0 0 1
    outer loop
      vertex 16.0423 -8.58527 0.599999
      vertex 17.6116 -8.8974 0.599999
      vertex 16.1 -8 0.599999
    endloop
  endfacet
  facet normal 0 0 1
    outer loop
      vertex 17.6116 -8.8974 0.599999
      vertex 16.0423 -8.58527 0.599999
      vertex 17.3498 -9.76033 0.599999
    endloop
  endfacet
  facet normal 0 0 1
    outer loop
      vertex 17.6116 8.8974 0.599999
      vertex 16.0423 8.58527 0.599999
      vertex 16.1 8 0.599999
    endloop
  endfacet
  facet normal 0 0 1
    outer loop
      vertex 17.3498 9.76033 0.599999
      vertex 15.8716 9.14806 0.599999
      vertex 16.0423 8.58527 0.599999
    endloop
  endfacet
  facet normal 0 0 1
    outer loop
      vertex 15.2213 10.1213 0.599999
      vertex 16.3527 11.2527 0.599999
      vertex 15.6556 11.8247 0.599999
    endloop
  endfacet
  facet normal 0 0 1
    outer loop
      vertex 16.9247 10.5556 0.599999
      vertex 15.5944 9.66672 0.599999
      vertex 15.8716 9.14806 0.599999
    endloop
  endfacet
  facet normal 0 0 1
    outer loop
      vertex 16.3527 11.2527 0.599999
      vertex 15.2213 10.1213 0.599999
      vertex 15.5944 9.66672 0.599999
    endloop
  endfacet
  facet normal 0 0 1
    outer loop
      vertex 14.7667 10.4944 0.599999
      vertex 15.6556 11.8247 0.599999
      vertex 14.8603 12.2498 0.599999
    endloop
  endfacet
  facet normal 0 0 1
    outer loop
      vertex 15.6556 11.8247 0.599999
      vertex 14.7667 10.4944 0.599999
      vertex 15.2213 10.1213 0.599999
    endloop
  endfacet
  facet normal 0 0 1
    outer loop
      vertex 14.8603 12.2498 0.599999
      vertex 14.248 10.7716 0.599999
      vertex 14.7667 10.4944 0.599999
    endloop
  endfacet
  facet normal 0 0 1
    outer loop
      vertex 13.9974 12.5116 0.599999
      vertex 14.248 10.7716 0.599999
      vertex 14.8603 12.2498 0.599999
    endloop
  endfacet
  facet normal 0 0 1
    outer loop
      vertex 13.9974 12.5116 0.599999
      vertex 13.6853 10.9424 0.599999
      vertex 14.248 10.7716 0.599999
    endloop
  endfacet
  facet normal 0 0 1
    outer loop
      vertex 13.1 12.6 0.599999
      vertex 13.6853 10.9424 0.599999
      vertex 13.9974 12.5116 0.599999
    endloop
  endfacet
  facet normal 0 0 1
    outer loop
      vertex 13.1 12.6 0.599999
      vertex 13.1 11 0.599999
      vertex 13.6853 10.9424 0.599999
    endloop
  endfacet
  facet normal -0 0 1
    outer loop
      vertex -13.1 12.6 0.599999
      vertex 13.1 11 0.599999
      vertex 13.1 12.6 0.599999
    endloop
  endfacet
  facet normal 0 0 1
    outer loop
      vertex -13.1 12.6 0.599999
      vertex -13.1 11 0.599999
      vertex 13.1 11 0.599999
    endloop
  endfacet
  facet normal 0 0 1
    outer loop
      vertex -13.1 12.6 0.599999
      vertex -13.6853 10.9424 0.599999
      vertex -13.1 11 0.599999
    endloop
  endfacet
  facet normal -0 0 1
    outer loop
      vertex -13.9974 12.5116 0.599999
      vertex -13.6853 10.9424 0.599999
      vertex -13.1 12.6 0.599999
    endloop
  endfacet
  facet normal 0 0 1
    outer loop
      vertex -13.9974 12.5116 0.599999
      vertex -14.248 10.7716 0.599999
      vertex -13.6853 10.9424 0.599999
    endloop
  endfacet
  facet normal -0 0 1
    outer loop
      vertex -14.8603 12.2498 0.599999
      vertex -14.248 10.7716 0.599999
      vertex -13.9974 12.5116 0.599999
    endloop
  endfacet
  facet normal 0 0 1
    outer loop
      vertex -14.248 10.7716 0.599999
      vertex -14.8603 12.2498 0.599999
      vertex -14.7667 10.4944 0.599999
    endloop
  endfacet
  facet normal -0 0 1
    outer loop
      vertex -15.6556 11.8247 0.599999
      vertex -14.7667 10.4944 0.599999
      vertex -14.8603 12.2498 0.599999
    endloop
  endfacet
  facet normal 0 0 1
    outer loop
      vertex -14.7667 10.4944 0.599999
      vertex -15.6556 11.8247 0.599999
      vertex -15.2213 10.1213 0.599999
    endloop
  endfacet
  facet normal -0 0 1
    outer loop
      vertex -16.3527 11.2527 0.599999
      vertex -15.2213 10.1213 0.599999
      vertex -15.6556 11.8247 0.599999
    endloop
  endfacet
  facet normal 0 0 1
    outer loop
      vertex -15.2213 10.1213 0.599999
      vertex -16.3527 11.2527 0.599999
      vertex -15.5944 9.66672 0.599999
    endloop
  endfacet
  facet normal -0 0 1
    outer loop
      vertex -16.9247 10.5556 0.599999
      vertex -15.5944 9.66672 0.599999
      vertex -16.3527 11.2527 0.599999
    endloop
  endfacet
  facet normal 0 0 1
    outer loop
      vertex -15.8716 9.14806 0.599999
      vertex -17.3498 9.76033 0.599999
      vertex -16.0423 8.58527 0.599999
    endloop
  endfacet
  facet normal -0 0 1
    outer loop
      vertex -17.3498 9.76033 0.599999
      vertex -15.8716 9.14806 0.599999
      vertex -16.9247 10.5556 0.599999
    endloop
  endfacet
  facet normal 0 0 1
    outer loop
      vertex -15.5944 9.66672 0.599999
      vertex -16.9247 10.5556 0.599999
      vertex -15.8716 9.14806 0.599999
    endloop
  endfacet
  facet normal -0 0 1
    outer loop
      vertex 15.8716 -9.14806 0.599999
      vertex 17.3498 -9.76033 0.599999
      vertex 16.0423 -8.58527 0.599999
    endloop
  endfacet
  facet normal 0 0 1
    outer loop
      vertex 17.3498 -9.76033 0.599999
      vertex 15.8716 -9.14806 0.599999
      vertex 16.9247 -10.5556 0.599999
    endloop
  endfacet
  facet normal -0 0 1
    outer loop
      vertex 15.5944 -9.66672 0.599999
      vertex 16.9247 -10.5556 0.599999
      vertex 15.8716 -9.14806 0.599999
    endloop
  endfacet
  facet normal 0 0 1
    outer loop
      vertex 16.9247 -10.5556 0.599999
      vertex 15.5944 -9.66672 0.599999
      vertex 16.3527 -11.2527 0.599999
    endloop
  endfacet
  facet normal -0 0 1
    outer loop
      vertex 15.2213 -10.1213 0.599999
      vertex 16.3527 -11.2527 0.599999
      vertex 15.5944 -9.66672 0.599999
    endloop
  endfacet
  facet normal 0 0 1
    outer loop
      vertex 16.3527 -11.2527 0.599999
      vertex 15.2213 -10.1213 0.599999
      vertex 15.6556 -11.8247 0.599999
    endloop
  endfacet
  facet normal -0 0 1
    outer loop
      vertex 14.7667 -10.4944 0.599999
      vertex 15.6556 -11.8247 0.599999
      vertex 15.2213 -10.1213 0.599999
    endloop
  endfacet
  facet normal 0 0 1
    outer loop
      vertex 15.6556 -11.8247 0.599999
      vertex 14.7667 -10.4944 0.599999
      vertex 14.8603 -12.2498 0.599999
    endloop
  endfacet
  facet normal -0 0 1
    outer loop
      vertex 14.248 -10.7716 0.599999
      vertex 14.8603 -12.2498 0.599999
      vertex 14.7667 -10.4944 0.599999
    endloop
  endfacet
  facet normal 0 0 1
    outer loop
      vertex 14.248 -10.7716 0.599999
      vertex 13.9974 -12.5116 0.599999
      vertex 14.8603 -12.2498 0.599999
    endloop
  endfacet
  facet normal -0 0 1
    outer loop
      vertex 13.6853 -10.9424 0.599999
      vertex 13.9974 -12.5116 0.599999
      vertex 14.248 -10.7716 0.599999
    endloop
  endfacet
  facet normal -0 0 1
    outer loop
      vertex 13.1 -11 0.599999
      vertex 13.9974 -12.5116 0.599999
      vertex 13.6853 -10.9424 0.599999
    endloop
  endfacet
  facet normal 0 0 1
    outer loop
      vertex 13.1 -11 0.599999
      vertex 13.1 -12.6 0.599999
      vertex 13.9974 -12.5116 0.599999
    endloop
  endfacet
  facet normal -0 0 1
    outer loop
      vertex -13.1 -11 0.599999
      vertex 13.1 -12.6 0.599999
      vertex 13.1 -11 0.599999
    endloop
  endfacet
  facet normal 0 0 1
    outer loop
      vertex -13.1 -11 0.599999
      vertex -13.1 -12.6 0.599999
      vertex 13.1 -12.6 0.599999
    endloop
  endfacet
  facet normal 0 0 1
    outer loop
      vertex -13.6853 -10.9424 0.599999
      vertex -13.1 -12.6 0.599999
      vertex -13.1 -11 0.599999
    endloop
  endfacet
  facet normal 0 0 1
    outer loop
      vertex -13.6853 -10.9424 0.599999
      vertex -13.9974 -12.5116 0.599999
      vertex -13.1 -12.6 0.599999
    endloop
  endfacet
  facet normal 0 0 1
    outer loop
      vertex -14.248 -10.7716 0.599999
      vertex -13.9974 -12.5116 0.599999
      vertex -13.6853 -10.9424 0.599999
    endloop
  endfacet
  facet normal 0 0 1
    outer loop
      vertex -14.8603 -12.2498 0.599999
      vertex -14.248 -10.7716 0.599999
      vertex -14.7667 -10.4944 0.599999
    endloop
  endfacet
  facet normal 0 0 1
    outer loop
      vertex -14.248 -10.7716 0.599999
      vertex -14.8603 -12.2498 0.599999
      vertex -13.9974 -12.5116 0.599999
    endloop
  endfacet
  facet normal 0 0 1
    outer loop
      vertex -15.6556 -11.8247 0.599999
      vertex -14.7667 -10.4944 0.599999
      vertex -15.2213 -10.1213 0.599999
    endloop
  endfacet
  facet normal 0 0 1
    outer loop
      vertex -16.3527 -11.2527 0.599999
      vertex -15.2213 -10.1213 0.599999
      vertex -15.5944 -9.66672 0.599999
    endloop
  endfacet
  facet normal 0 0 1
    outer loop
      vertex -14.7667 -10.4944 0.599999
      vertex -15.6556 -11.8247 0.599999
      vertex -14.8603 -12.2498 0.599999
    endloop
  endfacet
  facet normal 0 0 1
    outer loop
      vertex -16.9247 -10.5556 0.599999
      vertex -15.5944 -9.66672 0.599999
      vertex -15.8716 -9.14806 0.599999
    endloop
  endfacet
  facet normal 0 0 1
    outer loop
      vertex -17.3498 -9.76033 0.599999
      vertex -15.8716 -9.14806 0.599999
      vertex -16.0423 -8.58527 0.599999
    endloop
  endfacet
  facet normal 0 0 1
    outer loop
      vertex -15.2213 -10.1213 0.599999
      vertex -16.3527 -11.2527 0.599999
      vertex -15.6556 -11.8247 0.599999
    endloop
  endfacet
  facet normal 0 0 1
    outer loop
      vertex -17.6116 -8.8974 0.599999
      vertex -16.0423 -8.58527 0.599999
      vertex -16.1 -8 0.599999
    endloop
  endfacet
  facet normal 0 0 1
    outer loop
      vertex -16.1 8 0.599999
      vertex -17.7 7.99998 0.599999
      vertex -16.1 -8 0.599999
    endloop
  endfacet
  facet normal -0 0 1
    outer loop
      vertex -17.6116 8.8974 0.599999
      vertex -16.0423 8.58527 0.599999
      vertex -17.3498 9.76033 0.599999
    endloop
  endfacet
  facet normal -0 0 1
    outer loop
      vertex -17.7 -7.99998 0.599999
      vertex -16.1 -8 0.599999
      vertex -17.7 7.99998 0.599999
    endloop
  endfacet
  facet normal 0 0 1
    outer loop
      vertex -16.0423 8.58527 0.599999
      vertex -17.6116 8.8974 0.599999
      vertex -16.1 8 0.599999
    endloop
  endfacet
  facet normal 0 -0 1
    outer loop
      vertex -17.6116 -8.8974 0.599999
      vertex -16.1 -8 0.599999
      vertex -17.7 -7.99998 0.599999
    endloop
  endfacet
  facet normal 0 0 1
    outer loop
      vertex -16.1 8 0.599999
      vertex -17.6116 8.8974 0.599999
      vertex -17.7 7.99998 0.599999
    endloop
  endfacet
  facet normal 0 0 1
    outer loop
      vertex -15.5944 -9.66672 0.599999
      vertex -16.9247 -10.5556 0.599999
      vertex -16.3527 -11.2527 0.599999
    endloop
  endfacet
  facet normal 0 0 1
    outer loop
      vertex -15.8716 -9.14806 0.599999
      vertex -17.3498 -9.76033 0.599999
      vertex -16.9247 -10.5556 0.599999
    endloop
  endfacet
  facet normal 0 0 1
    outer loop
      vertex -16.0423 -8.58527 0.599999
      vertex -17.6116 -8.8974 0.599999
      vertex -17.3498 -9.76033 0.599999
    endloop
  endfacet
  facet normal 0.995183 -0.0980301 0
    outer loop
      vertex 17.6116 -8.8974 0.599999
      vertex 17.7 -7.99998 7.62939e-07
      vertex 17.7 -7.99998 0.599999
    endloop
  endfacet
  facet normal 0.995183 -0.0980301 0
    outer loop
      vertex 17.7 -7.99998 7.62939e-07
      vertex 17.6116 -8.8974 0.599999
      vertex 17.6116 -8.8974 7.62939e-07
    endloop
  endfacet
  facet normal 0.95693 0.290318 0
    outer loop
      vertex 17.6116 8.8974 0.599999
      vertex 17.3498 9.76033 7.62939e-07
      vertex 17.3498 9.76033 0.599999
    endloop
  endfacet
  facet normal 0.95693 0.290318 0
    outer loop
      vertex 17.3498 9.76033 7.62939e-07
      vertex 17.6116 8.8974 0.599999
      vertex 17.6116 8.8974 7.62939e-07
    endloop
  endfacet
  facet normal 0 0 -1
    outer loop
      vertex 16.1 -8 7.62939e-07
      vertex 17.7 -7.99998 7.62939e-07
      vertex 17.6116 -8.8974 7.62939e-07
    endloop
  endfacet
  facet normal -0 0 -1
    outer loop
      vertex 17.7 -7.99998 7.62939e-07
      vertex 16.1 -8 7.62939e-07
      vertex 17.7 7.99998 7.62939e-07
    endloop
  endfacet
  facet normal 0 0 -1
    outer loop
      vertex 16.0423 -8.58527 7.62939e-07
      vertex 17.6116 -8.8974 7.62939e-07
      vertex 17.3498 -9.76033 7.62939e-07
    endloop
  endfacet
  facet normal 0 0 -1
    outer loop
      vertex 16.1 8 7.62939e-07
      vertex 17.7 7.99998 7.62939e-07
      vertex 16.1 -8 7.62939e-07
    endloop
  endfacet
  facet normal 0 0 -1
    outer loop
      vertex 15.8716 -9.14806 7.62939e-07
      vertex 17.3498 -9.76033 7.62939e-07
      vertex 16.9247 -10.5556 7.62939e-07
    endloop
  endfacet
  facet normal 0 0 -1
    outer loop
      vertex 17.7 7.99998 7.62939e-07
      vertex 16.1 8 7.62939e-07
      vertex 17.6116 8.8974 7.62939e-07
    endloop
  endfacet
  facet normal 0 0 -1
    outer loop
      vertex 15.5944 -9.66672 7.62939e-07
      vertex 16.9247 -10.5556 7.62939e-07
      vertex 16.3527 -11.2527 7.62939e-07
    endloop
  endfacet
  facet normal 0 0 -1
    outer loop
      vertex 16.0423 8.58527 7.62939e-07
      vertex 17.6116 8.8974 7.62939e-07
      vertex 16.1 8 7.62939e-07
    endloop
  endfacet
  facet normal -0 0 -1
    outer loop
      vertex 17.6116 8.8974 7.62939e-07
      vertex 16.0423 8.58527 7.62939e-07
      vertex 17.3498 9.76033 7.62939e-07
    endloop
  endfacet
  facet normal 0 0 -1
    outer loop
      vertex 17.6116 -8.8974 7.62939e-07
      vertex 16.0423 -8.58527 7.62939e-07
      vertex 16.1 -8 7.62939e-07
    endloop
  endfacet
  facet normal 0 0 -1
    outer loop
      vertex 17.3498 -9.76033 7.62939e-07
      vertex 15.8716 -9.14806 7.62939e-07
      vertex 16.0423 -8.58527 7.62939e-07
    endloop
  endfacet
  facet normal 0 0 -1
    outer loop
      vertex 15.2213 -10.1213 7.62939e-07
      vertex 16.3527 -11.2527 7.62939e-07
      vertex 15.6556 -11.8247 7.62939e-07
    endloop
  endfacet
  facet normal 0 0 -1
    outer loop
      vertex 16.9247 -10.5556 7.62939e-07
      vertex 15.5944 -9.66672 7.62939e-07
      vertex 15.8716 -9.14806 7.62939e-07
    endloop
  endfacet
  facet normal 0 0 -1
    outer loop
      vertex 16.3527 -11.2527 7.62939e-07
      vertex 15.2213 -10.1213 7.62939e-07
      vertex 15.5944 -9.66672 7.62939e-07
    endloop
  endfacet
  facet normal 0 0 -1
    outer loop
      vertex 14.7667 -10.4944 7.62939e-07
      vertex 15.6556 -11.8247 7.62939e-07
      vertex 14.8603 -12.2498 7.62939e-07
    endloop
  endfacet
  facet normal 0 0 -1
    outer loop
      vertex 15.6556 -11.8247 7.62939e-07
      vertex 14.7667 -10.4944 7.62939e-07
      vertex 15.2213 -10.1213 7.62939e-07
    endloop
  endfacet
  facet normal 0 0 -1
    outer loop
      vertex 14.8603 -12.2498 7.62939e-07
      vertex 14.248 -10.7716 7.62939e-07
      vertex 14.7667 -10.4944 7.62939e-07
    endloop
  endfacet
  facet normal 0 0 -1
    outer loop
      vertex 13.9974 -12.5116 7.62939e-07
      vertex 14.248 -10.7716 7.62939e-07
      vertex 14.8603 -12.2498 7.62939e-07
    endloop
  endfacet
  facet normal 0 0 -1
    outer loop
      vertex 13.9974 -12.5116 7.62939e-07
      vertex 13.6853 -10.9424 7.62939e-07
      vertex 14.248 -10.7716 7.62939e-07
    endloop
  endfacet
  facet normal 0 0 -1
    outer loop
      vertex 13.1 -12.6 7.62939e-07
      vertex 13.6853 -10.9424 7.62939e-07
      vertex 13.9974 -12.5116 7.62939e-07
    endloop
  endfacet
  facet normal 0 0 -1
    outer loop
      vertex 13.1 -12.6 7.62939e-07
      vertex 13.1 -11 7.62939e-07
      vertex 13.6853 -10.9424 7.62939e-07
    endloop
  endfacet
  facet normal 0 0 -1
    outer loop
      vertex -13.1 -12.6 7.62939e-07
      vertex 13.1 -11 7.62939e-07
      vertex 13.1 -12.6 7.62939e-07
    endloop
  endfacet
  facet normal 0 0 -1
    outer loop
      vertex -13.1 -12.6 7.62939e-07
      vertex -13.1 -11 7.62939e-07
      vertex 13.1 -11 7.62939e-07
    endloop
  endfacet
  facet normal 0 0 -1
    outer loop
      vertex -13.1 -12.6 7.62939e-07
      vertex -13.6853 -10.9424 7.62939e-07
      vertex -13.1 -11 7.62939e-07
    endloop
  endfacet
  facet normal 0 0 -1
    outer loop
      vertex -13.9974 -12.5116 7.62939e-07
      vertex -13.6853 -10.9424 7.62939e-07
      vertex -13.1 -12.6 7.62939e-07
    endloop
  endfacet
  facet normal 0 0 -1
    outer loop
      vertex -13.9974 -12.5116 7.62939e-07
      vertex -14.248 -10.7716 7.62939e-07
      vertex -13.6853 -10.9424 7.62939e-07
    endloop
  endfacet
  facet normal 0 0 -1
    outer loop
      vertex -14.8603 -12.2498 7.62939e-07
      vertex -14.248 -10.7716 7.62939e-07
      vertex -13.9974 -12.5116 7.62939e-07
    endloop
  endfacet
  facet normal -0 0 -1
    outer loop
      vertex -14.248 -10.7716 7.62939e-07
      vertex -14.8603 -12.2498 7.62939e-07
      vertex -14.7667 -10.4944 7.62939e-07
    endloop
  endfacet
  facet normal 0 0 -1
    outer loop
      vertex -15.6556 -11.8247 7.62939e-07
      vertex -14.7667 -10.4944 7.62939e-07
      vertex -14.8603 -12.2498 7.62939e-07
    endloop
  endfacet
  facet normal -0 0 -1
    outer loop
      vertex -14.7667 -10.4944 7.62939e-07
      vertex -15.6556 -11.8247 7.62939e-07
      vertex -15.2213 -10.1213 7.62939e-07
    endloop
  endfacet
  facet normal 0 0 -1
    outer loop
      vertex -16.3527 -11.2527 7.62939e-07
      vertex -15.2213 -10.1213 7.62939e-07
      vertex -15.6556 -11.8247 7.62939e-07
    endloop
  endfacet
  facet normal -0 0 -1
    outer loop
      vertex -15.2213 -10.1213 7.62939e-07
      vertex -16.3527 -11.2527 7.62939e-07
      vertex -15.5944 -9.66672 7.62939e-07
    endloop
  endfacet
  facet normal 0 0 -1
    outer loop
      vertex -16.9247 -10.5556 7.62939e-07
      vertex -15.5944 -9.66672 7.62939e-07
      vertex -16.3527 -11.2527 7.62939e-07
    endloop
  endfacet
  facet normal -0 0 -1
    outer loop
      vertex -15.8716 -9.14806 7.62939e-07
      vertex -17.3498 -9.76033 7.62939e-07
      vertex -16.0423 -8.58527 7.62939e-07
    endloop
  endfacet
  facet normal 0 0 -1
    outer loop
      vertex -17.3498 -9.76033 7.62939e-07
      vertex -15.8716 -9.14806 7.62939e-07
      vertex -16.9247 -10.5556 7.62939e-07
    endloop
  endfacet
  facet normal -0 0 -1
    outer loop
      vertex -15.5944 -9.66672 7.62939e-07
      vertex -16.9247 -10.5556 7.62939e-07
      vertex -15.8716 -9.14806 7.62939e-07
    endloop
  endfacet
  facet normal 0 0 -1
    outer loop
      vertex 15.8716 9.14806 7.62939e-07
      vertex 17.3498 9.76033 7.62939e-07
      vertex 16.0423 8.58527 7.62939e-07
    endloop
  endfacet
  facet normal -0 0 -1
    outer loop
      vertex 17.3498 9.76033 7.62939e-07
      vertex 15.8716 9.14806 7.62939e-07
      vertex 16.9247 10.5556 7.62939e-07
    endloop
  endfacet
  facet normal 0 0 -1
    outer loop
      vertex 15.5944 9.66672 7.62939e-07
      vertex 16.9247 10.5556 7.62939e-07
      vertex 15.8716 9.14806 7.62939e-07
    endloop
  endfacet
  facet normal -0 0 -1
    outer loop
      vertex 16.9247 10.5556 7.62939e-07
      vertex 15.5944 9.66672 7.62939e-07
      vertex 16.3527 11.2527 7.62939e-07
    endloop
  endfacet
  facet normal 0 0 -1
    outer loop
      vertex 15.2213 10.1213 7.62939e-07
      vertex 16.3527 11.2527 7.62939e-07
      vertex 15.5944 9.66672 7.62939e-07
    endloop
  endfacet
  facet normal -0 0 -1
    outer loop
      vertex 16.3527 11.2527 7.62939e-07
      vertex 15.2213 10.1213 7.62939e-07
      vertex 15.6556 11.8247 7.62939e-07
    endloop
  endfacet
  facet normal 0 0 -1
    outer loop
      vertex 14.7667 10.4944 7.62939e-07
      vertex 15.6556 11.8247 7.62939e-07
      vertex 15.2213 10.1213 7.62939e-07
    endloop
  endfacet
  facet normal -0 0 -1
    outer loop
      vertex 15.6556 11.8247 7.62939e-07
      vertex 14.7667 10.4944 7.62939e-07
      vertex 14.8603 12.2498 7.62939e-07
    endloop
  endfacet
  facet normal 0 0 -1
    outer loop
      vertex 14.248 10.7716 7.62939e-07
      vertex 14.8603 12.2498 7.62939e-07
      vertex 14.7667 10.4944 7.62939e-07
    endloop
  endfacet
  facet normal 0 0 -1
    outer loop
      vertex 14.248 10.7716 7.62939e-07
      vertex 13.9974 12.5116 7.62939e-07
      vertex 14.8603 12.2498 7.62939e-07
    endloop
  endfacet
  facet normal 0 0 -1
    outer loop
      vertex 13.6853 10.9424 7.62939e-07
      vertex 13.9974 12.5116 7.62939e-07
      vertex 14.248 10.7716 7.62939e-07
    endloop
  endfacet
  facet normal 0 0 -1
    outer loop
      vertex 13.1 11 7.62939e-07
      vertex 13.9974 12.5116 7.62939e-07
      vertex 13.6853 10.9424 7.62939e-07
    endloop
  endfacet
  facet normal 0 0 -1
    outer loop
      vertex 13.1 11 7.62939e-07
      vertex 13.1 12.6 7.62939e-07
      vertex 13.9974 12.5116 7.62939e-07
    endloop
  endfacet
  facet normal 0 0 -1
    outer loop
      vertex -13.1 11 7.62939e-07
      vertex 13.1 12.6 7.62939e-07
      vertex 13.1 11 7.62939e-07
    endloop
  endfacet
  facet normal 0 0 -1
    outer loop
      vertex -13.1 11 7.62939e-07
      vertex -13.1 12.6 7.62939e-07
      vertex 13.1 12.6 7.62939e-07
    endloop
  endfacet
  facet normal 0 0 -1
    outer loop
      vertex -13.6853 10.9424 7.62939e-07
      vertex -13.1 12.6 7.62939e-07
      vertex -13.1 11 7.62939e-07
    endloop
  endfacet
  facet normal 0 0 -1
    outer loop
      vertex -13.6853 10.9424 7.62939e-07
      vertex -13.9974 12.5116 7.62939e-07
      vertex -13.1 12.6 7.62939e-07
    endloop
  endfacet
  facet normal 0 0 -1
    outer loop
      vertex -14.248 10.7716 7.62939e-07
      vertex -13.9974 12.5116 7.62939e-07
      vertex -13.6853 10.9424 7.62939e-07
    endloop
  endfacet
  facet normal 0 0 -1
    outer loop
      vertex -14.8603 12.2498 7.62939e-07
      vertex -14.248 10.7716 7.62939e-07
      vertex -14.7667 10.4944 7.62939e-07
    endloop
  endfacet
  facet normal 0 0 -1
    outer loop
      vertex -14.248 10.7716 7.62939e-07
      vertex -14.8603 12.2498 7.62939e-07
      vertex -13.9974 12.5116 7.62939e-07
    endloop
  endfacet
  facet normal 0 0 -1
    outer loop
      vertex -15.6556 11.8247 7.62939e-07
      vertex -14.7667 10.4944 7.62939e-07
      vertex -15.2213 10.1213 7.62939e-07
    endloop
  endfacet
  facet normal 0 0 -1
    outer loop
      vertex -16.3527 11.2527 7.62939e-07
      vertex -15.2213 10.1213 7.62939e-07
      vertex -15.5944 9.66672 7.62939e-07
    endloop
  endfacet
  facet normal 0 0 -1
    outer loop
      vertex -14.7667 10.4944 7.62939e-07
      vertex -15.6556 11.8247 7.62939e-07
      vertex -14.8603 12.2498 7.62939e-07
    endloop
  endfacet
  facet normal 0 0 -1
    outer loop
      vertex -16.9247 10.5556 7.62939e-07
      vertex -15.5944 9.66672 7.62939e-07
      vertex -15.8716 9.14806 7.62939e-07
    endloop
  endfacet
  facet normal 0 0 -1
    outer loop
      vertex -17.3498 9.76033 7.62939e-07
      vertex -15.8716 9.14806 7.62939e-07
      vertex -16.0423 8.58527 7.62939e-07
    endloop
  endfacet
  facet normal 0 0 -1
    outer loop
      vertex -15.2213 10.1213 7.62939e-07
      vertex -16.3527 11.2527 7.62939e-07
      vertex -15.6556 11.8247 7.62939e-07
    endloop
  endfacet
  facet normal 0 0 -1
    outer loop
      vertex -17.6116 8.8974 7.62939e-07
      vertex -16.0423 8.58527 7.62939e-07
      vertex -16.1 8 7.62939e-07
    endloop
  endfacet
  facet normal 0 0 -1
    outer loop
      vertex -16.1 -8 7.62939e-07
      vertex -17.7 -7.99998 7.62939e-07
      vertex -16.1 8 7.62939e-07
    endloop
  endfacet
  facet normal 0 0 -1
    outer loop
      vertex -17.6116 -8.8974 7.62939e-07
      vertex -16.0423 -8.58527 7.62939e-07
      vertex -17.3498 -9.76033 7.62939e-07
    endloop
  endfacet
  facet normal 0 0 -1
    outer loop
      vertex -17.7 7.99998 7.62939e-07
      vertex -16.1 8 7.62939e-07
      vertex -17.7 -7.99998 7.62939e-07
    endloop
  endfacet
  facet normal -0 0 -1
    outer loop
      vertex -16.0423 -8.58527 7.62939e-07
      vertex -17.6116 -8.8974 7.62939e-07
      vertex -16.1 -8 7.62939e-07
    endloop
  endfacet
  facet normal 0 -0 -1
    outer loop
      vertex -17.6116 8.8974 7.62939e-07
      vertex -16.1 8 7.62939e-07
      vertex -17.7 7.99998 7.62939e-07
    endloop
  endfacet
  facet normal -0 0 -1
    outer loop
      vertex -16.1 -8 7.62939e-07
      vertex -17.6116 -8.8974 7.62939e-07
      vertex -17.7 -7.99998 7.62939e-07
    endloop
  endfacet
  facet normal 0 0 -1
    outer loop
      vertex -15.5944 9.66672 7.62939e-07
      vertex -16.9247 10.5556 7.62939e-07
      vertex -16.3527 11.2527 7.62939e-07
    endloop
  endfacet
  facet normal 0 0 -1
    outer loop
      vertex -15.8716 9.14806 7.62939e-07
      vertex -17.3498 9.76033 7.62939e-07
      vertex -16.9247 10.5556 7.62939e-07
    endloop
  endfacet
  facet normal 0 0 -1
    outer loop
      vertex -16.0423 8.58527 7.62939e-07
      vertex -17.6116 8.8974 7.62939e-07
      vertex -17.3498 9.76033 7.62939e-07
    endloop
  endfacet
  facet normal 0.773062 -0.63433 0
    outer loop
      vertex 16.3527 -11.2527 0.599999
      vertex 16.9247 -10.5556 7.62939e-07
      vertex 16.9247 -10.5556 0.599999
    endloop
  endfacet
  facet normal 0.773062 -0.63433 0
    outer loop
      vertex 16.9247 -10.5556 7.62939e-07
      vertex 16.3527 -11.2527 0.599999
      vertex 16.3527 -11.2527 7.62939e-07
    endloop
  endfacet
  facet normal 0.773062 0.63433 0
    outer loop
      vertex 16.9247 10.5556 0.599999
      vertex 16.3527 11.2527 7.62939e-07
      vertex 16.3527 11.2527 0.599999
    endloop
  endfacet
  facet normal 0.773062 0.63433 0
    outer loop
      vertex 16.3527 11.2527 7.62939e-07
      vertex 16.9247 10.5556 0.599999
      vertex 16.9247 10.5556 7.62939e-07
    endloop
  endfacet
  facet normal -0.471329 0.881957 0
    outer loop
      vertex 14.7667 -10.4944 7.62939e-07
      vertex 14.248 -10.7716 0.599999
      vertex 14.7667 -10.4944 0.599999
    endloop
  endfacet
  facet normal -0.471329 0.881957 0
    outer loop
      vertex 14.248 -10.7716 0.599999
      vertex 14.7667 -10.4944 7.62939e-07
      vertex 14.248 -10.7716 7.62939e-07
    endloop
  endfacet
  facet normal 0.881942 0.471358 0
    outer loop
      vertex -15.5944 -9.66672 0.599999
      vertex -15.8716 -9.14806 7.62939e-07
      vertex -15.8716 -9.14806 0.599999
    endloop
  endfacet
  facet normal 0.881942 0.471358 0
    outer loop
      vertex -15.8716 -9.14806 7.62939e-07
      vertex -15.5944 -9.66672 0.599999
      vertex -15.5944 -9.66672 7.62939e-07
    endloop
  endfacet
  facet normal 0.634413 0.772994 -0
    outer loop
      vertex -14.7667 -10.4944 7.62939e-07
      vertex -15.2213 -10.1213 0.599999
      vertex -14.7667 -10.4944 0.599999
    endloop
  endfacet
  facet normal 0.634413 0.772994 0
    outer loop
      vertex -15.2213 -10.1213 0.599999
      vertex -14.7667 -10.4944 7.62939e-07
      vertex -15.2213 -10.1213 7.62939e-07
    endloop
  endfacet
  facet normal -0.290451 0.95689 0
    outer loop
      vertex 14.248 -10.7716 7.62939e-07
      vertex 13.6853 -10.9424 0.599999
      vertex 14.248 -10.7716 0.599999
    endloop
  endfacet
  facet normal -0.290451 0.95689 0
    outer loop
      vertex 13.6853 -10.9424 0.599999
      vertex 14.248 -10.7716 7.62939e-07
      vertex 13.6853 -10.9424 7.62939e-07
    endloop
  endfacet
  facet normal -0.995175 0.0981113 0
    outer loop
      vertex 16.0423 -8.58527 7.62939e-07
      vertex 16.1 -8 0.599999
      vertex 16.1 -8 7.62939e-07
    endloop
  endfacet
  facet normal -0.995175 0.0981113 0
    outer loop
      vertex 16.1 -8 0.599999
      vertex 16.0423 -8.58527 7.62939e-07
      vertex 16.0423 -8.58527 0.599999
    endloop
  endfacet
  facet normal -0.881942 0.471358 0
    outer loop
      vertex 15.5944 -9.66672 7.62939e-07
      vertex 15.8716 -9.14806 0.599999
      vertex 15.8716 -9.14806 7.62939e-07
    endloop
  endfacet
  facet normal -0.881942 0.471358 0
    outer loop
      vertex 15.8716 -9.14806 0.599999
      vertex 15.5944 -9.66672 7.62939e-07
      vertex 15.5944 -9.66672 0.599999
    endloop
  endfacet
  facet normal -0.95695 0.290253 0
    outer loop
      vertex 15.8716 -9.14806 7.62939e-07
      vertex 16.0423 -8.58527 0.599999
      vertex 16.0423 -8.58527 7.62939e-07
    endloop
  endfacet
  facet normal -0.95695 0.290253 0
    outer loop
      vertex 16.0423 -8.58527 0.599999
      vertex 15.8716 -9.14806 7.62939e-07
      vertex 15.8716 -9.14806 0.599999
    endloop
  endfacet
  facet normal -0.097938 0.995193 0
    outer loop
      vertex 13.6853 -10.9424 7.62939e-07
      vertex 13.1 -11 0.599999
      vertex 13.6853 -10.9424 0.599999
    endloop
  endfacet
  facet normal -0.097938 0.995193 0
    outer loop
      vertex 13.1 -11 0.599999
      vertex 13.6853 -10.9424 7.62939e-07
      vertex 13.1 -11 7.62939e-07
    endloop
  endfacet
  facet normal 0 -1 0
    outer loop
      vertex -13.1 11 7.62939e-07
      vertex 13.1 11 0.599999
      vertex -13.1 11 0.599999
    endloop
  endfacet
  facet normal 0 -1 -0
    outer loop
      vertex 13.1 11 0.599999
      vertex -13.1 11 7.62939e-07
      vertex 13.1 11 7.62939e-07
    endloop
  endfacet
  facet normal 0 1 -0
    outer loop
      vertex 13.1 -11 7.62939e-07
      vertex -13.1 -11 0.599999
      vertex 13.1 -11 0.599999
    endloop
  endfacet
  facet normal 0 1 0
    outer loop
      vertex -13.1 -11 0.599999
      vertex 13.1 -11 7.62939e-07
      vertex -13.1 -11 7.62939e-07
    endloop
  endfacet
  facet normal 0.097938 -0.995193 0
    outer loop
      vertex -13.6853 10.9424 7.62939e-07
      vertex -13.1 11 0.599999
      vertex -13.6853 10.9424 0.599999
    endloop
  endfacet
  facet normal 0.097938 -0.995193 0
    outer loop
      vertex -13.1 11 0.599999
      vertex -13.6853 10.9424 7.62939e-07
      vertex -13.1 11 7.62939e-07
    endloop
  endfacet
  facet normal -0.634413 0.772994 0
    outer loop
      vertex 15.2213 -10.1213 7.62939e-07
      vertex 14.7667 -10.4944 0.599999
      vertex 15.2213 -10.1213 0.599999
    endloop
  endfacet
  facet normal -0.634413 0.772994 0
    outer loop
      vertex 14.7667 -10.4944 0.599999
      vertex 15.2213 -10.1213 7.62939e-07
      vertex 14.7667 -10.4944 7.62939e-07
    endloop
  endfacet
  facet normal -0.881942 -0.471358 0
    outer loop
      vertex 15.8716 9.14806 7.62939e-07
      vertex 15.5944 9.66672 0.599999
      vertex 15.5944 9.66672 7.62939e-07
    endloop
  endfacet
  facet normal -0.881942 -0.471358 0
    outer loop
      vertex 15.5944 9.66672 0.599999
      vertex 15.8716 9.14806 7.62939e-07
      vertex 15.8716 9.14806 0.599999
    endloop
  endfacet
  facet normal 0.995175 -0.0981113 0
    outer loop
      vertex -16.1 8 0.599999
      vertex -16.0423 8.58527 7.62939e-07
      vertex -16.0423 8.58527 0.599999
    endloop
  endfacet
  facet normal 0.995175 -0.0981113 0
    outer loop
      vertex -16.0423 8.58527 7.62939e-07
      vertex -16.1 8 0.599999
      vertex -16.1 8 7.62939e-07
    endloop
  endfacet
  facet normal -1 0 0
    outer loop
      vertex 16.1 -8 7.62939e-07
      vertex 16.1 8 0.599999
      vertex 16.1 8 7.62939e-07
    endloop
  endfacet
  facet normal -1 -0 0
    outer loop
      vertex 16.1 8 0.599999
      vertex 16.1 -8 7.62939e-07
      vertex 16.1 -8 0.599999
    endloop
  endfacet
  facet normal -0.772981 0.63443 0
    outer loop
      vertex 15.2213 -10.1213 7.62939e-07
      vertex 15.5944 -9.66672 0.599999
      vertex 15.5944 -9.66672 7.62939e-07
    endloop
  endfacet
  facet normal -0.772981 0.63443 0
    outer loop
      vertex 15.5944 -9.66672 0.599999
      vertex 15.2213 -10.1213 7.62939e-07
      vertex 15.2213 -10.1213 0.599999
    endloop
  endfacet
  facet normal 0.95695 0.290253 0
    outer loop
      vertex -15.8716 -9.14806 0.599999
      vertex -16.0423 -8.58527 7.62939e-07
      vertex -16.0423 -8.58527 0.599999
    endloop
  endfacet
  facet normal 0.95695 0.290253 0
    outer loop
      vertex -16.0423 -8.58527 7.62939e-07
      vertex -15.8716 -9.14806 0.599999
      vertex -15.8716 -9.14806 7.62939e-07
    endloop
  endfacet
  facet normal -0.995175 -0.0981113 0
    outer loop
      vertex 16.1 8 7.62939e-07
      vertex 16.0423 8.58527 0.599999
      vertex 16.0423 8.58527 7.62939e-07
    endloop
  endfacet
  facet normal -0.995175 -0.0981113 0
    outer loop
      vertex 16.0423 8.58527 0.599999
      vertex 16.1 8 7.62939e-07
      vertex 16.1 8 0.599999
    endloop
  endfacet
  facet normal 0.471329 -0.881957 0
    outer loop
      vertex -14.7667 10.4944 7.62939e-07
      vertex -14.248 10.7716 0.599999
      vertex -14.7667 10.4944 0.599999
    endloop
  endfacet
  facet normal 0.471329 -0.881957 0
    outer loop
      vertex -14.248 10.7716 0.599999
      vertex -14.7667 10.4944 7.62939e-07
      vertex -14.248 10.7716 7.62939e-07
    endloop
  endfacet
  facet normal 0.290451 -0.95689 0
    outer loop
      vertex -14.248 10.7716 7.62939e-07
      vertex -13.6853 10.9424 0.599999
      vertex -14.248 10.7716 0.599999
    endloop
  endfacet
  facet normal 0.290451 -0.95689 0
    outer loop
      vertex -13.6853 10.9424 0.599999
      vertex -14.248 10.7716 7.62939e-07
      vertex -13.6853 10.9424 7.62939e-07
    endloop
  endfacet
  facet normal 1 -0 0
    outer loop
      vertex -16.1 -8 0.599999
      vertex -16.1 8 7.62939e-07
      vertex -16.1 8 0.599999
    endloop
  endfacet
  facet normal 1 0 0
    outer loop
      vertex -16.1 8 7.62939e-07
      vertex -16.1 -8 0.599999
      vertex -16.1 -8 7.62939e-07
    endloop
  endfacet
  facet normal -0.097938 -0.995193 0
    outer loop
      vertex 13.1 11 7.62939e-07
      vertex 13.6853 10.9424 0.599999
      vertex 13.1 11 0.599999
    endloop
  endfacet
  facet normal -0.097938 -0.995193 -0
    outer loop
      vertex 13.6853 10.9424 0.599999
      vertex 13.1 11 7.62939e-07
      vertex 13.6853 10.9424 7.62939e-07
    endloop
  endfacet
  facet normal 0.471329 0.881957 -0
    outer loop
      vertex -14.248 -10.7716 7.62939e-07
      vertex -14.7667 -10.4944 0.599999
      vertex -14.248 -10.7716 0.599999
    endloop
  endfacet
  facet normal 0.471329 0.881957 0
    outer loop
      vertex -14.7667 -10.4944 0.599999
      vertex -14.248 -10.7716 7.62939e-07
      vertex -14.7667 -10.4944 7.62939e-07
    endloop
  endfacet
  facet normal 0.097938 0.995193 -0
    outer loop
      vertex -13.1 -11 7.62939e-07
      vertex -13.6853 -10.9424 0.599999
      vertex -13.1 -11 0.599999
    endloop
  endfacet
  facet normal 0.097938 0.995193 0
    outer loop
      vertex -13.6853 -10.9424 0.599999
      vertex -13.1 -11 7.62939e-07
      vertex -13.6853 -10.9424 7.62939e-07
    endloop
  endfacet
  facet normal -0.95695 -0.290253 0
    outer loop
      vertex 16.0423 8.58527 7.62939e-07
      vertex 15.8716 9.14806 0.599999
      vertex 15.8716 9.14806 7.62939e-07
    endloop
  endfacet
  facet normal -0.95695 -0.290253 0
    outer loop
      vertex 15.8716 9.14806 0.599999
      vertex 16.0423 8.58527 7.62939e-07
      vertex 16.0423 8.58527 0.599999
    endloop
  endfacet
  facet normal -0.634413 -0.772994 0
    outer loop
      vertex 14.7667 10.4944 7.62939e-07
      vertex 15.2213 10.1213 0.599999
      vertex 14.7667 10.4944 0.599999
    endloop
  endfacet
  facet normal -0.634413 -0.772994 -0
    outer loop
      vertex 15.2213 10.1213 0.599999
      vertex 14.7667 10.4944 7.62939e-07
      vertex 15.2213 10.1213 7.62939e-07
    endloop
  endfacet
  facet normal -0.772981 -0.63443 0
    outer loop
      vertex 15.5944 9.66672 7.62939e-07
      vertex 15.2213 10.1213 0.599999
      vertex 15.2213 10.1213 7.62939e-07
    endloop
  endfacet
  facet normal -0.772981 -0.63443 0
    outer loop
      vertex 15.2213 10.1213 0.599999
      vertex 15.5944 9.66672 7.62939e-07
      vertex 15.5944 9.66672 0.599999
    endloop
  endfacet
  facet normal 0.290451 0.95689 -0
    outer loop
      vertex -13.6853 -10.9424 7.62939e-07
      vertex -14.248 -10.7716 0.599999
      vertex -13.6853 -10.9424 0.599999
    endloop
  endfacet
  facet normal 0.290451 0.95689 0
    outer loop
      vertex -14.248 -10.7716 0.599999
      vertex -13.6853 -10.9424 7.62939e-07
      vertex -14.248 -10.7716 7.62939e-07
    endloop
  endfacet
  facet normal 0.995175 0.0981113 0
    outer loop
      vertex -16.0423 -8.58527 0.599999
      vertex -16.1 -8 7.62939e-07
      vertex -16.1 -8 0.599999
    endloop
  endfacet
  facet normal 0.995175 0.0981113 0
    outer loop
      vertex -16.1 -8 7.62939e-07
      vertex -16.0423 -8.58527 0.599999
      vertex -16.0423 -8.58527 7.62939e-07
    endloop
  endfacet
  facet normal -0.290451 -0.95689 0
    outer loop
      vertex 13.6853 10.9424 7.62939e-07
      vertex 14.248 10.7716 0.599999
      vertex 13.6853 10.9424 0.599999
    endloop
  endfacet
  facet normal -0.290451 -0.95689 -0
    outer loop
      vertex 14.248 10.7716 0.599999
      vertex 13.6853 10.9424 7.62939e-07
      vertex 14.248 10.7716 7.62939e-07
    endloop
  endfacet
  facet normal 0.95695 -0.290253 0
    outer loop
      vertex -16.0423 8.58527 0.599999
      vertex -15.8716 9.14806 7.62939e-07
      vertex -15.8716 9.14806 0.599999
    endloop
  endfacet
  facet normal 0.95695 -0.290253 0
    outer loop
      vertex -15.8716 9.14806 7.62939e-07
      vertex -16.0423 8.58527 0.599999
      vertex -16.0423 8.58527 7.62939e-07
    endloop
  endfacet
  facet normal 0.634413 -0.772994 0
    outer loop
      vertex -15.2213 10.1213 7.62939e-07
      vertex -14.7667 10.4944 0.599999
      vertex -15.2213 10.1213 0.599999
    endloop
  endfacet
  facet normal 0.634413 -0.772994 0
    outer loop
      vertex -14.7667 10.4944 0.599999
      vertex -15.2213 10.1213 7.62939e-07
      vertex -14.7667 10.4944 7.62939e-07
    endloop
  endfacet
  facet normal 0.772981 0.63443 0
    outer loop
      vertex -15.2213 -10.1213 0.599999
      vertex -15.5944 -9.66672 7.62939e-07
      vertex -15.5944 -9.66672 0.599999
    endloop
  endfacet
  facet normal 0.772981 0.63443 0
    outer loop
      vertex -15.5944 -9.66672 7.62939e-07
      vertex -15.2213 -10.1213 0.599999
      vertex -15.2213 -10.1213 7.62939e-07
    endloop
  endfacet
  facet normal -0.471329 -0.881957 0
    outer loop
      vertex 14.248 10.7716 7.62939e-07
      vertex 14.7667 10.4944 0.599999
      vertex 14.248 10.7716 0.599999
    endloop
  endfacet
  facet normal -0.471329 -0.881957 -0
    outer loop
      vertex 14.7667 10.4944 0.599999
      vertex 14.248 10.7716 7.62939e-07
      vertex 14.7667 10.4944 7.62939e-07
    endloop
  endfacet
  facet normal 0.881942 -0.471358 0
    outer loop
      vertex -15.8716 9.14806 0.599999
      vertex -15.5944 9.66672 7.62939e-07
      vertex -15.5944 9.66672 0.599999
    endloop
  endfacet
  facet normal 0.881942 -0.471358 0
    outer loop
      vertex -15.5944 9.66672 7.62939e-07
      vertex -15.8716 9.14806 0.599999
      vertex -15.8716 9.14806 7.62939e-07
    endloop
  endfacet
  facet normal 0.772981 -0.63443 0
    outer loop
      vertex -15.5944 9.66672 0.599999
      vertex -15.2213 10.1213 7.62939e-07
      vertex -15.2213 10.1213 0.599999
    endloop
  endfacet
  facet normal 0.772981 -0.63443 0
    outer loop
      vertex -15.2213 10.1213 7.62939e-07
      vertex -15.5944 9.66672 0.599999
      vertex -15.5944 9.66672 7.62939e-07
    endloop
  endfacet
endsolid OpenSCAD_Model
